%TF.GenerationSoftware,KiCad,Pcbnew,9.0.6*%
%TF.CreationDate,2025-11-22T15:54:34-05:00*%
%TF.ProjectId,Project_Final,50726f6a-6563-4745-9f46-696e616c2e6b,rev?*%
%TF.SameCoordinates,Original*%
%TF.FileFunction,Soldermask,Top*%
%TF.FilePolarity,Negative*%
%FSLAX46Y46*%
G04 Gerber Fmt 4.6, Leading zero omitted, Abs format (unit mm)*
G04 Created by KiCad (PCBNEW 9.0.6) date 2025-11-22 15:54:34*
%MOMM*%
%LPD*%
G01*
G04 APERTURE LIST*
G04 Aperture macros list*
%AMRoundRect*
0 Rectangle with rounded corners*
0 $1 Rounding radius*
0 $2 $3 $4 $5 $6 $7 $8 $9 X,Y pos of 4 corners*
0 Add a 4 corners polygon primitive as box body*
4,1,4,$2,$3,$4,$5,$6,$7,$8,$9,$2,$3,0*
0 Add four circle primitives for the rounded corners*
1,1,$1+$1,$2,$3*
1,1,$1+$1,$4,$5*
1,1,$1+$1,$6,$7*
1,1,$1+$1,$8,$9*
0 Add four rect primitives between the rounded corners*
20,1,$1+$1,$2,$3,$4,$5,0*
20,1,$1+$1,$4,$5,$6,$7,0*
20,1,$1+$1,$6,$7,$8,$9,0*
20,1,$1+$1,$8,$9,$2,$3,0*%
G04 Aperture macros list end*
%ADD10R,1.371600X1.371600*%
%ADD11C,1.371600*%
%ADD12R,1.050000X1.500000*%
%ADD13O,1.050000X1.500000*%
%ADD14RoundRect,0.102000X0.550000X0.550000X-0.550000X0.550000X-0.550000X-0.550000X0.550000X-0.550000X0*%
%ADD15C,1.304000*%
%ADD16R,1.500000X1.050000*%
%ADD17O,1.500000X1.050000*%
%ADD18RoundRect,0.375000X-0.375000X0.625000X-0.375000X-0.625000X0.375000X-0.625000X0.375000X0.625000X0*%
%ADD19RoundRect,0.500000X-1.400000X0.500000X-1.400000X-0.500000X1.400000X-0.500000X1.400000X0.500000X0*%
%ADD20C,1.270000*%
%ADD21RoundRect,0.102000X0.802500X0.802500X-0.802500X0.802500X-0.802500X-0.802500X0.802500X-0.802500X0*%
%ADD22C,1.809000*%
%ADD23RoundRect,0.102000X0.550000X-0.550000X0.550000X0.550000X-0.550000X0.550000X-0.550000X-0.550000X0*%
%ADD24RoundRect,0.102000X-0.802500X-0.802500X0.802500X-0.802500X0.802500X0.802500X-0.802500X0.802500X0*%
%ADD25C,1.500000*%
%ADD26RoundRect,0.250000X0.550000X-0.550000X0.550000X0.550000X-0.550000X0.550000X-0.550000X-0.550000X0*%
%ADD27RoundRect,0.102000X-0.802500X0.802500X-0.802500X-0.802500X0.802500X-0.802500X0.802500X0.802500X0*%
%ADD28C,2.000000*%
%ADD29RoundRect,0.250000X0.600000X-0.600000X0.600000X0.600000X-0.600000X0.600000X-0.600000X-0.600000X0*%
%ADD30C,1.700000*%
%ADD31C,2.006600*%
%ADD32C,2.717800*%
%ADD33C,1.600000*%
%ADD34RoundRect,0.102000X-0.550000X-0.550000X0.550000X-0.550000X0.550000X0.550000X-0.550000X0.550000X0*%
G04 APERTURE END LIST*
D10*
%TO.C,R13*%
X68640000Y-44032000D03*
D11*
X68640000Y-55716000D03*
%TD*%
D12*
%TO.C,Q15*%
X80060000Y-64080000D03*
D13*
X81330000Y-64080000D03*
X82600000Y-64080000D03*
%TD*%
D14*
%TO.C,C1*%
X96000000Y-37500000D03*
D15*
X94000000Y-37500000D03*
%TD*%
D10*
%TO.C,R15*%
X68100000Y-60638000D03*
D11*
X68100000Y-72322000D03*
%TD*%
D16*
%TO.C,Q7*%
X82860000Y-32770000D03*
D17*
X82860000Y-31500000D03*
X82860000Y-30230000D03*
%TD*%
D18*
%TO.C,Q17*%
X94800000Y-109850000D03*
X92500000Y-109850000D03*
D19*
X92500000Y-116150000D03*
D18*
X90200000Y-109850000D03*
%TD*%
D20*
%TO.C,C2*%
X104200000Y-87690000D03*
X104200000Y-85190000D03*
%TD*%
D12*
%TO.C,Q19*%
X80060000Y-72710000D03*
D13*
X81330000Y-72710000D03*
X82600000Y-72710000D03*
%TD*%
D10*
%TO.C,R8*%
X88500000Y-101920000D03*
D11*
X88500000Y-90236000D03*
%TD*%
D12*
%TO.C,Q22*%
X72780000Y-81210000D03*
D13*
X74050000Y-81210000D03*
X75320000Y-81210000D03*
%TD*%
D12*
%TO.C,Q10*%
X75320000Y-104000000D03*
D13*
X74050000Y-104000000D03*
X72780000Y-104000000D03*
%TD*%
D21*
%TO.C,J5*%
X96270000Y-96000000D03*
D22*
X93730000Y-96000000D03*
%TD*%
D10*
%TO.C,R12*%
X88500000Y-71842000D03*
D11*
X88500000Y-60158000D03*
%TD*%
D23*
%TO.C,CPaddle1*%
X105500000Y-59000000D03*
D15*
X105500000Y-57000000D03*
%TD*%
D12*
%TO.C,Q11*%
X80060000Y-104860000D03*
D13*
X81330000Y-104860000D03*
X82600000Y-104860000D03*
%TD*%
D12*
%TO.C,Q21*%
X82600000Y-80850000D03*
D13*
X81330000Y-80850000D03*
X80060000Y-80850000D03*
%TD*%
D24*
%TO.C,J4*%
X94730000Y-77500000D03*
D22*
X97270000Y-77500000D03*
%TD*%
D10*
%TO.C,R16*%
X88500000Y-74974000D03*
D11*
X88500000Y-86658000D03*
%TD*%
D12*
%TO.C,Q14*%
X80730000Y-96000000D03*
D13*
X82000000Y-96000000D03*
X83270000Y-96000000D03*
%TD*%
D10*
%TO.C,R14*%
X73140000Y-44032000D03*
D11*
X73140000Y-55716000D03*
%TD*%
D25*
%TO.C,TP1*%
X122850000Y-59210000D03*
X128850000Y-59210000D03*
D26*
X116850000Y-59210000D03*
%TD*%
D12*
%TO.C,Q8*%
X96270000Y-30640000D03*
D13*
X95000000Y-30640000D03*
X93730000Y-30640000D03*
%TD*%
D12*
%TO.C,Q12*%
X75320000Y-95800000D03*
D13*
X74050000Y-95800000D03*
X72780000Y-95800000D03*
%TD*%
D16*
%TO.C,Q1*%
X71500000Y-39540000D03*
D17*
X71500000Y-38270000D03*
X71500000Y-37000000D03*
%TD*%
D16*
%TO.C,Q5*%
X82020000Y-22242000D03*
D17*
X82020000Y-23512000D03*
X82020000Y-24782000D03*
%TD*%
D27*
%TO.C,JPaddle1*%
X112160000Y-56640000D03*
D22*
X112160000Y-59180000D03*
%TD*%
D10*
%TO.C,R9*%
X71658000Y-109500000D03*
D11*
X83342000Y-109500000D03*
%TD*%
D10*
%TO.C,R4*%
X89500000Y-55684000D03*
D11*
X89500000Y-44000000D03*
%TD*%
D16*
%TO.C,Q9*%
X88278763Y-39651034D03*
D17*
X88278763Y-38381034D03*
X88278763Y-37111034D03*
%TD*%
D27*
%TO.C,JTestPoint1*%
X112080000Y-85270000D03*
D22*
X112080000Y-87810000D03*
%TD*%
D10*
%TO.C,R6*%
X78000000Y-44158000D03*
D11*
X78000000Y-55842000D03*
%TD*%
D12*
%TO.C,Q20*%
X75320000Y-72490000D03*
D13*
X74050000Y-72490000D03*
X72780000Y-72490000D03*
%TD*%
D12*
%TO.C,Q16*%
X82600000Y-89300000D03*
D13*
X81330000Y-89300000D03*
X80060000Y-89300000D03*
%TD*%
D10*
%TO.C,R7*%
X68100000Y-90578000D03*
D11*
X68100000Y-102262000D03*
%TD*%
D28*
%TO.C,JBattery1*%
X118620000Y-119670000D03*
X127620000Y-119670000D03*
X118620000Y-115670000D03*
X127620000Y-115670000D03*
D29*
X109620000Y-119670000D03*
D30*
X109620000Y-115670000D03*
%TD*%
D16*
%TO.C,Q2*%
X75698000Y-32698000D03*
D17*
X75698000Y-31428000D03*
X75698000Y-30158000D03*
%TD*%
D31*
%TO.C,R1*%
X105947800Y-79105386D03*
X108437000Y-79105386D03*
X110926200Y-79105386D03*
D32*
X104036800Y-72105386D03*
X112837200Y-72105386D03*
%TD*%
D25*
%TO.C,RLoad1*%
X123080000Y-88540000D03*
X129080000Y-88540000D03*
X123080000Y-84940000D03*
X129080000Y-84940000D03*
D26*
X117080000Y-88540000D03*
D33*
X117080000Y-84940000D03*
%TD*%
D21*
%TO.C,J2*%
X97167500Y-66100000D03*
D22*
X94627500Y-66100000D03*
%TD*%
D10*
%TO.C,R5*%
X89000000Y-32342000D03*
D11*
X89000000Y-20658000D03*
%TD*%
D16*
%TO.C,Q6*%
X82860000Y-39666000D03*
D17*
X82860000Y-38396000D03*
X82860000Y-37126000D03*
%TD*%
D16*
%TO.C,Q4*%
X75160000Y-22170000D03*
D17*
X75160000Y-23440000D03*
X75160000Y-24710000D03*
%TD*%
D16*
%TO.C,Q3*%
X77000000Y-39540000D03*
D17*
X77000000Y-38270000D03*
X77000000Y-37000000D03*
%TD*%
D10*
%TO.C,R17*%
X68100000Y-87822000D03*
D11*
X68100000Y-76138000D03*
%TD*%
D12*
%TO.C,Q18*%
X75320000Y-63490000D03*
D13*
X74050000Y-63490000D03*
X72780000Y-63490000D03*
%TD*%
D31*
%TO.C,R2*%
X121757800Y-78775386D03*
X124247000Y-78775386D03*
X126736200Y-78775386D03*
D32*
X119846800Y-71775386D03*
X128647200Y-71775386D03*
%TD*%
D34*
%TO.C,CByPass1*%
X93850000Y-90170000D03*
D15*
X95850000Y-90170000D03*
%TD*%
D10*
%TO.C,R10*%
X87158000Y-105500000D03*
D11*
X98842000Y-105500000D03*
%TD*%
D10*
%TO.C,R11*%
X70210000Y-21058000D03*
D11*
X70210000Y-32742000D03*
%TD*%
D10*
%TO.C,R3*%
X85000000Y-44000000D03*
D11*
X85000000Y-55684000D03*
%TD*%
D21*
%TO.C,J3*%
X97130000Y-71730000D03*
D22*
X94590000Y-71730000D03*
%TD*%
D14*
%TO.C,C3*%
X96000000Y-44000000D03*
D15*
X94000000Y-44000000D03*
%TD*%
D21*
%TO.C,J1*%
X97167500Y-60610000D03*
D22*
X94627500Y-60610000D03*
%TD*%
D12*
%TO.C,Q13*%
X72780000Y-89990000D03*
D13*
X74050000Y-89990000D03*
X75320000Y-89990000D03*
%TD*%
M02*
