%TF.GenerationSoftware,KiCad,Pcbnew,9.0.6*%
%TF.CreationDate,2025-11-22T15:54:34-05:00*%
%TF.ProjectId,Project_Final,50726f6a-6563-4745-9f46-696e616c2e6b,rev?*%
%TF.SameCoordinates,Original*%
%TF.FileFunction,Copper,L1,Top*%
%TF.FilePolarity,Positive*%
%FSLAX46Y46*%
G04 Gerber Fmt 4.6, Leading zero omitted, Abs format (unit mm)*
G04 Created by KiCad (PCBNEW 9.0.6) date 2025-11-22 15:54:34*
%MOMM*%
%LPD*%
G01*
G04 APERTURE LIST*
G04 Aperture macros list*
%AMRoundRect*
0 Rectangle with rounded corners*
0 $1 Rounding radius*
0 $2 $3 $4 $5 $6 $7 $8 $9 X,Y pos of 4 corners*
0 Add a 4 corners polygon primitive as box body*
4,1,4,$2,$3,$4,$5,$6,$7,$8,$9,$2,$3,0*
0 Add four circle primitives for the rounded corners*
1,1,$1+$1,$2,$3*
1,1,$1+$1,$4,$5*
1,1,$1+$1,$6,$7*
1,1,$1+$1,$8,$9*
0 Add four rect primitives between the rounded corners*
20,1,$1+$1,$2,$3,$4,$5,0*
20,1,$1+$1,$4,$5,$6,$7,0*
20,1,$1+$1,$6,$7,$8,$9,0*
20,1,$1+$1,$8,$9,$2,$3,0*%
G04 Aperture macros list end*
%TA.AperFunction,NonConductor*%
%ADD10C,0.200000*%
%TD*%
%TA.AperFunction,ComponentPad*%
%ADD11R,1.371600X1.371600*%
%TD*%
%TA.AperFunction,ComponentPad*%
%ADD12C,1.371600*%
%TD*%
%TA.AperFunction,ComponentPad*%
%ADD13R,1.050000X1.500000*%
%TD*%
%TA.AperFunction,ComponentPad*%
%ADD14O,1.050000X1.500000*%
%TD*%
%TA.AperFunction,ComponentPad*%
%ADD15R,1.100000X1.100000*%
%TD*%
%TA.AperFunction,ComponentPad*%
%ADD16C,1.100000*%
%TD*%
%TA.AperFunction,ComponentPad*%
%ADD17R,1.500000X1.050000*%
%TD*%
%TA.AperFunction,ComponentPad*%
%ADD18O,1.500000X1.050000*%
%TD*%
%TA.AperFunction,SMDPad,CuDef*%
%ADD19RoundRect,0.375000X-0.375000X0.625000X-0.375000X-0.625000X0.375000X-0.625000X0.375000X0.625000X0*%
%TD*%
%TA.AperFunction,SMDPad,CuDef*%
%ADD20RoundRect,0.500000X-1.400000X0.500000X-1.400000X-0.500000X1.400000X-0.500000X1.400000X0.500000X0*%
%TD*%
%TA.AperFunction,ComponentPad*%
%ADD21C,1.270000*%
%TD*%
%TA.AperFunction,ComponentPad*%
%ADD22R,1.605000X1.605000*%
%TD*%
%TA.AperFunction,ComponentPad*%
%ADD23C,1.605000*%
%TD*%
%TA.AperFunction,ComponentPad*%
%ADD24RoundRect,0.250000X0.550000X-0.550000X0.550000X0.550000X-0.550000X0.550000X-0.550000X-0.550000X0*%
%TD*%
%TA.AperFunction,ComponentPad*%
%ADD25RoundRect,0.250000X0.600000X-0.600000X0.600000X0.600000X-0.600000X0.600000X-0.600000X-0.600000X0*%
%TD*%
%TA.AperFunction,ComponentPad*%
%ADD26C,1.700000*%
%TD*%
%TA.AperFunction,ComponentPad*%
%ADD27C,2.006600*%
%TD*%
%TA.AperFunction,ComponentPad*%
%ADD28C,2.717800*%
%TD*%
%TA.AperFunction,ComponentPad*%
%ADD29C,1.600000*%
%TD*%
%TA.AperFunction,ViaPad*%
%ADD30C,0.600000*%
%TD*%
%TA.AperFunction,Conductor*%
%ADD31C,0.200000*%
%TD*%
%TA.AperFunction,Conductor*%
%ADD32C,0.300000*%
%TD*%
G04 APERTURE END LIST*
D10*
X101270000Y-92250000D02*
X131770000Y-92250000D01*
X131770000Y-112750000D01*
X101270000Y-112750000D01*
X101270000Y-92250000D01*
D11*
%TO.P,R13,1*%
%TO.N,Net-(Q1-E)*%
X68640000Y-44032000D03*
D12*
%TO.P,R13,2*%
%TO.N,VCC*%
X68640000Y-55716000D03*
%TD*%
D13*
%TO.P,Q15,1,E*%
%TO.N,Net-(Q15-E)*%
X80060000Y-64080000D03*
D14*
%TO.P,Q15,2,B*%
%TO.N,Net-(Q15-B)*%
X81330000Y-64080000D03*
%TO.P,Q15,3,C*%
X82600000Y-64080000D03*
%TD*%
D15*
%TO.P,C1,1*%
%TO.N,Net-(Q5-C)*%
X96000000Y-37500000D03*
D16*
%TO.P,C1,2*%
%TO.N,Net-(Q15-E)*%
X94000000Y-37500000D03*
%TD*%
D11*
%TO.P,R15,1*%
%TO.N,Net-(Q18-C)*%
X68100000Y-60638000D03*
D12*
%TO.P,R15,2*%
%TO.N,VEE*%
X68100000Y-72322000D03*
%TD*%
D17*
%TO.P,Q7,1,E*%
%TO.N,Net-(Q2-E)*%
X82860000Y-32770000D03*
D18*
%TO.P,Q7,2,B*%
%TO.N,V+*%
X82860000Y-31500000D03*
%TO.P,Q7,3,C*%
%TO.N,Net-(Q5-C)*%
X82860000Y-30230000D03*
%TD*%
D19*
%TO.P,Q17,1,G*%
%TO.N,VEE*%
X94800000Y-109850000D03*
%TO.P,Q17,2,D*%
%TO.N,Net-(JBattery1-Pin_1)*%
X92500000Y-109850000D03*
D20*
X92500000Y-116150000D03*
D19*
%TO.P,Q17,3,S*%
%TO.N,VCC*%
X90200000Y-109850000D03*
%TD*%
D21*
%TO.P,C2,1*%
%TO.N,VEE*%
X104200000Y-87690000D03*
%TO.P,C2,2*%
%TO.N,Net-(C2-Pad2)*%
X104200000Y-85190000D03*
%TD*%
D13*
%TO.P,Q19,1,E*%
%TO.N,V_Out_Op-Amp*%
X80060000Y-72710000D03*
D14*
%TO.P,Q19,2,B*%
%TO.N,Net-(Q15-B)*%
X81330000Y-72710000D03*
%TO.P,Q19,3,C*%
%TO.N,Net-(Q19-C)*%
X82600000Y-72710000D03*
%TD*%
D11*
%TO.P,R8,1*%
%TO.N,Net-(Q14-C)*%
X88500000Y-101920000D03*
D12*
%TO.P,R8,2*%
%TO.N,VEE*%
X88500000Y-90236000D03*
%TD*%
D13*
%TO.P,Q22,1,E*%
%TO.N,VEE*%
X72780000Y-81210000D03*
D14*
%TO.P,Q22,2,B*%
%TO.N,Net-(Q20-C)*%
X74050000Y-81210000D03*
%TO.P,Q22,3,C*%
%TO.N,V_Out_Op-Amp*%
X75320000Y-81210000D03*
%TD*%
D13*
%TO.P,Q10,1,E*%
%TO.N,V_In_Output*%
X75320000Y-104000000D03*
D14*
%TO.P,Q10,2,B*%
%TO.N,Net-(Q10-B)*%
X74050000Y-104000000D03*
%TO.P,Q10,3,C*%
X72780000Y-104000000D03*
%TD*%
D22*
%TO.P,J5,1,Pin_1*%
%TO.N,VEE*%
X96270000Y-96000000D03*
D23*
%TO.P,J5,2,Pin_2*%
%TO.N,VCC*%
X93730000Y-96000000D03*
%TD*%
D11*
%TO.P,R12,1*%
%TO.N,VCC*%
X88500000Y-71842000D03*
D12*
%TO.P,R12,2*%
%TO.N,Net-(Q15-B)*%
X88500000Y-60158000D03*
%TD*%
D15*
%TO.P,CPaddle1,1*%
%TO.N,Net-(J1-Pin_1)*%
X105500000Y-59000000D03*
D16*
%TO.P,CPaddle1,2*%
%TO.N,VEE*%
X105500000Y-57000000D03*
%TD*%
D13*
%TO.P,Q11,1,E*%
%TO.N,V_In_Output*%
X80060000Y-104860000D03*
D14*
%TO.P,Q11,2,B*%
X81330000Y-104860000D03*
%TO.P,Q11,3,C*%
%TO.N,Net-(Q11-C)*%
X82600000Y-104860000D03*
%TD*%
D13*
%TO.P,Q21,1,E*%
%TO.N,VCC*%
X82600000Y-80850000D03*
D14*
%TO.P,Q21,2,B*%
%TO.N,Net-(Q19-C)*%
X81330000Y-80850000D03*
%TO.P,Q21,3,C*%
%TO.N,V_Out_Op-Amp*%
X80060000Y-80850000D03*
%TD*%
D22*
%TO.P,J4,1,Pin_1*%
%TO.N,V_In_Output*%
X94730000Y-77500000D03*
D23*
%TO.P,J4,2,Pin_2*%
%TO.N,V-*%
X97270000Y-77500000D03*
%TD*%
D11*
%TO.P,R16,1*%
%TO.N,VCC*%
X88500000Y-74974000D03*
D12*
%TO.P,R16,2*%
%TO.N,Net-(Q19-C)*%
X88500000Y-86658000D03*
%TD*%
D13*
%TO.P,Q14,1,E*%
%TO.N,V_Out_Output*%
X80730000Y-96000000D03*
D14*
%TO.P,Q14,2,B*%
%TO.N,Net-(Q11-C)*%
X82000000Y-96000000D03*
%TO.P,Q14,3,C*%
%TO.N,Net-(Q14-C)*%
X83270000Y-96000000D03*
%TD*%
D11*
%TO.P,R14,1*%
%TO.N,Net-(Q3-E)*%
X73140000Y-44032000D03*
D12*
%TO.P,R14,2*%
%TO.N,VCC*%
X73140000Y-55716000D03*
%TD*%
D24*
%TO.P,TP1,1,1*%
%TO.N,Net-(J1-Pin_1)*%
X116850000Y-59210000D03*
%TD*%
D13*
%TO.P,Q8,1,E*%
%TO.N,Net-(Q8-E)*%
X96270000Y-30640000D03*
D14*
%TO.P,Q8,2,B*%
%TO.N,Net-(Q5-C)*%
X95000000Y-30640000D03*
%TO.P,Q8,3,C*%
%TO.N,Net-(Q15-E)*%
X93730000Y-30640000D03*
%TD*%
D13*
%TO.P,Q12,1,E*%
%TO.N,V_Out_Output*%
X75320000Y-95800000D03*
D14*
%TO.P,Q12,2,B*%
%TO.N,Net-(Q10-B)*%
X74050000Y-95800000D03*
%TO.P,Q12,3,C*%
%TO.N,Net-(Q12-C)*%
X72780000Y-95800000D03*
%TD*%
D17*
%TO.P,Q1,1,E*%
%TO.N,Net-(Q1-E)*%
X71500000Y-39540000D03*
D18*
%TO.P,Q1,2,B*%
%TO.N,Net-(Q1-B)*%
X71500000Y-38270000D03*
%TO.P,Q1,3,C*%
X71500000Y-37000000D03*
%TD*%
D17*
%TO.P,Q5,1,E*%
%TO.N,VEE*%
X82020000Y-22242000D03*
D18*
%TO.P,Q5,2,B*%
%TO.N,Net-(Q2-C)*%
X82020000Y-23512000D03*
%TO.P,Q5,3,C*%
%TO.N,Net-(Q5-C)*%
X82020000Y-24782000D03*
%TD*%
D22*
%TO.P,JPaddle1,1,Pin_1*%
%TO.N,VEE*%
X112160000Y-56640000D03*
D23*
%TO.P,JPaddle1,2,Pin_2*%
%TO.N,Net-(J1-Pin_1)*%
X112160000Y-59180000D03*
%TD*%
D11*
%TO.P,R9,1*%
%TO.N,VCC*%
X71658000Y-109500000D03*
D12*
%TO.P,R9,2*%
%TO.N,Net-(Q10-B)*%
X83342000Y-109500000D03*
%TD*%
D11*
%TO.P,R4,1*%
%TO.N,Net-(J2-Pin_1)*%
X89500000Y-55684000D03*
D12*
%TO.P,R4,2*%
%TO.N,VEE*%
X89500000Y-44000000D03*
%TD*%
D17*
%TO.P,Q9,1,E*%
%TO.N,Net-(Q9-E)*%
X88278763Y-39651034D03*
D18*
%TO.P,Q9,2,B*%
%TO.N,Net-(Q1-B)*%
X88278763Y-38381034D03*
%TO.P,Q9,3,C*%
%TO.N,Net-(Q15-E)*%
X88278763Y-37111034D03*
%TD*%
D22*
%TO.P,JTestPoint1,1,Pin_1*%
%TO.N,VEE*%
X112080000Y-85270000D03*
D23*
%TO.P,JTestPoint1,2,Pin_2*%
%TO.N,V_Out_Output*%
X112080000Y-87810000D03*
%TD*%
D11*
%TO.P,R6,1*%
%TO.N,Net-(Q9-E)*%
X78000000Y-44158000D03*
D12*
%TO.P,R6,2*%
%TO.N,VCC*%
X78000000Y-55842000D03*
%TD*%
D13*
%TO.P,Q20,1,E*%
%TO.N,V_Out_Op-Amp*%
X75320000Y-72490000D03*
D14*
%TO.P,Q20,2,B*%
%TO.N,Net-(Q18-C)*%
X74050000Y-72490000D03*
%TO.P,Q20,3,C*%
%TO.N,Net-(Q20-C)*%
X72780000Y-72490000D03*
%TD*%
D13*
%TO.P,Q16,1,E*%
%TO.N,VEE*%
X82600000Y-89300000D03*
D14*
%TO.P,Q16,2,B*%
%TO.N,Net-(Q14-C)*%
X81330000Y-89300000D03*
%TO.P,Q16,3,C*%
%TO.N,V_Out_Output*%
X80060000Y-89300000D03*
%TD*%
D11*
%TO.P,R7,1*%
%TO.N,VCC*%
X68100000Y-90578000D03*
D12*
%TO.P,R7,2*%
%TO.N,Net-(Q12-C)*%
X68100000Y-102262000D03*
%TD*%
D25*
%TO.P,JBattery1,1,Pin_1*%
%TO.N,Net-(JBattery1-Pin_1)*%
X109620000Y-119670000D03*
D26*
%TO.P,JBattery1,2,Pin_2*%
%TO.N,VEE*%
X109620000Y-115670000D03*
%TD*%
D17*
%TO.P,Q2,1,E*%
%TO.N,Net-(Q2-E)*%
X75698000Y-32698000D03*
D18*
%TO.P,Q2,2,B*%
%TO.N,V-*%
X75698000Y-31428000D03*
%TO.P,Q2,3,C*%
%TO.N,Net-(Q2-C)*%
X75698000Y-30158000D03*
%TD*%
D27*
%TO.P,R1,1,1*%
%TO.N,V_Out_Op-Amp*%
X105947800Y-79105386D03*
%TO.P,R1,2,2*%
X108437000Y-79105386D03*
%TO.P,R1,3,3*%
%TO.N,V-*%
X110926200Y-79105386D03*
D28*
%TO.P,R1,4*%
%TO.N,N/C*%
X104036800Y-72105386D03*
%TO.P,R1,5*%
X112837200Y-72105386D03*
%TD*%
D24*
%TO.P,RLoad1,1*%
%TO.N,V_Out_Output*%
X117080000Y-88540000D03*
D29*
%TO.P,RLoad1,2*%
%TO.N,Net-(C2-Pad2)*%
X117080000Y-84940000D03*
%TD*%
D22*
%TO.P,J2,1,Pin_1*%
%TO.N,Net-(J2-Pin_1)*%
X97167500Y-66100000D03*
D23*
%TO.P,J2,2,Pin_2*%
%TO.N,V+*%
X94627500Y-66100000D03*
%TD*%
D11*
%TO.P,R5,1*%
%TO.N,VEE*%
X89000000Y-32342000D03*
D12*
%TO.P,R5,2*%
%TO.N,Net-(Q8-E)*%
X89000000Y-20658000D03*
%TD*%
D17*
%TO.P,Q6,1,E*%
%TO.N,Net-(Q3-E)*%
X82860000Y-39666000D03*
D18*
%TO.P,Q6,2,B*%
%TO.N,Net-(Q1-B)*%
X82860000Y-38396000D03*
%TO.P,Q6,3,C*%
%TO.N,Net-(Q2-E)*%
X82860000Y-37126000D03*
%TD*%
D17*
%TO.P,Q4,1,E*%
%TO.N,VEE*%
X75160000Y-22170000D03*
D18*
%TO.P,Q4,2,B*%
%TO.N,Net-(Q2-C)*%
X75160000Y-23440000D03*
%TO.P,Q4,3,C*%
X75160000Y-24710000D03*
%TD*%
D17*
%TO.P,Q3,1,E*%
%TO.N,Net-(Q3-E)*%
X77000000Y-39540000D03*
D18*
%TO.P,Q3,2,B*%
%TO.N,Net-(Q1-B)*%
X77000000Y-38270000D03*
%TO.P,Q3,3,C*%
%TO.N,Net-(Q2-E)*%
X77000000Y-37000000D03*
%TD*%
D11*
%TO.P,R17,1*%
%TO.N,Net-(Q20-C)*%
X68100000Y-87822000D03*
D12*
%TO.P,R17,2*%
%TO.N,VEE*%
X68100000Y-76138000D03*
%TD*%
D13*
%TO.P,Q18,1,E*%
%TO.N,Net-(Q15-E)*%
X75320000Y-63490000D03*
D14*
%TO.P,Q18,2,B*%
X74050000Y-63490000D03*
%TO.P,Q18,3,C*%
%TO.N,Net-(Q18-C)*%
X72780000Y-63490000D03*
%TD*%
D27*
%TO.P,R2,1,1*%
%TO.N,Net-(J3-Pin_1)*%
X121757800Y-78775386D03*
%TO.P,R2,2,2*%
X124247000Y-78775386D03*
%TO.P,R2,3,3*%
%TO.N,Net-(J2-Pin_1)*%
X126736200Y-78775386D03*
D28*
%TO.P,R2,4*%
%TO.N,N/C*%
X119846800Y-71775386D03*
%TO.P,R2,5*%
X128647200Y-71775386D03*
%TD*%
D15*
%TO.P,CByPass1,1*%
%TO.N,VCC*%
X93850000Y-90170000D03*
D16*
%TO.P,CByPass1,2*%
%TO.N,VEE*%
X95850000Y-90170000D03*
%TD*%
D11*
%TO.P,R10,1*%
%TO.N,Net-(Q11-C)*%
X87158000Y-105500000D03*
D12*
%TO.P,R10,2*%
%TO.N,VEE*%
X98842000Y-105500000D03*
%TD*%
D11*
%TO.P,R11,1*%
%TO.N,VEE*%
X70210000Y-21058000D03*
D12*
%TO.P,R11,2*%
%TO.N,Net-(Q1-B)*%
X70210000Y-32742000D03*
%TD*%
D11*
%TO.P,R3,1*%
%TO.N,VCC*%
X85000000Y-44000000D03*
D12*
%TO.P,R3,2*%
%TO.N,Net-(J2-Pin_1)*%
X85000000Y-55684000D03*
%TD*%
D22*
%TO.P,J3,1,Pin_1*%
%TO.N,Net-(J3-Pin_1)*%
X97130000Y-71730000D03*
D23*
%TO.P,J3,2,Pin_2*%
%TO.N,V_Out_Op-Amp*%
X94590000Y-71730000D03*
%TD*%
D15*
%TO.P,C3,1*%
%TO.N,Net-(Q5-C)*%
X96000000Y-44000000D03*
D16*
%TO.P,C3,2*%
%TO.N,VEE*%
X94000000Y-44000000D03*
%TD*%
D22*
%TO.P,J1,1,Pin_1*%
%TO.N,Net-(J1-Pin_1)*%
X97167500Y-60610000D03*
D23*
%TO.P,J1,2,Pin_2*%
%TO.N,V-*%
X94627500Y-60610000D03*
%TD*%
D13*
%TO.P,Q13,1,E*%
%TO.N,VCC*%
X72780000Y-89990000D03*
D14*
%TO.P,Q13,2,B*%
%TO.N,Net-(Q12-C)*%
X74050000Y-89990000D03*
%TO.P,Q13,3,C*%
%TO.N,V_Out_Output*%
X75320000Y-89990000D03*
%TD*%
D30*
%TO.N,Net-(Q15-E)*%
X82000000Y-54000000D03*
%TD*%
D31*
%TO.N,Net-(Q1-B)*%
X71500000Y-34032000D02*
X71500000Y-37000000D01*
X77730000Y-38270000D02*
X77856000Y-38396000D01*
X88263797Y-38396000D02*
X88278763Y-38381034D01*
X77000000Y-38270000D02*
X77730000Y-38270000D01*
X70210000Y-32742000D02*
X71500000Y-34032000D01*
X71500000Y-38270000D02*
X77000000Y-38270000D01*
X71500000Y-37000000D02*
X71500000Y-38270000D01*
X77856000Y-38396000D02*
X82860000Y-38396000D01*
X82860000Y-38396000D02*
X88263797Y-38396000D01*
%TO.N,Net-(Q1-E)*%
X68640000Y-44032000D02*
X68640000Y-42400000D01*
X68640000Y-42400000D02*
X71500000Y-39540000D01*
%TO.N,Net-(Q2-C)*%
X81948000Y-23440000D02*
X82020000Y-23512000D01*
X75160000Y-29620000D02*
X75698000Y-30158000D01*
X75160000Y-23440000D02*
X75160000Y-24710000D01*
X75160000Y-24710000D02*
X75160000Y-29620000D01*
X75160000Y-23440000D02*
X81948000Y-23440000D01*
%TO.N,Net-(Q2-E)*%
X75698000Y-32698000D02*
X75698000Y-35698000D01*
X78126000Y-37126000D02*
X82860000Y-37126000D01*
X82860000Y-32770000D02*
X82860000Y-37126000D01*
X77000000Y-37000000D02*
X78000000Y-37000000D01*
X78000000Y-37000000D02*
X78126000Y-37126000D01*
X75698000Y-35698000D02*
X77000000Y-37000000D01*
%TO.N,Net-(Q3-E)*%
X82734000Y-39540000D02*
X82860000Y-39666000D01*
X77000000Y-39540000D02*
X82734000Y-39540000D01*
X73140000Y-44032000D02*
X77000000Y-40172000D01*
X77000000Y-40172000D02*
X77000000Y-39540000D01*
%TO.N,Net-(Q5-C)*%
X95000000Y-36500000D02*
X95000000Y-30640000D01*
X95000000Y-30640000D02*
X95000000Y-30516860D01*
X94072140Y-29589000D02*
X83501000Y-29589000D01*
X83501000Y-29589000D02*
X82860000Y-30230000D01*
X82020000Y-29390000D02*
X82860000Y-30230000D01*
X95000000Y-30516860D02*
X94072140Y-29589000D01*
X96000000Y-37500000D02*
X96000000Y-44000000D01*
X82020000Y-24782000D02*
X82020000Y-29390000D01*
X96000000Y-37500000D02*
X95000000Y-36500000D01*
%TO.N,Net-(Q9-E)*%
X78000000Y-44158000D02*
X82821797Y-44158000D01*
X87328763Y-39651034D02*
X88278763Y-39651034D01*
X82821797Y-44158000D02*
X87328763Y-39651034D01*
%TO.N,V_Out_Op-Amp*%
X105947800Y-79105386D02*
X101965386Y-79105386D01*
X108437000Y-79105386D02*
X105947800Y-79105386D01*
X101965386Y-79105386D02*
X94590000Y-71730000D01*
%TO.N,V_In_Output*%
X81330000Y-104860000D02*
X80060000Y-104860000D01*
%TO.N,V_Out_Output*%
X75520000Y-96000000D02*
X75320000Y-95800000D01*
X75320000Y-89990000D02*
X75320000Y-95800000D01*
X112810000Y-88540000D02*
X112080000Y-87810000D01*
X79370000Y-89990000D02*
X80060000Y-89300000D01*
X80730000Y-96000000D02*
X75520000Y-96000000D01*
X117080000Y-88540000D02*
X112810000Y-88540000D01*
X75320000Y-89990000D02*
X79370000Y-89990000D01*
%TO.N,Net-(J3-Pin_1)*%
X120783500Y-77801086D02*
X121757800Y-78775386D01*
X97130000Y-71730000D02*
X103201086Y-77801086D01*
X124247000Y-78775386D02*
X121757800Y-78775386D01*
X103201086Y-77801086D02*
X120783500Y-77801086D01*
%TO.N,Net-(J2-Pin_1)*%
X124960814Y-77000000D02*
X111278868Y-77000000D01*
X89500000Y-58432500D02*
X97167500Y-66100000D01*
X111278868Y-77000000D02*
X100378868Y-66100000D01*
X89500000Y-55684000D02*
X89500000Y-58432500D01*
X100378868Y-66100000D02*
X97167500Y-66100000D01*
X85000000Y-55684000D02*
X89500000Y-55684000D01*
X126736200Y-78775386D02*
X124960814Y-77000000D01*
%TO.N,Net-(Q10-B)*%
X74050000Y-104000000D02*
X74050000Y-105050000D01*
X72780000Y-104000000D02*
X74050000Y-104000000D01*
X78500000Y-109500000D02*
X83342000Y-109500000D01*
X74050000Y-105050000D02*
X78500000Y-109500000D01*
X74050000Y-95800000D02*
X74050000Y-104000000D01*
%TO.N,Net-(JBattery1-Pin_1)*%
X96020000Y-119670000D02*
X92500000Y-116150000D01*
X109620000Y-119670000D02*
X96020000Y-119670000D01*
X92500000Y-109850000D02*
X92500000Y-116150000D01*
%TO.N,Net-(C2-Pad2)*%
X105249999Y-84140001D02*
X104200000Y-85190000D01*
X117080000Y-84940000D02*
X116280001Y-84140001D01*
X116280001Y-84140001D02*
X105249999Y-84140001D01*
%TO.N,Net-(Q11-C)*%
X87158000Y-105500000D02*
X83240000Y-105500000D01*
X82000000Y-96950000D02*
X82600000Y-97550000D01*
X82600000Y-97550000D02*
X82600000Y-104860000D01*
X83240000Y-105500000D02*
X82600000Y-104860000D01*
X82000000Y-96000000D02*
X82000000Y-96950000D01*
%TO.N,Net-(Q12-C)*%
X72780000Y-95676860D02*
X72780000Y-95800000D01*
X74050000Y-89990000D02*
X74050000Y-94406860D01*
X74050000Y-94406860D02*
X72780000Y-95676860D01*
%TO.N,Net-(Q14-C)*%
X81330000Y-93936860D02*
X83270000Y-95876860D01*
X83270000Y-96690000D02*
X83270000Y-96000000D01*
X81330000Y-89300000D02*
X81330000Y-93936860D01*
X88500000Y-101920000D02*
X83270000Y-96690000D01*
X83270000Y-95876860D02*
X83270000Y-96000000D01*
D32*
%TO.N,VEE*%
X98842000Y-105500000D02*
X94800000Y-109542000D01*
X112160000Y-47660875D02*
X112163601Y-47657274D01*
X94800000Y-109542000D02*
X94800000Y-109850000D01*
X112160000Y-56640000D02*
X112160000Y-47660875D01*
D31*
%TO.N,Net-(J1-Pin_1)*%
X103890000Y-60610000D02*
X105500000Y-59000000D01*
X105500000Y-59000000D02*
X111980000Y-59000000D01*
X97167500Y-60610000D02*
X103890000Y-60610000D01*
X111980000Y-59000000D02*
X112160000Y-59180000D01*
X112160000Y-59180000D02*
X116820000Y-59180000D01*
X116820000Y-59180000D02*
X116850000Y-59210000D01*
%TO.N,Net-(Q8-E)*%
X89000000Y-20658000D02*
X96270000Y-27928000D01*
X96270000Y-27928000D02*
X96270000Y-30640000D01*
%TO.N,Net-(Q15-E)*%
X94000000Y-30910000D02*
X93730000Y-30640000D01*
X80060000Y-64080000D02*
X80000000Y-64020000D01*
X75320000Y-63490000D02*
X79470000Y-63490000D01*
X79470000Y-63490000D02*
X80060000Y-64080000D01*
X93611034Y-37111034D02*
X94000000Y-37500000D01*
X88278763Y-37111034D02*
X93611034Y-37111034D01*
X88401903Y-37111034D02*
X88278763Y-37111034D01*
X74050000Y-63490000D02*
X75320000Y-63490000D01*
X82000000Y-54000000D02*
X88000000Y-48000000D01*
X80000000Y-64020000D02*
X80000000Y-64000000D01*
X88000000Y-41806797D02*
X89329763Y-40477034D01*
X88000000Y-48000000D02*
X88000000Y-41806797D01*
X89329763Y-40477034D02*
X89329763Y-38038894D01*
X89329763Y-38038894D02*
X88401903Y-37111034D01*
X94000000Y-37500000D02*
X94000000Y-30910000D01*
%TO.N,Net-(Q15-B)*%
X81330000Y-64080000D02*
X81330000Y-72710000D01*
%TO.N,Net-(Q18-C)*%
X74050000Y-64883140D02*
X72780000Y-63613140D01*
X68100000Y-60638000D02*
X69928000Y-60638000D01*
X69928000Y-60638000D02*
X72780000Y-63490000D01*
X74050000Y-72490000D02*
X74050000Y-64883140D01*
X72780000Y-63613140D02*
X72780000Y-63490000D01*
%TO.N,Net-(Q20-C)*%
X74050000Y-74260000D02*
X74050000Y-81210000D01*
X72780000Y-72990000D02*
X74050000Y-74260000D01*
X74050000Y-81210000D02*
X74050000Y-81872000D01*
X74050000Y-81872000D02*
X68100000Y-87822000D01*
X72780000Y-72490000D02*
X72780000Y-72990000D01*
%TD*%
%TA.AperFunction,Conductor*%
%TO.N,VCC*%
G36*
X99943039Y-19019685D02*
G01*
X99988794Y-19072489D01*
X100000000Y-19124000D01*
X100000000Y-54000000D01*
X111385500Y-54000000D01*
X111452539Y-54019685D01*
X111498294Y-54072489D01*
X111509500Y-54124000D01*
X111509500Y-55213000D01*
X111489815Y-55280039D01*
X111437011Y-55325794D01*
X111385502Y-55337000D01*
X111309630Y-55337000D01*
X111309623Y-55337001D01*
X111250016Y-55343408D01*
X111115171Y-55393702D01*
X111115164Y-55393706D01*
X110999955Y-55479952D01*
X110999952Y-55479955D01*
X110913706Y-55595164D01*
X110913702Y-55595171D01*
X110863408Y-55730017D01*
X110858318Y-55777364D01*
X110857001Y-55789623D01*
X110857000Y-55789635D01*
X110857000Y-57490370D01*
X110857001Y-57490376D01*
X110863408Y-57549983D01*
X110913702Y-57684828D01*
X110913706Y-57684835D01*
X110999952Y-57800044D01*
X110999955Y-57800047D01*
X111115164Y-57886293D01*
X111115171Y-57886297D01*
X111160118Y-57903061D01*
X111250017Y-57936591D01*
X111282417Y-57940074D01*
X111346965Y-57966811D01*
X111386814Y-58024203D01*
X111389309Y-58094028D01*
X111353657Y-58154117D01*
X111342047Y-58163680D01*
X111311156Y-58186124D01*
X111311154Y-58186125D01*
X111166128Y-58331151D01*
X111160218Y-58339285D01*
X111153605Y-58348386D01*
X111098276Y-58391051D01*
X111053289Y-58399500D01*
X106651440Y-58399500D01*
X106584401Y-58379815D01*
X106538646Y-58327011D01*
X106535258Y-58318833D01*
X106493797Y-58207671D01*
X106493793Y-58207664D01*
X106407547Y-58092455D01*
X106407544Y-58092452D01*
X106292335Y-58006206D01*
X106292326Y-58006201D01*
X106245214Y-57988630D01*
X106189280Y-57946759D01*
X106164862Y-57881295D01*
X106179713Y-57813022D01*
X106200862Y-57784769D01*
X106315977Y-57669655D01*
X106430941Y-57497598D01*
X106510130Y-57306420D01*
X106550500Y-57103465D01*
X106550500Y-56896535D01*
X106510130Y-56693580D01*
X106430941Y-56502402D01*
X106315977Y-56330345D01*
X106315975Y-56330342D01*
X106169657Y-56184024D01*
X106054577Y-56107131D01*
X105997598Y-56069059D01*
X105806420Y-55989870D01*
X105806412Y-55989868D01*
X105603469Y-55949500D01*
X105603465Y-55949500D01*
X105396535Y-55949500D01*
X105396530Y-55949500D01*
X105193587Y-55989868D01*
X105193579Y-55989870D01*
X105002403Y-56069058D01*
X104830342Y-56184024D01*
X104684024Y-56330342D01*
X104569058Y-56502403D01*
X104489870Y-56693579D01*
X104489868Y-56693587D01*
X104449500Y-56896530D01*
X104449500Y-57103469D01*
X104489868Y-57306412D01*
X104489870Y-57306420D01*
X104569058Y-57497596D01*
X104684024Y-57669657D01*
X104799134Y-57784767D01*
X104832619Y-57846090D01*
X104827635Y-57915782D01*
X104785763Y-57971715D01*
X104754786Y-57988630D01*
X104707671Y-58006202D01*
X104707664Y-58006206D01*
X104592455Y-58092452D01*
X104592452Y-58092455D01*
X104506206Y-58207664D01*
X104506202Y-58207671D01*
X104455908Y-58342517D01*
X104449501Y-58402116D01*
X104449500Y-58402135D01*
X104449500Y-59149902D01*
X104429815Y-59216941D01*
X104413181Y-59237583D01*
X103677584Y-59973181D01*
X103616261Y-60006666D01*
X103589903Y-60009500D01*
X98594499Y-60009500D01*
X98527460Y-59989815D01*
X98481705Y-59937011D01*
X98470499Y-59885500D01*
X98470499Y-59759629D01*
X98470498Y-59759623D01*
X98464091Y-59700016D01*
X98413797Y-59565171D01*
X98413793Y-59565164D01*
X98327547Y-59449955D01*
X98327544Y-59449952D01*
X98212335Y-59363706D01*
X98212328Y-59363702D01*
X98077482Y-59313408D01*
X98077483Y-59313408D01*
X98017883Y-59307001D01*
X98017881Y-59307000D01*
X98017873Y-59307000D01*
X98017864Y-59307000D01*
X96317129Y-59307000D01*
X96317123Y-59307001D01*
X96257516Y-59313408D01*
X96122671Y-59363702D01*
X96122664Y-59363706D01*
X96007455Y-59449952D01*
X96007452Y-59449955D01*
X95921206Y-59565164D01*
X95921202Y-59565171D01*
X95870908Y-59700016D01*
X95867425Y-59732417D01*
X95840686Y-59796968D01*
X95783293Y-59836815D01*
X95713468Y-59839308D01*
X95653380Y-59803654D01*
X95643817Y-59792045D01*
X95621373Y-59761154D01*
X95621373Y-59761153D01*
X95476347Y-59616127D01*
X95476345Y-59616125D01*
X95476340Y-59616121D01*
X95310424Y-59495577D01*
X95310423Y-59495576D01*
X95310421Y-59495575D01*
X95236888Y-59458108D01*
X95127682Y-59402464D01*
X95074475Y-59385176D01*
X94932620Y-59339084D01*
X94932614Y-59339083D01*
X94730053Y-59307000D01*
X94730048Y-59307000D01*
X94524952Y-59307000D01*
X94524947Y-59307000D01*
X94322385Y-59339083D01*
X94322383Y-59339083D01*
X94322380Y-59339084D01*
X94224851Y-59370773D01*
X94127317Y-59402464D01*
X93944575Y-59495577D01*
X93778659Y-59616121D01*
X93778654Y-59616125D01*
X93633625Y-59761154D01*
X93633621Y-59761159D01*
X93513077Y-59927075D01*
X93419964Y-60109817D01*
X93390500Y-60200499D01*
X93356584Y-60304880D01*
X93356583Y-60304883D01*
X93356583Y-60304885D01*
X93324500Y-60507446D01*
X93324500Y-60712553D01*
X93356583Y-60915114D01*
X93356584Y-60915120D01*
X93419963Y-61110178D01*
X93419964Y-61110181D01*
X93419965Y-61110182D01*
X93472848Y-61213971D01*
X93485744Y-61282640D01*
X93459468Y-61347381D01*
X93402361Y-61387638D01*
X93332556Y-61390630D01*
X93274682Y-61357947D01*
X90136819Y-58220084D01*
X90103334Y-58158761D01*
X90100500Y-58132403D01*
X90100500Y-56994299D01*
X90120185Y-56927260D01*
X90172989Y-56881505D01*
X90224500Y-56870299D01*
X90233671Y-56870299D01*
X90233672Y-56870299D01*
X90293283Y-56863891D01*
X90428131Y-56813596D01*
X90543346Y-56727346D01*
X90629596Y-56612131D01*
X90679891Y-56477283D01*
X90686300Y-56417673D01*
X90686299Y-54950328D01*
X90679891Y-54890717D01*
X90647495Y-54803860D01*
X90629597Y-54755871D01*
X90629593Y-54755864D01*
X90543347Y-54640655D01*
X90543344Y-54640652D01*
X90428135Y-54554406D01*
X90428128Y-54554402D01*
X90293282Y-54504108D01*
X90293283Y-54504108D01*
X90233683Y-54497701D01*
X90233681Y-54497700D01*
X90233673Y-54497700D01*
X90233664Y-54497700D01*
X88766329Y-54497700D01*
X88766323Y-54497701D01*
X88706716Y-54504108D01*
X88571871Y-54554402D01*
X88571864Y-54554406D01*
X88456655Y-54640652D01*
X88456652Y-54640655D01*
X88370406Y-54755864D01*
X88370402Y-54755871D01*
X88320108Y-54890717D01*
X88313701Y-54950316D01*
X88313701Y-54950323D01*
X88313700Y-54950335D01*
X88313700Y-54959500D01*
X88294015Y-55026539D01*
X88241211Y-55072294D01*
X88189700Y-55083500D01*
X86093240Y-55083500D01*
X86026201Y-55063815D01*
X85992922Y-55032386D01*
X85988674Y-55026539D01*
X85904859Y-54911178D01*
X85772822Y-54779141D01*
X85621757Y-54669385D01*
X85455381Y-54584613D01*
X85277793Y-54526911D01*
X85277791Y-54526910D01*
X85277789Y-54526910D01*
X85133822Y-54504108D01*
X85093364Y-54497700D01*
X84906636Y-54497700D01*
X84866178Y-54504108D01*
X84722210Y-54526910D01*
X84544616Y-54584614D01*
X84378242Y-54669385D01*
X84227176Y-54779142D01*
X84095142Y-54911176D01*
X83985385Y-55062242D01*
X83900614Y-55228616D01*
X83842910Y-55406210D01*
X83813700Y-55590636D01*
X83813700Y-55777364D01*
X83815643Y-55789629D01*
X83838719Y-55935330D01*
X83842911Y-55961793D01*
X83900613Y-56139381D01*
X83985385Y-56305757D01*
X84095141Y-56456822D01*
X84227178Y-56588859D01*
X84378243Y-56698615D01*
X84544619Y-56783387D01*
X84722207Y-56841089D01*
X84906636Y-56870300D01*
X84906637Y-56870300D01*
X85093363Y-56870300D01*
X85093364Y-56870300D01*
X85277793Y-56841089D01*
X85455381Y-56783387D01*
X85621757Y-56698615D01*
X85772822Y-56588859D01*
X85904859Y-56456822D01*
X85992923Y-56335613D01*
X86048252Y-56292949D01*
X86093240Y-56284500D01*
X88189701Y-56284500D01*
X88256740Y-56304185D01*
X88302495Y-56356989D01*
X88313701Y-56408500D01*
X88313701Y-56417676D01*
X88320108Y-56477283D01*
X88370402Y-56612128D01*
X88370406Y-56612135D01*
X88456652Y-56727344D01*
X88456655Y-56727347D01*
X88571864Y-56813593D01*
X88571871Y-56813597D01*
X88706716Y-56863891D01*
X88766317Y-56870299D01*
X88766318Y-56870299D01*
X88766327Y-56870300D01*
X88775493Y-56870299D01*
X88842531Y-56889978D01*
X88888290Y-56942779D01*
X88899500Y-56994299D01*
X88899500Y-58345830D01*
X88899499Y-58345848D01*
X88899499Y-58511554D01*
X88899498Y-58511554D01*
X88925875Y-58609992D01*
X88940423Y-58664285D01*
X88969360Y-58714404D01*
X89019480Y-58801216D01*
X89073135Y-58854871D01*
X89078758Y-58862549D01*
X89087520Y-58886817D01*
X89099882Y-58909456D01*
X89099189Y-58919136D01*
X89102486Y-58928266D01*
X89096738Y-58953415D01*
X89094898Y-58979148D01*
X89089081Y-58986917D01*
X89086919Y-58996380D01*
X89068485Y-59014430D01*
X89053026Y-59035081D01*
X89043932Y-59038472D01*
X89036997Y-59045264D01*
X89011733Y-59050482D01*
X88987562Y-59059498D01*
X88975318Y-59058004D01*
X88968572Y-59059398D01*
X88960144Y-59056153D01*
X88940399Y-59053745D01*
X88777793Y-59000911D01*
X88777791Y-59000910D01*
X88777789Y-59000910D01*
X88640388Y-58979148D01*
X88593364Y-58971700D01*
X88406636Y-58971700D01*
X88363883Y-58978471D01*
X88222210Y-59000910D01*
X88044616Y-59058614D01*
X87878242Y-59143385D01*
X87727176Y-59253142D01*
X87595142Y-59385176D01*
X87485385Y-59536242D01*
X87400614Y-59702616D01*
X87342910Y-59880210D01*
X87313700Y-60064636D01*
X87313700Y-60251363D01*
X87335267Y-60387535D01*
X87342911Y-60435793D01*
X87400613Y-60613381D01*
X87485385Y-60779757D01*
X87595141Y-60930822D01*
X87727178Y-61062859D01*
X87878243Y-61172615D01*
X88044619Y-61257387D01*
X88222207Y-61315089D01*
X88406636Y-61344300D01*
X88406637Y-61344300D01*
X88593363Y-61344300D01*
X88593364Y-61344300D01*
X88777793Y-61315089D01*
X88955381Y-61257387D01*
X89121757Y-61172615D01*
X89272822Y-61062859D01*
X89404859Y-60930822D01*
X89514615Y-60779757D01*
X89599387Y-60613381D01*
X89657089Y-60435793D01*
X89686300Y-60251364D01*
X89686300Y-60064636D01*
X89657089Y-59880207D01*
X89604253Y-59717597D01*
X89602259Y-59647759D01*
X89638339Y-59587926D01*
X89701040Y-59557098D01*
X89770454Y-59565063D01*
X89809866Y-59591601D01*
X94803584Y-64585319D01*
X94837069Y-64646642D01*
X94832085Y-64716334D01*
X94790213Y-64772267D01*
X94724749Y-64796684D01*
X94715903Y-64797000D01*
X94524947Y-64797000D01*
X94322385Y-64829083D01*
X94322383Y-64829083D01*
X94322380Y-64829084D01*
X94224851Y-64860773D01*
X94127317Y-64892464D01*
X93944575Y-64985577D01*
X93778659Y-65106121D01*
X93778654Y-65106125D01*
X93633625Y-65251154D01*
X93633621Y-65251159D01*
X93513077Y-65417075D01*
X93419964Y-65599817D01*
X93404882Y-65646235D01*
X93356584Y-65794880D01*
X93356583Y-65794883D01*
X93356583Y-65794885D01*
X93324500Y-65997446D01*
X93324500Y-66202553D01*
X93356583Y-66405114D01*
X93356584Y-66405120D01*
X93404758Y-66553384D01*
X93419964Y-66600182D01*
X93513077Y-66782924D01*
X93633621Y-66948840D01*
X93633625Y-66948845D01*
X93778654Y-67093874D01*
X93778659Y-67093878D01*
X93848796Y-67144835D01*
X93944579Y-67214425D01*
X94061022Y-67273755D01*
X94127317Y-67307535D01*
X94127319Y-67307535D01*
X94127322Y-67307537D01*
X94322380Y-67370916D01*
X94423666Y-67386958D01*
X94524947Y-67403000D01*
X94524952Y-67403000D01*
X94730053Y-67403000D01*
X94822126Y-67388416D01*
X94932620Y-67370916D01*
X95127678Y-67307537D01*
X95310421Y-67214425D01*
X95476347Y-67093873D01*
X95621373Y-66948847D01*
X95643817Y-66917955D01*
X95699145Y-66875289D01*
X95768759Y-66869308D01*
X95830554Y-66901913D01*
X95864913Y-66962751D01*
X95867426Y-66977585D01*
X95870908Y-67009983D01*
X95921202Y-67144828D01*
X95921206Y-67144835D01*
X96007452Y-67260044D01*
X96007455Y-67260047D01*
X96122664Y-67346293D01*
X96122671Y-67346297D01*
X96257517Y-67396591D01*
X96257516Y-67396591D01*
X96264444Y-67397335D01*
X96317127Y-67403000D01*
X98017872Y-67402999D01*
X98077483Y-67396591D01*
X98212331Y-67346296D01*
X98327546Y-67260046D01*
X98413796Y-67144831D01*
X98464091Y-67009983D01*
X98470500Y-66950373D01*
X98470500Y-66824500D01*
X98490185Y-66757461D01*
X98542989Y-66711706D01*
X98594500Y-66700500D01*
X100078771Y-66700500D01*
X100145810Y-66720185D01*
X100166452Y-66736819D01*
X103548346Y-70118713D01*
X103581831Y-70180036D01*
X103576847Y-70249728D01*
X103534975Y-70305661D01*
X103492760Y-70326168D01*
X103437833Y-70340886D01*
X103437831Y-70340886D01*
X103437830Y-70340887D01*
X103437823Y-70340889D01*
X103212647Y-70434160D01*
X103212636Y-70434165D01*
X103001563Y-70556029D01*
X103001547Y-70556040D01*
X102808183Y-70704413D01*
X102808176Y-70704419D01*
X102635833Y-70876762D01*
X102635827Y-70876769D01*
X102487454Y-71070133D01*
X102487443Y-71070149D01*
X102365579Y-71281222D01*
X102365574Y-71281233D01*
X102272303Y-71506409D01*
X102272300Y-71506419D01*
X102215698Y-71717664D01*
X102209216Y-71741854D01*
X102209214Y-71741865D01*
X102177400Y-71983506D01*
X102177400Y-72227265D01*
X102198035Y-72383996D01*
X102209215Y-72468915D01*
X102253763Y-72635172D01*
X102272300Y-72704352D01*
X102272303Y-72704362D01*
X102365574Y-72929538D01*
X102365579Y-72929549D01*
X102487443Y-73140622D01*
X102487454Y-73140638D01*
X102635827Y-73334002D01*
X102635833Y-73334009D01*
X102808176Y-73506352D01*
X102808183Y-73506358D01*
X102851878Y-73539886D01*
X103001556Y-73654738D01*
X103001563Y-73654742D01*
X103212636Y-73776606D01*
X103212641Y-73776608D01*
X103212644Y-73776610D01*
X103437833Y-73869886D01*
X103673271Y-73932971D01*
X103914928Y-73964786D01*
X103914935Y-73964786D01*
X104158665Y-73964786D01*
X104158672Y-73964786D01*
X104400329Y-73932971D01*
X104635767Y-73869886D01*
X104860956Y-73776610D01*
X105072044Y-73654738D01*
X105265418Y-73506357D01*
X105437771Y-73334004D01*
X105586152Y-73140630D01*
X105708024Y-72929542D01*
X105801300Y-72704353D01*
X105816017Y-72649425D01*
X105852380Y-72589767D01*
X105915226Y-72559237D01*
X105984602Y-72567531D01*
X106023472Y-72593839D01*
X110418538Y-76988905D01*
X110452023Y-77050228D01*
X110447039Y-77119920D01*
X110405167Y-77175853D01*
X110339703Y-77200270D01*
X110330857Y-77200586D01*
X103501183Y-77200586D01*
X103434144Y-77180901D01*
X103413502Y-77164267D01*
X98469318Y-72220083D01*
X98435833Y-72158760D01*
X98432999Y-72132402D01*
X98432999Y-70879629D01*
X98432998Y-70879623D01*
X98432691Y-70876769D01*
X98426591Y-70820017D01*
X98396796Y-70740133D01*
X98376297Y-70685171D01*
X98376293Y-70685164D01*
X98290047Y-70569955D01*
X98290044Y-70569952D01*
X98174835Y-70483706D01*
X98174828Y-70483702D01*
X98039982Y-70433408D01*
X98039983Y-70433408D01*
X97980383Y-70427001D01*
X97980381Y-70427000D01*
X97980373Y-70427000D01*
X97980364Y-70427000D01*
X96279629Y-70427000D01*
X96279623Y-70427001D01*
X96220016Y-70433408D01*
X96085171Y-70483702D01*
X96085164Y-70483706D01*
X95969955Y-70569952D01*
X95969952Y-70569955D01*
X95883706Y-70685164D01*
X95883702Y-70685171D01*
X95833408Y-70820016D01*
X95829925Y-70852417D01*
X95803186Y-70916968D01*
X95745793Y-70956815D01*
X95675968Y-70959308D01*
X95615880Y-70923654D01*
X95606317Y-70912045D01*
X95583873Y-70881154D01*
X95583873Y-70881153D01*
X95438847Y-70736127D01*
X95438845Y-70736125D01*
X95438840Y-70736121D01*
X95272924Y-70615577D01*
X95272923Y-70615576D01*
X95272921Y-70615575D01*
X95183381Y-70569952D01*
X95090182Y-70522464D01*
X95043384Y-70507258D01*
X94895120Y-70459084D01*
X94895114Y-70459083D01*
X94692553Y-70427000D01*
X94692548Y-70427000D01*
X94487452Y-70427000D01*
X94487447Y-70427000D01*
X94284885Y-70459083D01*
X94284883Y-70459083D01*
X94284880Y-70459084D01*
X94187351Y-70490773D01*
X94089817Y-70522464D01*
X93907075Y-70615577D01*
X93741159Y-70736121D01*
X93741154Y-70736125D01*
X93596125Y-70881154D01*
X93596121Y-70881159D01*
X93475577Y-71047075D01*
X93382464Y-71229817D01*
X93360894Y-71296204D01*
X93319084Y-71424880D01*
X93319083Y-71424883D01*
X93319083Y-71424885D01*
X93287000Y-71627446D01*
X93287000Y-71832553D01*
X93319083Y-72035114D01*
X93319084Y-72035120D01*
X93352810Y-72138917D01*
X93382464Y-72230182D01*
X93475577Y-72412924D01*
X93596121Y-72578840D01*
X93596125Y-72578845D01*
X93741154Y-72723874D01*
X93741159Y-72723878D01*
X93814803Y-72777383D01*
X93907079Y-72844425D01*
X94023522Y-72903755D01*
X94089817Y-72937535D01*
X94089819Y-72937535D01*
X94089822Y-72937537D01*
X94284880Y-73000916D01*
X94386166Y-73016958D01*
X94487447Y-73033000D01*
X94487452Y-73033000D01*
X94692553Y-73033000D01*
X94784626Y-73018416D01*
X94895120Y-73000916D01*
X94910827Y-72995811D01*
X94980668Y-72993817D01*
X95036827Y-73026062D01*
X101480525Y-79469760D01*
X101480535Y-79469771D01*
X101484865Y-79474101D01*
X101484866Y-79474102D01*
X101596670Y-79585906D01*
X101632173Y-79606403D01*
X101683481Y-79636025D01*
X101683483Y-79636027D01*
X101719194Y-79656645D01*
X101733601Y-79664963D01*
X101886329Y-79705887D01*
X101886332Y-79705887D01*
X102052039Y-79705887D01*
X102052055Y-79705886D01*
X104490028Y-79705886D01*
X104557067Y-79725571D01*
X104600513Y-79773591D01*
X104661635Y-79893549D01*
X104800766Y-80085046D01*
X104968140Y-80252420D01*
X105159637Y-80391551D01*
X105323415Y-80475000D01*
X105370543Y-80499013D01*
X105595655Y-80572156D01*
X105595656Y-80572156D01*
X105595659Y-80572157D01*
X105829448Y-80609186D01*
X105829449Y-80609186D01*
X106066151Y-80609186D01*
X106066152Y-80609186D01*
X106299941Y-80572157D01*
X106299944Y-80572156D01*
X106299945Y-80572156D01*
X106525056Y-80499013D01*
X106525056Y-80499012D01*
X106525059Y-80499012D01*
X106735963Y-80391551D01*
X106927460Y-80252420D01*
X107094834Y-80085046D01*
X107094841Y-80085035D01*
X107097998Y-80081341D01*
X107099850Y-80082923D01*
X107147112Y-80046284D01*
X107216709Y-80040124D01*
X107278589Y-80072569D01*
X107286450Y-80081641D01*
X107286802Y-80081341D01*
X107289964Y-80085043D01*
X107289966Y-80085046D01*
X107457340Y-80252420D01*
X107648837Y-80391551D01*
X107812615Y-80475000D01*
X107859743Y-80499013D01*
X108084855Y-80572156D01*
X108084856Y-80572156D01*
X108084859Y-80572157D01*
X108318648Y-80609186D01*
X108318649Y-80609186D01*
X108555351Y-80609186D01*
X108555352Y-80609186D01*
X108789141Y-80572157D01*
X108789144Y-80572156D01*
X108789145Y-80572156D01*
X109014256Y-80499013D01*
X109014256Y-80499012D01*
X109014259Y-80499012D01*
X109225163Y-80391551D01*
X109416660Y-80252420D01*
X109584034Y-80085046D01*
X109584041Y-80085035D01*
X109587198Y-80081341D01*
X109589050Y-80082923D01*
X109636312Y-80046284D01*
X109705909Y-80040124D01*
X109767789Y-80072569D01*
X109775650Y-80081641D01*
X109776002Y-80081341D01*
X109779164Y-80085043D01*
X109779166Y-80085046D01*
X109946540Y-80252420D01*
X110138037Y-80391551D01*
X110301815Y-80475000D01*
X110348943Y-80499013D01*
X110574055Y-80572156D01*
X110574056Y-80572156D01*
X110574059Y-80572157D01*
X110807848Y-80609186D01*
X110807849Y-80609186D01*
X111044551Y-80609186D01*
X111044552Y-80609186D01*
X111278341Y-80572157D01*
X111278344Y-80572156D01*
X111278345Y-80572156D01*
X111503456Y-80499013D01*
X111503456Y-80499012D01*
X111503459Y-80499012D01*
X111714363Y-80391551D01*
X111905860Y-80252420D01*
X112073234Y-80085046D01*
X112212365Y-79893549D01*
X112319826Y-79682645D01*
X112339934Y-79620758D01*
X112392970Y-79457531D01*
X112392970Y-79457530D01*
X112392971Y-79457527D01*
X112430000Y-79223738D01*
X112430000Y-78987034D01*
X112392971Y-78753245D01*
X112392970Y-78753241D01*
X112392970Y-78753240D01*
X112331451Y-78563904D01*
X112329456Y-78494063D01*
X112365536Y-78434230D01*
X112428237Y-78403402D01*
X112449382Y-78401586D01*
X120149274Y-78401586D01*
X120216313Y-78421271D01*
X120262068Y-78474075D01*
X120272012Y-78543233D01*
X120271747Y-78544984D01*
X120254000Y-78657034D01*
X120254000Y-78893737D01*
X120291029Y-79127528D01*
X120291029Y-79127531D01*
X120364172Y-79352642D01*
X120426058Y-79474099D01*
X120471635Y-79563549D01*
X120610766Y-79755046D01*
X120778140Y-79922420D01*
X120969637Y-80061551D01*
X121122118Y-80139244D01*
X121180543Y-80169013D01*
X121405655Y-80242156D01*
X121405656Y-80242156D01*
X121405659Y-80242157D01*
X121639448Y-80279186D01*
X121639449Y-80279186D01*
X121876151Y-80279186D01*
X121876152Y-80279186D01*
X122109941Y-80242157D01*
X122109944Y-80242156D01*
X122109945Y-80242156D01*
X122335056Y-80169013D01*
X122335056Y-80169012D01*
X122335059Y-80169012D01*
X122545963Y-80061551D01*
X122737460Y-79922420D01*
X122904834Y-79755046D01*
X122904841Y-79755035D01*
X122907998Y-79751341D01*
X122909850Y-79752923D01*
X122957112Y-79716284D01*
X123026709Y-79710124D01*
X123088589Y-79742569D01*
X123096450Y-79751641D01*
X123096802Y-79751341D01*
X123099964Y-79755043D01*
X123099966Y-79755046D01*
X123267340Y-79922420D01*
X123458837Y-80061551D01*
X123611318Y-80139244D01*
X123669743Y-80169013D01*
X123894855Y-80242156D01*
X123894856Y-80242156D01*
X123894859Y-80242157D01*
X124128648Y-80279186D01*
X124128649Y-80279186D01*
X124365351Y-80279186D01*
X124365352Y-80279186D01*
X124599141Y-80242157D01*
X124599144Y-80242156D01*
X124599145Y-80242156D01*
X124824256Y-80169013D01*
X124824256Y-80169012D01*
X124824259Y-80169012D01*
X125035163Y-80061551D01*
X125226660Y-79922420D01*
X125394034Y-79755046D01*
X125394041Y-79755035D01*
X125397198Y-79751341D01*
X125399050Y-79752923D01*
X125446312Y-79716284D01*
X125515909Y-79710124D01*
X125577789Y-79742569D01*
X125585650Y-79751641D01*
X125586002Y-79751341D01*
X125589164Y-79755043D01*
X125589166Y-79755046D01*
X125756540Y-79922420D01*
X125948037Y-80061551D01*
X126100518Y-80139244D01*
X126158943Y-80169013D01*
X126384055Y-80242156D01*
X126384056Y-80242156D01*
X126384059Y-80242157D01*
X126617848Y-80279186D01*
X126617849Y-80279186D01*
X126854551Y-80279186D01*
X126854552Y-80279186D01*
X127088341Y-80242157D01*
X127088344Y-80242156D01*
X127088345Y-80242156D01*
X127313456Y-80169013D01*
X127313456Y-80169012D01*
X127313459Y-80169012D01*
X127524363Y-80061551D01*
X127715860Y-79922420D01*
X127883234Y-79755046D01*
X128022365Y-79563549D01*
X128129826Y-79352645D01*
X128202971Y-79127527D01*
X128240000Y-78893738D01*
X128240000Y-78657034D01*
X128202971Y-78423245D01*
X128202970Y-78423241D01*
X128202970Y-78423240D01*
X128129827Y-78198129D01*
X128113021Y-78165146D01*
X128022365Y-77987223D01*
X127883234Y-77795726D01*
X127715860Y-77628352D01*
X127524363Y-77489221D01*
X127313456Y-77381758D01*
X127088344Y-77308615D01*
X126912999Y-77280843D01*
X126854552Y-77271586D01*
X126617848Y-77271586D01*
X126571090Y-77278991D01*
X126384055Y-77308615D01*
X126256014Y-77350217D01*
X126186173Y-77352212D01*
X126130016Y-77319967D01*
X125448404Y-76638355D01*
X125448402Y-76638352D01*
X125329531Y-76519481D01*
X125329530Y-76519480D01*
X125234301Y-76464500D01*
X125192599Y-76440423D01*
X125039871Y-76399499D01*
X124881757Y-76399499D01*
X124874161Y-76399499D01*
X124874145Y-76399500D01*
X111578965Y-76399500D01*
X111511926Y-76379815D01*
X111491284Y-76363181D01*
X107111609Y-71983506D01*
X110977800Y-71983506D01*
X110977800Y-72227265D01*
X110998435Y-72383996D01*
X111009615Y-72468915D01*
X111054163Y-72635172D01*
X111072700Y-72704352D01*
X111072703Y-72704362D01*
X111165974Y-72929538D01*
X111165979Y-72929549D01*
X111287843Y-73140622D01*
X111287854Y-73140638D01*
X111436227Y-73334002D01*
X111436233Y-73334009D01*
X111608576Y-73506352D01*
X111608583Y-73506358D01*
X111652278Y-73539886D01*
X111801956Y-73654738D01*
X111801963Y-73654742D01*
X112013036Y-73776606D01*
X112013041Y-73776608D01*
X112013044Y-73776610D01*
X112238233Y-73869886D01*
X112473671Y-73932971D01*
X112715328Y-73964786D01*
X112715335Y-73964786D01*
X112959065Y-73964786D01*
X112959072Y-73964786D01*
X113200729Y-73932971D01*
X113436167Y-73869886D01*
X113661356Y-73776610D01*
X113872444Y-73654738D01*
X114065818Y-73506357D01*
X114238171Y-73334004D01*
X114386552Y-73140630D01*
X114508424Y-72929542D01*
X114601700Y-72704353D01*
X114664785Y-72468915D01*
X114696600Y-72227258D01*
X114696600Y-71983514D01*
X114664785Y-71741857D01*
X114641112Y-71653506D01*
X117987400Y-71653506D01*
X117987400Y-71897265D01*
X118005549Y-72035114D01*
X118019215Y-72138915D01*
X118055357Y-72273800D01*
X118082300Y-72374352D01*
X118082303Y-72374362D01*
X118175574Y-72599538D01*
X118175579Y-72599549D01*
X118297443Y-72810622D01*
X118297454Y-72810638D01*
X118445827Y-73004002D01*
X118445833Y-73004009D01*
X118618176Y-73176352D01*
X118618183Y-73176358D01*
X118693459Y-73234119D01*
X118811556Y-73324738D01*
X118811563Y-73324742D01*
X119022636Y-73446606D01*
X119022641Y-73446608D01*
X119022644Y-73446610D01*
X119247833Y-73539886D01*
X119483271Y-73602971D01*
X119724928Y-73634786D01*
X119724935Y-73634786D01*
X119968665Y-73634786D01*
X119968672Y-73634786D01*
X120210329Y-73602971D01*
X120445767Y-73539886D01*
X120670956Y-73446610D01*
X120882044Y-73324738D01*
X121075418Y-73176357D01*
X121247771Y-73004004D01*
X121396152Y-72810630D01*
X121518024Y-72599542D01*
X121611300Y-72374353D01*
X121674385Y-72138915D01*
X121706200Y-71897258D01*
X121706200Y-71653514D01*
X121706199Y-71653506D01*
X126787800Y-71653506D01*
X126787800Y-71897265D01*
X126805949Y-72035114D01*
X126819615Y-72138915D01*
X126855757Y-72273800D01*
X126882700Y-72374352D01*
X126882703Y-72374362D01*
X126975974Y-72599538D01*
X126975979Y-72599549D01*
X127097843Y-72810622D01*
X127097854Y-72810638D01*
X127246227Y-73004002D01*
X127246233Y-73004009D01*
X127418576Y-73176352D01*
X127418583Y-73176358D01*
X127493859Y-73234119D01*
X127611956Y-73324738D01*
X127611963Y-73324742D01*
X127823036Y-73446606D01*
X127823041Y-73446608D01*
X127823044Y-73446610D01*
X128048233Y-73539886D01*
X128283671Y-73602971D01*
X128525328Y-73634786D01*
X128525335Y-73634786D01*
X128769065Y-73634786D01*
X128769072Y-73634786D01*
X129010729Y-73602971D01*
X129246167Y-73539886D01*
X129471356Y-73446610D01*
X129682444Y-73324738D01*
X129875818Y-73176357D01*
X130048171Y-73004004D01*
X130196552Y-72810630D01*
X130318424Y-72599542D01*
X130411700Y-72374353D01*
X130474785Y-72138915D01*
X130506600Y-71897258D01*
X130506600Y-71653514D01*
X130474785Y-71411857D01*
X130411700Y-71176419D01*
X130318424Y-70951230D01*
X130318422Y-70951227D01*
X130318420Y-70951222D01*
X130196556Y-70740149D01*
X130196552Y-70740142D01*
X130100970Y-70615577D01*
X130048172Y-70546769D01*
X130048166Y-70546762D01*
X129875823Y-70374419D01*
X129875816Y-70374413D01*
X129682452Y-70226040D01*
X129682450Y-70226038D01*
X129682444Y-70226034D01*
X129682439Y-70226031D01*
X129682436Y-70226029D01*
X129471363Y-70104165D01*
X129471352Y-70104160D01*
X129246176Y-70010889D01*
X129246169Y-70010887D01*
X129246167Y-70010886D01*
X129010729Y-69947801D01*
X128970343Y-69942484D01*
X128769079Y-69915986D01*
X128769072Y-69915986D01*
X128525328Y-69915986D01*
X128525320Y-69915986D01*
X128295303Y-69946269D01*
X128283671Y-69947801D01*
X128048233Y-70010886D01*
X128048223Y-70010889D01*
X127823047Y-70104160D01*
X127823036Y-70104165D01*
X127611963Y-70226029D01*
X127611947Y-70226040D01*
X127418583Y-70374413D01*
X127418576Y-70374419D01*
X127246233Y-70546762D01*
X127246227Y-70546769D01*
X127097854Y-70740133D01*
X127097843Y-70740149D01*
X126975979Y-70951222D01*
X126975974Y-70951233D01*
X126882703Y-71176409D01*
X126882700Y-71176419D01*
X126827494Y-71382454D01*
X126819616Y-71411854D01*
X126819614Y-71411865D01*
X126787800Y-71653506D01*
X121706199Y-71653506D01*
X121674385Y-71411857D01*
X121611300Y-71176419D01*
X121518024Y-70951230D01*
X121518022Y-70951227D01*
X121518020Y-70951222D01*
X121396156Y-70740149D01*
X121396152Y-70740142D01*
X121300570Y-70615577D01*
X121247772Y-70546769D01*
X121247766Y-70546762D01*
X121075423Y-70374419D01*
X121075416Y-70374413D01*
X120882052Y-70226040D01*
X120882050Y-70226038D01*
X120882044Y-70226034D01*
X120882039Y-70226031D01*
X120882036Y-70226029D01*
X120670963Y-70104165D01*
X120670952Y-70104160D01*
X120445776Y-70010889D01*
X120445769Y-70010887D01*
X120445767Y-70010886D01*
X120210329Y-69947801D01*
X120169943Y-69942484D01*
X119968679Y-69915986D01*
X119968672Y-69915986D01*
X119724928Y-69915986D01*
X119724920Y-69915986D01*
X119494903Y-69946269D01*
X119483271Y-69947801D01*
X119247833Y-70010886D01*
X119247823Y-70010889D01*
X119022647Y-70104160D01*
X119022636Y-70104165D01*
X118811563Y-70226029D01*
X118811547Y-70226040D01*
X118618183Y-70374413D01*
X118618176Y-70374419D01*
X118445833Y-70546762D01*
X118445827Y-70546769D01*
X118297454Y-70740133D01*
X118297443Y-70740149D01*
X118175579Y-70951222D01*
X118175574Y-70951233D01*
X118082303Y-71176409D01*
X118082300Y-71176419D01*
X118027094Y-71382454D01*
X118019216Y-71411854D01*
X118019214Y-71411865D01*
X117987400Y-71653506D01*
X114641112Y-71653506D01*
X114601700Y-71506419D01*
X114598588Y-71498907D01*
X114539770Y-71356906D01*
X114508424Y-71281230D01*
X114508422Y-71281227D01*
X114508420Y-71281222D01*
X114386556Y-71070149D01*
X114386552Y-71070142D01*
X114266827Y-70914113D01*
X114238172Y-70876769D01*
X114238166Y-70876762D01*
X114065823Y-70704419D01*
X114065816Y-70704413D01*
X113872452Y-70556040D01*
X113872450Y-70556038D01*
X113872444Y-70556034D01*
X113872439Y-70556031D01*
X113872436Y-70556029D01*
X113661363Y-70434165D01*
X113661352Y-70434160D01*
X113436176Y-70340889D01*
X113436169Y-70340887D01*
X113436167Y-70340886D01*
X113200729Y-70277801D01*
X113160343Y-70272484D01*
X112959079Y-70245986D01*
X112959072Y-70245986D01*
X112715328Y-70245986D01*
X112715320Y-70245986D01*
X112485303Y-70276269D01*
X112473671Y-70277801D01*
X112293158Y-70326169D01*
X112238233Y-70340886D01*
X112238223Y-70340889D01*
X112013047Y-70434160D01*
X112013036Y-70434165D01*
X111801963Y-70556029D01*
X111801947Y-70556040D01*
X111608583Y-70704413D01*
X111608576Y-70704419D01*
X111436233Y-70876762D01*
X111436227Y-70876769D01*
X111287854Y-71070133D01*
X111287843Y-71070149D01*
X111165979Y-71281222D01*
X111165974Y-71281233D01*
X111072703Y-71506409D01*
X111072700Y-71506419D01*
X111016098Y-71717664D01*
X111009616Y-71741854D01*
X111009614Y-71741865D01*
X110977800Y-71983506D01*
X107111609Y-71983506D01*
X100866458Y-65738355D01*
X100866456Y-65738352D01*
X100747585Y-65619481D01*
X100747584Y-65619480D01*
X100660772Y-65569360D01*
X100660772Y-65569359D01*
X100660768Y-65569358D01*
X100610653Y-65540423D01*
X100457925Y-65499499D01*
X100299811Y-65499499D01*
X100292215Y-65499499D01*
X100292199Y-65499500D01*
X98594499Y-65499500D01*
X98527460Y-65479815D01*
X98481705Y-65427011D01*
X98470499Y-65375500D01*
X98470499Y-65249629D01*
X98470498Y-65249623D01*
X98466395Y-65211455D01*
X98464091Y-65190017D01*
X98463169Y-65187546D01*
X98413797Y-65055171D01*
X98413793Y-65055164D01*
X98327547Y-64939955D01*
X98327544Y-64939952D01*
X98212335Y-64853706D01*
X98212328Y-64853702D01*
X98077482Y-64803408D01*
X98077483Y-64803408D01*
X98017883Y-64797001D01*
X98017881Y-64797000D01*
X98017873Y-64797000D01*
X98017865Y-64797000D01*
X96765097Y-64797000D01*
X96698058Y-64777315D01*
X96677416Y-64760681D01*
X93879552Y-61962817D01*
X93846067Y-61901494D01*
X93851051Y-61831802D01*
X93892923Y-61775869D01*
X93958387Y-61751452D01*
X94023526Y-61764650D01*
X94045544Y-61775869D01*
X94127317Y-61817535D01*
X94127319Y-61817535D01*
X94127322Y-61817537D01*
X94322380Y-61880916D01*
X94423666Y-61896958D01*
X94524947Y-61913000D01*
X94524952Y-61913000D01*
X94730053Y-61913000D01*
X94822126Y-61898416D01*
X94932620Y-61880916D01*
X95127678Y-61817537D01*
X95310421Y-61724425D01*
X95476347Y-61603873D01*
X95621373Y-61458847D01*
X95643817Y-61427955D01*
X95699145Y-61385289D01*
X95768759Y-61379308D01*
X95830554Y-61411913D01*
X95864913Y-61472751D01*
X95867426Y-61487585D01*
X95870908Y-61519983D01*
X95921202Y-61654828D01*
X95921206Y-61654835D01*
X96007452Y-61770044D01*
X96007455Y-61770047D01*
X96122664Y-61856293D01*
X96122671Y-61856297D01*
X96257517Y-61906591D01*
X96257516Y-61906591D01*
X96264444Y-61907335D01*
X96317127Y-61913000D01*
X98017872Y-61912999D01*
X98077483Y-61906591D01*
X98212331Y-61856296D01*
X98327546Y-61770046D01*
X98413796Y-61654831D01*
X98464091Y-61519983D01*
X98470500Y-61460373D01*
X98470500Y-61334500D01*
X98490185Y-61267461D01*
X98542989Y-61221706D01*
X98594500Y-61210500D01*
X103803331Y-61210500D01*
X103803347Y-61210501D01*
X103810943Y-61210501D01*
X103969054Y-61210501D01*
X103969057Y-61210501D01*
X104121785Y-61169577D01*
X104171904Y-61140639D01*
X104258716Y-61090520D01*
X104370520Y-60978716D01*
X104370520Y-60978714D01*
X104380728Y-60968507D01*
X104380730Y-60968504D01*
X105262416Y-60086818D01*
X105323739Y-60053333D01*
X105350097Y-60050499D01*
X106097871Y-60050499D01*
X106097872Y-60050499D01*
X106157483Y-60044091D01*
X106292331Y-59993796D01*
X106407546Y-59907546D01*
X106493796Y-59792331D01*
X106505995Y-59759623D01*
X106535258Y-59681167D01*
X106577129Y-59625233D01*
X106642593Y-59600816D01*
X106651440Y-59600500D01*
X110836605Y-59600500D01*
X110903644Y-59620185D01*
X110949399Y-59672989D01*
X110951168Y-59677051D01*
X110952462Y-59680176D01*
X110952463Y-59680178D01*
X111040514Y-59852989D01*
X111045577Y-59862924D01*
X111166121Y-60028840D01*
X111166125Y-60028845D01*
X111311154Y-60173874D01*
X111311159Y-60173878D01*
X111417809Y-60251363D01*
X111477079Y-60294425D01*
X111591474Y-60352712D01*
X111659817Y-60387535D01*
X111659819Y-60387535D01*
X111659822Y-60387537D01*
X111854880Y-60450916D01*
X111956166Y-60466958D01*
X112057447Y-60483000D01*
X112057452Y-60483000D01*
X112262553Y-60483000D01*
X112354626Y-60468416D01*
X112465120Y-60450916D01*
X112660178Y-60387537D01*
X112842921Y-60294425D01*
X113008847Y-60173873D01*
X113153873Y-60028847D01*
X113274425Y-59862921D01*
X113281923Y-59848204D01*
X113329897Y-59797409D01*
X113392408Y-59780500D01*
X114876000Y-59780500D01*
X114943039Y-59800185D01*
X114988794Y-59852989D01*
X115000000Y-59904500D01*
X115000000Y-64000000D01*
X132876000Y-64000000D01*
X132943039Y-64019685D01*
X132988794Y-64072489D01*
X133000000Y-64124000D01*
X133000000Y-89876000D01*
X132980315Y-89943039D01*
X132927511Y-89988794D01*
X132876000Y-90000000D01*
X118021488Y-90000000D01*
X117954449Y-89980315D01*
X117908694Y-89927511D01*
X117898750Y-89858353D01*
X117927775Y-89794797D01*
X117956391Y-89770461D01*
X118098656Y-89682712D01*
X118222712Y-89558656D01*
X118314814Y-89409334D01*
X118369999Y-89242797D01*
X118380500Y-89140009D01*
X118380500Y-88638543D01*
X122079499Y-88638543D01*
X122117947Y-88831829D01*
X122117950Y-88831839D01*
X122193364Y-89013907D01*
X122193371Y-89013920D01*
X122302860Y-89177781D01*
X122302863Y-89177785D01*
X122442214Y-89317136D01*
X122442218Y-89317139D01*
X122606079Y-89426628D01*
X122606092Y-89426635D01*
X122778440Y-89498023D01*
X122788165Y-89502051D01*
X122788169Y-89502051D01*
X122788170Y-89502052D01*
X122981456Y-89540500D01*
X122981459Y-89540500D01*
X123178543Y-89540500D01*
X123318666Y-89512627D01*
X123371835Y-89502051D01*
X123553914Y-89426632D01*
X123717782Y-89317139D01*
X123857139Y-89177782D01*
X123966632Y-89013914D01*
X124042051Y-88831835D01*
X124060418Y-88739500D01*
X124080500Y-88638543D01*
X128079499Y-88638543D01*
X128117947Y-88831829D01*
X128117950Y-88831839D01*
X128193364Y-89013907D01*
X128193371Y-89013920D01*
X128302860Y-89177781D01*
X128302863Y-89177785D01*
X128442214Y-89317136D01*
X128442218Y-89317139D01*
X128606079Y-89426628D01*
X128606092Y-89426635D01*
X128778440Y-89498023D01*
X128788165Y-89502051D01*
X128788169Y-89502051D01*
X128788170Y-89502052D01*
X128981456Y-89540500D01*
X128981459Y-89540500D01*
X129178543Y-89540500D01*
X129318666Y-89512627D01*
X129371835Y-89502051D01*
X129553914Y-89426632D01*
X129717782Y-89317139D01*
X129857139Y-89177782D01*
X129966632Y-89013914D01*
X130042051Y-88831835D01*
X130060418Y-88739500D01*
X130080500Y-88638543D01*
X130080500Y-88441456D01*
X130042052Y-88248170D01*
X130042051Y-88248169D01*
X130042051Y-88248165D01*
X130030345Y-88219904D01*
X129966635Y-88066092D01*
X129966628Y-88066079D01*
X129857139Y-87902218D01*
X129857136Y-87902214D01*
X129717785Y-87762863D01*
X129717781Y-87762860D01*
X129553920Y-87653371D01*
X129553907Y-87653364D01*
X129371839Y-87577950D01*
X129371829Y-87577947D01*
X129178543Y-87539500D01*
X129178541Y-87539500D01*
X128981459Y-87539500D01*
X128981457Y-87539500D01*
X128788170Y-87577947D01*
X128788160Y-87577950D01*
X128606092Y-87653364D01*
X128606079Y-87653371D01*
X128442218Y-87762860D01*
X128442214Y-87762863D01*
X128302863Y-87902214D01*
X128302860Y-87902218D01*
X128193371Y-88066079D01*
X128193364Y-88066092D01*
X128117950Y-88248160D01*
X128117947Y-88248170D01*
X128079500Y-88441456D01*
X128079500Y-88441459D01*
X128079500Y-88638541D01*
X128079500Y-88638543D01*
X128079499Y-88638543D01*
X124080500Y-88638543D01*
X124080500Y-88441456D01*
X124042052Y-88248170D01*
X124042051Y-88248169D01*
X124042051Y-88248165D01*
X124030345Y-88219904D01*
X123966635Y-88066092D01*
X123966628Y-88066079D01*
X123857139Y-87902218D01*
X123857136Y-87902214D01*
X123717785Y-87762863D01*
X123717781Y-87762860D01*
X123553920Y-87653371D01*
X123553907Y-87653364D01*
X123371839Y-87577950D01*
X123371829Y-87577947D01*
X123178543Y-87539500D01*
X123178541Y-87539500D01*
X122981459Y-87539500D01*
X122981457Y-87539500D01*
X122788170Y-87577947D01*
X122788160Y-87577950D01*
X122606092Y-87653364D01*
X122606079Y-87653371D01*
X122442218Y-87762860D01*
X122442214Y-87762863D01*
X122302863Y-87902214D01*
X122302860Y-87902218D01*
X122193371Y-88066079D01*
X122193364Y-88066092D01*
X122117950Y-88248160D01*
X122117947Y-88248170D01*
X122079500Y-88441456D01*
X122079500Y-88441459D01*
X122079500Y-88638541D01*
X122079500Y-88638543D01*
X122079499Y-88638543D01*
X118380500Y-88638543D01*
X118380499Y-87939992D01*
X118369999Y-87837203D01*
X118314814Y-87670666D01*
X118222712Y-87521344D01*
X118098656Y-87397288D01*
X118005888Y-87340069D01*
X117949336Y-87305187D01*
X117949331Y-87305185D01*
X117872594Y-87279757D01*
X117782797Y-87250001D01*
X117782795Y-87250000D01*
X117680010Y-87239500D01*
X116479998Y-87239500D01*
X116479981Y-87239501D01*
X116377203Y-87250000D01*
X116377200Y-87250001D01*
X116210668Y-87305185D01*
X116210663Y-87305187D01*
X116061342Y-87397289D01*
X115937289Y-87521342D01*
X115845187Y-87670663D01*
X115845185Y-87670668D01*
X115790000Y-87837204D01*
X115789088Y-87841467D01*
X115755801Y-87902898D01*
X115694586Y-87936581D01*
X115667837Y-87939500D01*
X113507000Y-87939500D01*
X113439961Y-87919815D01*
X113394206Y-87867011D01*
X113383000Y-87815500D01*
X113383000Y-87707446D01*
X113362489Y-87577949D01*
X113350916Y-87504880D01*
X113287537Y-87309822D01*
X113287535Y-87309819D01*
X113287535Y-87309817D01*
X113251706Y-87239500D01*
X113194425Y-87127079D01*
X113122961Y-87028717D01*
X113073878Y-86961159D01*
X113073874Y-86961154D01*
X112928845Y-86816125D01*
X112928840Y-86816121D01*
X112897954Y-86793681D01*
X112855288Y-86738351D01*
X112849309Y-86668738D01*
X112881914Y-86606943D01*
X112942753Y-86572586D01*
X112957582Y-86570073D01*
X112989983Y-86566591D01*
X113124831Y-86516296D01*
X113240046Y-86430046D01*
X113326296Y-86314831D01*
X113376591Y-86179983D01*
X113383000Y-86120373D01*
X113382999Y-84864500D01*
X113402684Y-84797462D01*
X113455487Y-84751707D01*
X113506999Y-84740501D01*
X115655500Y-84740501D01*
X115722539Y-84760186D01*
X115768294Y-84812990D01*
X115779500Y-84864501D01*
X115779500Y-85042351D01*
X115811522Y-85244534D01*
X115874781Y-85439223D01*
X115935614Y-85558613D01*
X115945381Y-85577782D01*
X115967715Y-85621613D01*
X116088028Y-85787213D01*
X116232786Y-85931971D01*
X116376306Y-86036242D01*
X116398390Y-86052287D01*
X116514607Y-86111503D01*
X116580776Y-86145218D01*
X116580778Y-86145218D01*
X116580781Y-86145220D01*
X116629858Y-86161166D01*
X116775465Y-86208477D01*
X116876557Y-86224488D01*
X116977648Y-86240500D01*
X116977649Y-86240500D01*
X117182351Y-86240500D01*
X117182352Y-86240500D01*
X117384534Y-86208477D01*
X117579219Y-86145220D01*
X117761610Y-86052287D01*
X117854590Y-85984732D01*
X117927213Y-85931971D01*
X117927215Y-85931968D01*
X117927219Y-85931966D01*
X118071966Y-85787219D01*
X118071968Y-85787215D01*
X118071971Y-85787213D01*
X118124732Y-85714590D01*
X118192287Y-85621610D01*
X118285220Y-85439219D01*
X118348477Y-85244534D01*
X118380500Y-85042352D01*
X118380500Y-85038543D01*
X122079499Y-85038543D01*
X122117947Y-85231829D01*
X122117950Y-85231839D01*
X122193364Y-85413907D01*
X122193371Y-85413920D01*
X122302860Y-85577781D01*
X122302863Y-85577785D01*
X122442214Y-85717136D01*
X122442218Y-85717139D01*
X122606079Y-85826628D01*
X122606092Y-85826635D01*
X122788160Y-85902049D01*
X122788165Y-85902051D01*
X122788169Y-85902051D01*
X122788170Y-85902052D01*
X122981456Y-85940500D01*
X122981459Y-85940500D01*
X123178543Y-85940500D01*
X123308582Y-85914632D01*
X123371835Y-85902051D01*
X123553914Y-85826632D01*
X123717782Y-85717139D01*
X123857139Y-85577782D01*
X123966632Y-85413914D01*
X124042051Y-85231835D01*
X124054632Y-85168582D01*
X124080500Y-85038543D01*
X128079499Y-85038543D01*
X128117947Y-85231829D01*
X128117950Y-85231839D01*
X128193364Y-85413907D01*
X128193371Y-85413920D01*
X128302860Y-85577781D01*
X128302863Y-85577785D01*
X128442214Y-85717136D01*
X128442218Y-85717139D01*
X128606079Y-85826628D01*
X128606092Y-85826635D01*
X128788160Y-85902049D01*
X128788165Y-85902051D01*
X128788169Y-85902051D01*
X128788170Y-85902052D01*
X128981456Y-85940500D01*
X128981459Y-85940500D01*
X129178543Y-85940500D01*
X129308582Y-85914632D01*
X129371835Y-85902051D01*
X129553914Y-85826632D01*
X129717782Y-85717139D01*
X129857139Y-85577782D01*
X129966632Y-85413914D01*
X130042051Y-85231835D01*
X130054632Y-85168582D01*
X130080500Y-85038543D01*
X130080500Y-84841456D01*
X130042052Y-84648170D01*
X130042051Y-84648169D01*
X130042051Y-84648165D01*
X130019975Y-84594868D01*
X129966635Y-84466092D01*
X129966628Y-84466079D01*
X129857139Y-84302218D01*
X129857136Y-84302214D01*
X129717785Y-84162863D01*
X129717781Y-84162860D01*
X129553920Y-84053371D01*
X129553907Y-84053364D01*
X129371839Y-83977950D01*
X129371829Y-83977947D01*
X129178543Y-83939500D01*
X129178541Y-83939500D01*
X128981459Y-83939500D01*
X128981457Y-83939500D01*
X128788170Y-83977947D01*
X128788160Y-83977950D01*
X128606092Y-84053364D01*
X128606079Y-84053371D01*
X128442218Y-84162860D01*
X128442214Y-84162863D01*
X128302863Y-84302214D01*
X128302860Y-84302218D01*
X128193371Y-84466079D01*
X128193364Y-84466092D01*
X128117950Y-84648160D01*
X128117947Y-84648170D01*
X128079500Y-84841456D01*
X128079500Y-84841459D01*
X128079500Y-85038541D01*
X128079500Y-85038543D01*
X128079499Y-85038543D01*
X124080500Y-85038543D01*
X124080500Y-84841456D01*
X124042052Y-84648170D01*
X124042051Y-84648169D01*
X124042051Y-84648165D01*
X124019975Y-84594868D01*
X123966635Y-84466092D01*
X123966628Y-84466079D01*
X123857139Y-84302218D01*
X123857136Y-84302214D01*
X123717785Y-84162863D01*
X123717781Y-84162860D01*
X123553920Y-84053371D01*
X123553907Y-84053364D01*
X123371839Y-83977950D01*
X123371829Y-83977947D01*
X123178543Y-83939500D01*
X123178541Y-83939500D01*
X122981459Y-83939500D01*
X122981457Y-83939500D01*
X122788170Y-83977947D01*
X122788160Y-83977950D01*
X122606092Y-84053364D01*
X122606079Y-84053371D01*
X122442218Y-84162860D01*
X122442214Y-84162863D01*
X122302863Y-84302214D01*
X122302860Y-84302218D01*
X122193371Y-84466079D01*
X122193364Y-84466092D01*
X122117950Y-84648160D01*
X122117947Y-84648170D01*
X122079500Y-84841456D01*
X122079500Y-84841459D01*
X122079500Y-85038541D01*
X122079500Y-85038543D01*
X122079499Y-85038543D01*
X118380500Y-85038543D01*
X118380500Y-84837648D01*
X118348477Y-84635465D01*
X118293440Y-84466079D01*
X118285220Y-84440781D01*
X118285218Y-84440778D01*
X118285218Y-84440776D01*
X118225660Y-84323889D01*
X118192287Y-84258390D01*
X118184556Y-84247749D01*
X118071971Y-84092786D01*
X117927213Y-83948028D01*
X117761613Y-83827715D01*
X117761612Y-83827714D01*
X117761610Y-83827713D01*
X117704653Y-83798691D01*
X117579223Y-83734781D01*
X117384534Y-83671522D01*
X117209995Y-83643878D01*
X117182352Y-83639500D01*
X116977648Y-83639500D01*
X116910254Y-83650174D01*
X116775464Y-83671523D01*
X116759490Y-83676713D01*
X116725449Y-83677684D01*
X116691341Y-83679139D01*
X116690397Y-83678684D01*
X116689649Y-83678706D01*
X116658641Y-83665858D01*
X116650114Y-83660878D01*
X116648717Y-83659481D01*
X116561905Y-83609361D01*
X116511786Y-83580424D01*
X116359058Y-83539500D01*
X116200944Y-83539500D01*
X116193348Y-83539500D01*
X116193332Y-83539501D01*
X105336668Y-83539501D01*
X105336652Y-83539500D01*
X105329056Y-83539500D01*
X105170942Y-83539500D01*
X105063586Y-83568266D01*
X105018209Y-83580425D01*
X105018208Y-83580426D01*
X104968095Y-83609360D01*
X104968094Y-83609361D01*
X104924688Y-83634421D01*
X104881284Y-83659480D01*
X104881281Y-83659482D01*
X104769477Y-83771287D01*
X104504018Y-84036745D01*
X104442695Y-84070230D01*
X104396939Y-84071537D01*
X104289371Y-84054500D01*
X104289366Y-84054500D01*
X104110634Y-84054500D01*
X104051790Y-84063820D01*
X103934101Y-84082460D01*
X103934098Y-84082460D01*
X103764121Y-84137689D01*
X103764118Y-84137691D01*
X103604867Y-84218833D01*
X103460270Y-84323890D01*
X103333890Y-84450270D01*
X103228833Y-84594867D01*
X103147691Y-84754118D01*
X103147689Y-84754121D01*
X103092460Y-84924098D01*
X103092460Y-84924101D01*
X103064500Y-85100634D01*
X103064500Y-85279365D01*
X103092460Y-85455898D01*
X103092460Y-85455901D01*
X103147689Y-85625878D01*
X103147691Y-85625881D01*
X103228833Y-85785132D01*
X103333889Y-85929728D01*
X103460272Y-86056111D01*
X103604868Y-86161167D01*
X103764119Y-86242309D01*
X103764121Y-86242310D01*
X103922670Y-86293825D01*
X103934103Y-86297540D01*
X104060295Y-86317527D01*
X104123430Y-86347456D01*
X104160361Y-86406768D01*
X104159363Y-86476630D01*
X104120753Y-86534863D01*
X104060295Y-86562473D01*
X103934101Y-86582460D01*
X103934098Y-86582460D01*
X103764121Y-86637689D01*
X103764118Y-86637691D01*
X103604867Y-86718833D01*
X103460270Y-86823890D01*
X103333890Y-86950270D01*
X103228833Y-87094867D01*
X103147691Y-87254118D01*
X103147689Y-87254121D01*
X103092460Y-87424098D01*
X103092460Y-87424101D01*
X103064500Y-87600634D01*
X103064500Y-87779365D01*
X103092460Y-87955898D01*
X103092460Y-87955901D01*
X103147689Y-88125878D01*
X103147691Y-88125881D01*
X103228833Y-88285132D01*
X103333889Y-88429728D01*
X103460272Y-88556111D01*
X103604868Y-88661167D01*
X103764119Y-88742309D01*
X103764121Y-88742310D01*
X103922670Y-88793825D01*
X103934103Y-88797540D01*
X104110634Y-88825500D01*
X104110635Y-88825500D01*
X104289365Y-88825500D01*
X104289366Y-88825500D01*
X104465897Y-88797540D01*
X104465900Y-88797539D01*
X104465901Y-88797539D01*
X104635878Y-88742310D01*
X104635878Y-88742309D01*
X104635881Y-88742309D01*
X104795132Y-88661167D01*
X104939728Y-88556111D01*
X105066111Y-88429728D01*
X105171167Y-88285132D01*
X105252309Y-88125881D01*
X105307540Y-87955897D01*
X105335500Y-87779366D01*
X105335500Y-87600634D01*
X105307540Y-87424103D01*
X105307539Y-87424099D01*
X105307539Y-87424098D01*
X105252310Y-87254121D01*
X105252308Y-87254118D01*
X105250211Y-87250001D01*
X105171167Y-87094868D01*
X105066111Y-86950272D01*
X104939728Y-86823889D01*
X104795132Y-86718833D01*
X104635881Y-86637691D01*
X104635878Y-86637689D01*
X104465900Y-86582460D01*
X104365692Y-86566589D01*
X104339703Y-86562472D01*
X104276569Y-86532544D01*
X104239638Y-86473232D01*
X104240636Y-86403370D01*
X104279246Y-86345137D01*
X104339703Y-86317527D01*
X104465897Y-86297540D01*
X104465900Y-86297539D01*
X104465901Y-86297539D01*
X104635878Y-86242310D01*
X104635878Y-86242309D01*
X104635881Y-86242309D01*
X104795132Y-86161167D01*
X104939728Y-86056111D01*
X105066111Y-85929728D01*
X105171167Y-85785132D01*
X105252309Y-85625881D01*
X105292914Y-85500911D01*
X105307539Y-85455901D01*
X105307539Y-85455900D01*
X105307540Y-85455897D01*
X105335500Y-85279366D01*
X105335500Y-85100634D01*
X105318461Y-84993056D01*
X105319162Y-84987633D01*
X105317250Y-84982506D01*
X105323591Y-84953353D01*
X105327415Y-84923766D01*
X105331247Y-84918161D01*
X105332102Y-84914233D01*
X105353250Y-84885983D01*
X105462416Y-84776819D01*
X105523739Y-84743335D01*
X105550096Y-84740501D01*
X110653000Y-84740501D01*
X110720039Y-84760186D01*
X110765794Y-84812990D01*
X110777000Y-84864501D01*
X110777000Y-86120370D01*
X110777001Y-86120376D01*
X110783408Y-86179983D01*
X110833702Y-86314828D01*
X110833706Y-86314835D01*
X110919952Y-86430044D01*
X110919955Y-86430047D01*
X111035164Y-86516293D01*
X111035171Y-86516297D01*
X111078732Y-86532544D01*
X111170017Y-86566591D01*
X111202417Y-86570074D01*
X111266965Y-86596811D01*
X111306814Y-86654203D01*
X111309309Y-86724028D01*
X111273657Y-86784117D01*
X111262047Y-86793680D01*
X111231156Y-86816124D01*
X111231154Y-86816125D01*
X111086125Y-86961154D01*
X111086121Y-86961159D01*
X110965577Y-87127075D01*
X110872464Y-87309817D01*
X110844043Y-87397288D01*
X110809084Y-87504880D01*
X110809083Y-87504883D01*
X110809083Y-87504885D01*
X110777000Y-87707446D01*
X110777000Y-87912553D01*
X110808345Y-88110454D01*
X110809084Y-88115120D01*
X110852315Y-88248170D01*
X110872464Y-88310182D01*
X110965577Y-88492924D01*
X111086121Y-88658840D01*
X111086125Y-88658845D01*
X111231154Y-88803874D01*
X111231159Y-88803878D01*
X111315765Y-88865347D01*
X111397079Y-88924425D01*
X111494360Y-88973992D01*
X111579817Y-89017535D01*
X111579819Y-89017535D01*
X111579822Y-89017537D01*
X111774880Y-89080916D01*
X111876166Y-89096958D01*
X111977447Y-89113000D01*
X111977452Y-89113000D01*
X112182553Y-89113000D01*
X112274626Y-89098416D01*
X112385120Y-89080916D01*
X112435491Y-89064548D01*
X112505330Y-89062554D01*
X112535809Y-89075094D01*
X112578209Y-89099574D01*
X112578212Y-89099576D01*
X112578214Y-89099576D01*
X112578215Y-89099577D01*
X112730943Y-89140501D01*
X112730946Y-89140501D01*
X112896653Y-89140501D01*
X112896669Y-89140500D01*
X115667837Y-89140500D01*
X115734876Y-89160185D01*
X115780631Y-89212989D01*
X115789089Y-89238541D01*
X115789999Y-89242792D01*
X115845185Y-89409331D01*
X115845187Y-89409336D01*
X115855853Y-89426628D01*
X115937288Y-89558656D01*
X116061344Y-89682712D01*
X116203609Y-89770461D01*
X116250333Y-89822409D01*
X116261556Y-89891372D01*
X116233712Y-89955454D01*
X116175644Y-89994310D01*
X116138512Y-90000000D01*
X100000000Y-90000000D01*
X100000000Y-104693963D01*
X99980315Y-104761002D01*
X99927511Y-104806757D01*
X99858353Y-104816701D01*
X99794797Y-104787676D01*
X99775683Y-104766850D01*
X99746859Y-104727178D01*
X99614823Y-104595142D01*
X99463757Y-104485385D01*
X99297383Y-104400614D01*
X99297382Y-104400613D01*
X99297381Y-104400613D01*
X99119793Y-104342911D01*
X99119791Y-104342910D01*
X99119789Y-104342910D01*
X98975822Y-104320108D01*
X98935364Y-104313700D01*
X98748636Y-104313700D01*
X98708178Y-104320108D01*
X98564210Y-104342910D01*
X98386616Y-104400614D01*
X98220242Y-104485385D01*
X98069176Y-104595142D01*
X97937142Y-104727176D01*
X97827385Y-104878242D01*
X97742614Y-105044616D01*
X97684910Y-105222210D01*
X97655700Y-105406636D01*
X97655700Y-105593363D01*
X97669469Y-105680297D01*
X97660514Y-105749591D01*
X97634677Y-105787376D01*
X95108871Y-108313181D01*
X95047548Y-108346666D01*
X95021190Y-108349500D01*
X94348877Y-108349500D01*
X94348874Y-108349501D01*
X94306113Y-108352399D01*
X94306112Y-108352399D01*
X94121303Y-108398360D01*
X93950707Y-108482967D01*
X93950704Y-108482969D01*
X93802278Y-108602277D01*
X93802277Y-108602278D01*
X93746647Y-108671486D01*
X93689304Y-108711405D01*
X93619482Y-108713985D01*
X93559349Y-108678406D01*
X93553353Y-108671486D01*
X93497722Y-108602278D01*
X93497721Y-108602277D01*
X93349295Y-108482969D01*
X93349292Y-108482967D01*
X93178697Y-108398360D01*
X92993892Y-108352400D01*
X92972506Y-108350950D01*
X92951123Y-108349500D01*
X92951120Y-108349500D01*
X92048877Y-108349500D01*
X92048874Y-108349501D01*
X92006113Y-108352399D01*
X92006112Y-108352399D01*
X91821303Y-108398360D01*
X91650707Y-108482967D01*
X91650704Y-108482969D01*
X91502280Y-108602276D01*
X91502278Y-108602278D01*
X91501993Y-108602633D01*
X91446326Y-108671885D01*
X91388982Y-108711803D01*
X91319160Y-108714383D01*
X91259027Y-108678804D01*
X91253031Y-108671884D01*
X91197364Y-108602630D01*
X91049025Y-108483392D01*
X91049022Y-108483390D01*
X90878523Y-108398831D01*
X90693824Y-108352897D01*
X90651097Y-108350000D01*
X90450000Y-108350000D01*
X90450000Y-111350000D01*
X90651097Y-111350000D01*
X90693824Y-111347102D01*
X90878523Y-111301168D01*
X91049022Y-111216609D01*
X91049025Y-111216607D01*
X91197366Y-111097367D01*
X91197367Y-111097366D01*
X91253033Y-111028115D01*
X91310376Y-110988196D01*
X91380198Y-110985616D01*
X91440331Y-111021194D01*
X91446305Y-111028089D01*
X91502278Y-111097722D01*
X91502280Y-111097724D01*
X91650704Y-111217030D01*
X91650707Y-111217032D01*
X91827330Y-111304628D01*
X91826381Y-111306539D01*
X91874397Y-111342113D01*
X91899139Y-111407456D01*
X91899500Y-111416915D01*
X91899500Y-114525500D01*
X91879815Y-114592539D01*
X91827011Y-114638294D01*
X91775500Y-114649500D01*
X91041971Y-114649500D01*
X91041965Y-114649500D01*
X91041964Y-114649501D01*
X91030316Y-114650536D01*
X90922584Y-114660113D01*
X90726954Y-114716089D01*
X90636772Y-114763196D01*
X90546593Y-114810302D01*
X90546591Y-114810303D01*
X90546590Y-114810304D01*
X90388890Y-114938890D01*
X90260304Y-115096590D01*
X90166089Y-115276954D01*
X90110114Y-115472583D01*
X90110113Y-115472586D01*
X90099500Y-115591966D01*
X90099500Y-116708028D01*
X90099501Y-116708034D01*
X90110113Y-116827415D01*
X90166089Y-117023045D01*
X90166090Y-117023048D01*
X90166091Y-117023049D01*
X90260302Y-117203407D01*
X90260304Y-117203409D01*
X90388890Y-117361109D01*
X90416854Y-117383910D01*
X90546593Y-117489698D01*
X90726951Y-117583909D01*
X90922582Y-117639886D01*
X91041963Y-117650500D01*
X93099901Y-117650499D01*
X93166940Y-117670184D01*
X93187582Y-117686818D01*
X95651284Y-120150520D01*
X95651286Y-120150521D01*
X95651290Y-120150524D01*
X95788209Y-120229573D01*
X95788216Y-120229577D01*
X95940943Y-120270501D01*
X95940945Y-120270501D01*
X96106654Y-120270501D01*
X96106670Y-120270500D01*
X108152465Y-120270500D01*
X108219504Y-120290185D01*
X108265259Y-120342989D01*
X108275823Y-120381898D01*
X108280001Y-120422797D01*
X108280001Y-120422799D01*
X108335185Y-120589331D01*
X108335186Y-120589334D01*
X108427288Y-120738656D01*
X108551344Y-120862712D01*
X108700666Y-120954814D01*
X108867203Y-121009999D01*
X108969991Y-121020500D01*
X110270008Y-121020499D01*
X110372797Y-121009999D01*
X110539334Y-120954814D01*
X110688656Y-120862712D01*
X110812712Y-120738656D01*
X110904814Y-120589334D01*
X110959999Y-120422797D01*
X110970500Y-120320009D01*
X110970499Y-119019992D01*
X110959999Y-118917203D01*
X110904814Y-118750666D01*
X110812712Y-118601344D01*
X110688656Y-118477288D01*
X110539334Y-118385186D01*
X110372797Y-118330001D01*
X110372795Y-118330000D01*
X110270010Y-118319500D01*
X108969998Y-118319500D01*
X108969981Y-118319501D01*
X108867203Y-118330000D01*
X108867200Y-118330001D01*
X108700668Y-118385185D01*
X108700663Y-118385187D01*
X108551342Y-118477289D01*
X108427289Y-118601342D01*
X108335187Y-118750663D01*
X108335185Y-118750668D01*
X108280001Y-118917204D01*
X108280000Y-118917205D01*
X108275823Y-118958102D01*
X108249427Y-119022793D01*
X108192247Y-119062945D01*
X108152465Y-119069500D01*
X96320098Y-119069500D01*
X96253059Y-119049815D01*
X96232417Y-119033181D01*
X94667524Y-117468289D01*
X94634039Y-117406966D01*
X94639023Y-117337274D01*
X94659100Y-117302251D01*
X94739698Y-117203407D01*
X94833909Y-117023049D01*
X94889886Y-116827418D01*
X94900500Y-116708037D01*
X94900499Y-115591964D01*
X94897988Y-115563713D01*
X108269500Y-115563713D01*
X108269500Y-115776287D01*
X108302754Y-115986243D01*
X108355970Y-116150025D01*
X108368444Y-116188414D01*
X108464951Y-116377820D01*
X108589890Y-116549786D01*
X108740213Y-116700109D01*
X108912179Y-116825048D01*
X108912181Y-116825049D01*
X108912184Y-116825051D01*
X109101588Y-116921557D01*
X109303757Y-116987246D01*
X109513713Y-117020500D01*
X109513714Y-117020500D01*
X109726286Y-117020500D01*
X109726287Y-117020500D01*
X109936243Y-116987246D01*
X110138412Y-116921557D01*
X110327816Y-116825051D01*
X110445535Y-116739524D01*
X110499786Y-116700109D01*
X110499788Y-116700106D01*
X110499792Y-116700104D01*
X110650104Y-116549792D01*
X110650106Y-116549788D01*
X110650109Y-116549786D01*
X110775048Y-116377820D01*
X110775047Y-116377820D01*
X110775051Y-116377816D01*
X110871557Y-116188412D01*
X110937246Y-115986243D01*
X110970500Y-115776287D01*
X110970500Y-115563713D01*
X110937246Y-115353757D01*
X110871557Y-115151588D01*
X110775051Y-114962184D01*
X110775049Y-114962181D01*
X110775048Y-114962179D01*
X110650109Y-114790213D01*
X110499786Y-114639890D01*
X110327820Y-114514951D01*
X110138414Y-114418444D01*
X110138413Y-114418443D01*
X110138412Y-114418443D01*
X109936243Y-114352754D01*
X109936241Y-114352753D01*
X109936240Y-114352753D01*
X109774957Y-114327208D01*
X109726287Y-114319500D01*
X109513713Y-114319500D01*
X109465042Y-114327208D01*
X109303760Y-114352753D01*
X109101585Y-114418444D01*
X108912179Y-114514951D01*
X108740213Y-114639890D01*
X108589890Y-114790213D01*
X108464951Y-114962179D01*
X108368444Y-115151585D01*
X108302753Y-115353760D01*
X108283933Y-115472586D01*
X108269500Y-115563713D01*
X94897988Y-115563713D01*
X94889886Y-115472582D01*
X94833909Y-115276951D01*
X94739698Y-115096593D01*
X94687684Y-115032803D01*
X94611109Y-114938890D01*
X94453409Y-114810304D01*
X94453410Y-114810304D01*
X94453407Y-114810302D01*
X94273049Y-114716091D01*
X94273048Y-114716090D01*
X94273045Y-114716089D01*
X94155829Y-114682550D01*
X94077418Y-114660114D01*
X94077415Y-114660113D01*
X94077413Y-114660113D01*
X94004631Y-114653642D01*
X93958037Y-114649500D01*
X93958033Y-114649500D01*
X93224500Y-114649500D01*
X93157461Y-114629815D01*
X93111706Y-114577011D01*
X93100500Y-114525500D01*
X93100500Y-111416915D01*
X93120185Y-111349876D01*
X93172989Y-111304121D01*
X93177112Y-111302424D01*
X93178688Y-111301642D01*
X93178693Y-111301641D01*
X93349296Y-111217030D01*
X93497722Y-111097722D01*
X93553353Y-111028514D01*
X93610696Y-110988595D01*
X93680518Y-110986015D01*
X93740651Y-111021594D01*
X93746647Y-111028514D01*
X93802277Y-111097721D01*
X93802278Y-111097722D01*
X93950704Y-111217030D01*
X93950707Y-111217032D01*
X94121302Y-111301639D01*
X94121303Y-111301639D01*
X94121307Y-111301641D01*
X94306111Y-111347600D01*
X94348877Y-111350500D01*
X95251122Y-111350499D01*
X95293889Y-111347600D01*
X95478693Y-111301641D01*
X95649296Y-111217030D01*
X95797722Y-111097722D01*
X95917030Y-110949296D01*
X96001641Y-110778693D01*
X96047600Y-110593889D01*
X96050500Y-110551123D01*
X96050499Y-109262806D01*
X96070184Y-109195768D01*
X96086813Y-109175131D01*
X98554623Y-106707320D01*
X98615944Y-106673837D01*
X98661700Y-106672530D01*
X98748636Y-106686300D01*
X98748637Y-106686300D01*
X98935363Y-106686300D01*
X98935364Y-106686300D01*
X99119793Y-106657089D01*
X99297381Y-106599387D01*
X99463757Y-106514615D01*
X99614822Y-106404859D01*
X99746859Y-106272822D01*
X99775683Y-106233148D01*
X99831012Y-106190485D01*
X99900626Y-106184506D01*
X99962421Y-106217112D01*
X99996778Y-106277951D01*
X100000000Y-106306036D01*
X100000000Y-114000000D01*
X112876000Y-114000000D01*
X112943039Y-114019685D01*
X112988794Y-114072489D01*
X113000000Y-114124000D01*
X113000000Y-121876000D01*
X112980315Y-121943039D01*
X112927511Y-121988794D01*
X112876000Y-122000000D01*
X87124000Y-122000000D01*
X87056961Y-121980315D01*
X87011206Y-121927511D01*
X87000000Y-121876000D01*
X87000000Y-113000000D01*
X65124000Y-113000000D01*
X65056961Y-112980315D01*
X65011206Y-112927511D01*
X65000000Y-112876000D01*
X65000000Y-108766355D01*
X70472200Y-108766355D01*
X70472200Y-109250000D01*
X71303738Y-109250000D01*
X71255626Y-109333331D01*
X71226200Y-109443152D01*
X71226200Y-109556848D01*
X71255626Y-109666669D01*
X71303738Y-109750000D01*
X70472200Y-109750000D01*
X70472200Y-110233644D01*
X70478601Y-110293172D01*
X70478603Y-110293179D01*
X70528845Y-110427886D01*
X70528849Y-110427893D01*
X70615009Y-110542987D01*
X70615012Y-110542990D01*
X70730106Y-110629150D01*
X70730113Y-110629154D01*
X70864820Y-110679396D01*
X70864827Y-110679398D01*
X70924355Y-110685799D01*
X70924372Y-110685800D01*
X71408000Y-110685800D01*
X71408000Y-109854262D01*
X71491331Y-109902374D01*
X71601152Y-109931800D01*
X71714848Y-109931800D01*
X71824669Y-109902374D01*
X71908000Y-109854262D01*
X71908000Y-110685800D01*
X72391628Y-110685800D01*
X72391644Y-110685799D01*
X72451172Y-110679398D01*
X72451179Y-110679396D01*
X72585886Y-110629154D01*
X72585893Y-110629150D01*
X72700987Y-110542990D01*
X72700990Y-110542987D01*
X72787150Y-110427893D01*
X72787154Y-110427886D01*
X72837396Y-110293179D01*
X72837398Y-110293172D01*
X72843799Y-110233644D01*
X72843800Y-110233627D01*
X72843800Y-109750000D01*
X72012262Y-109750000D01*
X72060374Y-109666669D01*
X72089800Y-109556848D01*
X72089800Y-109443152D01*
X72060374Y-109333331D01*
X72012262Y-109250000D01*
X72843800Y-109250000D01*
X72843800Y-108766372D01*
X72843799Y-108766355D01*
X72837398Y-108706827D01*
X72837396Y-108706820D01*
X72787154Y-108572113D01*
X72787150Y-108572106D01*
X72700990Y-108457012D01*
X72700987Y-108457009D01*
X72585893Y-108370849D01*
X72585886Y-108370845D01*
X72451179Y-108320603D01*
X72451172Y-108320601D01*
X72391644Y-108314200D01*
X71908000Y-108314200D01*
X71908000Y-109145737D01*
X71824669Y-109097626D01*
X71714848Y-109068200D01*
X71601152Y-109068200D01*
X71491331Y-109097626D01*
X71408000Y-109145737D01*
X71408000Y-108314200D01*
X70924355Y-108314200D01*
X70864827Y-108320601D01*
X70864820Y-108320603D01*
X70730113Y-108370845D01*
X70730106Y-108370849D01*
X70615012Y-108457009D01*
X70615009Y-108457012D01*
X70528849Y-108572106D01*
X70528845Y-108572113D01*
X70478603Y-108706820D01*
X70478601Y-108706827D01*
X70472200Y-108766355D01*
X65000000Y-108766355D01*
X65000000Y-102168636D01*
X66913700Y-102168636D01*
X66913700Y-102355364D01*
X66942911Y-102539793D01*
X67000613Y-102717381D01*
X67085385Y-102883757D01*
X67195141Y-103034822D01*
X67327178Y-103166859D01*
X67478243Y-103276615D01*
X67644619Y-103361387D01*
X67822207Y-103419089D01*
X68006636Y-103448300D01*
X68006637Y-103448300D01*
X68193363Y-103448300D01*
X68193364Y-103448300D01*
X68377793Y-103419089D01*
X68555381Y-103361387D01*
X68721757Y-103276615D01*
X68872822Y-103166859D01*
X69004859Y-103034822D01*
X69114615Y-102883757D01*
X69199387Y-102717381D01*
X69257089Y-102539793D01*
X69286300Y-102355364D01*
X69286300Y-102168636D01*
X69257089Y-101984207D01*
X69199387Y-101806619D01*
X69114615Y-101640243D01*
X69004859Y-101489178D01*
X68872822Y-101357141D01*
X68721757Y-101247385D01*
X68555381Y-101162613D01*
X68377793Y-101104911D01*
X68377791Y-101104910D01*
X68377789Y-101104910D01*
X68249018Y-101084514D01*
X68193364Y-101075700D01*
X68006636Y-101075700D01*
X67963883Y-101082471D01*
X67822210Y-101104910D01*
X67644616Y-101162614D01*
X67478242Y-101247385D01*
X67327176Y-101357142D01*
X67195142Y-101489176D01*
X67085385Y-101640242D01*
X67000614Y-101806616D01*
X66942910Y-101984210D01*
X66913700Y-102168636D01*
X65000000Y-102168636D01*
X65000000Y-95473992D01*
X71754500Y-95473992D01*
X71754500Y-96126007D01*
X71793907Y-96324119D01*
X71793909Y-96324127D01*
X71871212Y-96510752D01*
X71871217Y-96510762D01*
X71983441Y-96678718D01*
X72126281Y-96821558D01*
X72294237Y-96933782D01*
X72294241Y-96933784D01*
X72294244Y-96933786D01*
X72480873Y-97011091D01*
X72638547Y-97042454D01*
X72678992Y-97050499D01*
X72678996Y-97050500D01*
X72678997Y-97050500D01*
X72881004Y-97050500D01*
X72881005Y-97050499D01*
X73079127Y-97011091D01*
X73265756Y-96933786D01*
X73265759Y-96933783D01*
X73267040Y-96933100D01*
X73267789Y-96932943D01*
X73271384Y-96931455D01*
X73271666Y-96932136D01*
X73335442Y-96918853D01*
X73400687Y-96943849D01*
X73442061Y-97000152D01*
X73449500Y-97042454D01*
X73449500Y-102757545D01*
X73429815Y-102824584D01*
X73377011Y-102870339D01*
X73307853Y-102880283D01*
X73271463Y-102868352D01*
X73271384Y-102868545D01*
X73268847Y-102867494D01*
X73267053Y-102866906D01*
X73265764Y-102866217D01*
X73079127Y-102788909D01*
X73079119Y-102788907D01*
X72881007Y-102749500D01*
X72881003Y-102749500D01*
X72678997Y-102749500D01*
X72678992Y-102749500D01*
X72480880Y-102788907D01*
X72480872Y-102788909D01*
X72294247Y-102866212D01*
X72294237Y-102866217D01*
X72126281Y-102978441D01*
X71983441Y-103121281D01*
X71871217Y-103289237D01*
X71871212Y-103289247D01*
X71793909Y-103475872D01*
X71793907Y-103475880D01*
X71754500Y-103673992D01*
X71754500Y-104326007D01*
X71793907Y-104524119D01*
X71793909Y-104524127D01*
X71871212Y-104710752D01*
X71871217Y-104710762D01*
X71983441Y-104878718D01*
X72126281Y-105021558D01*
X72294237Y-105133782D01*
X72294241Y-105133784D01*
X72294244Y-105133786D01*
X72480873Y-105211091D01*
X72646777Y-105244091D01*
X72678992Y-105250499D01*
X72678996Y-105250500D01*
X72678997Y-105250500D01*
X72881004Y-105250500D01*
X72881005Y-105250499D01*
X73079127Y-105211091D01*
X73265756Y-105133786D01*
X73278794Y-105125073D01*
X73300199Y-105118371D01*
X73319747Y-105107364D01*
X73332897Y-105108132D01*
X73345468Y-105104196D01*
X73367102Y-105110130D01*
X73389498Y-105111439D01*
X73400144Y-105119194D01*
X73412848Y-105122679D01*
X73427840Y-105139368D01*
X73445973Y-105152577D01*
X73453626Y-105168074D01*
X73459540Y-105174657D01*
X73463290Y-105183330D01*
X73465720Y-105189595D01*
X73490423Y-105281785D01*
X73519360Y-105331904D01*
X73524128Y-105340162D01*
X73569479Y-105418714D01*
X73569481Y-105418717D01*
X73688349Y-105537585D01*
X73688355Y-105537590D01*
X78015139Y-109864374D01*
X78015149Y-109864385D01*
X78019479Y-109868715D01*
X78019480Y-109868716D01*
X78131284Y-109980520D01*
X78131286Y-109980521D01*
X78131290Y-109980524D01*
X78268209Y-110059573D01*
X78268216Y-110059577D01*
X78380019Y-110089534D01*
X78420942Y-110100500D01*
X78420943Y-110100500D01*
X82248760Y-110100500D01*
X82315799Y-110120185D01*
X82349076Y-110151612D01*
X82437141Y-110272822D01*
X82569178Y-110404859D01*
X82720243Y-110514615D01*
X82886619Y-110599387D01*
X83064207Y-110657089D01*
X83248636Y-110686300D01*
X83248637Y-110686300D01*
X83435363Y-110686300D01*
X83435364Y-110686300D01*
X83619793Y-110657089D01*
X83797381Y-110599387D01*
X83892158Y-110551096D01*
X88950000Y-110551096D01*
X88952897Y-110593824D01*
X88998831Y-110778523D01*
X89083390Y-110949022D01*
X89083392Y-110949025D01*
X89202632Y-111097366D01*
X89202633Y-111097367D01*
X89350974Y-111216607D01*
X89350977Y-111216609D01*
X89521476Y-111301168D01*
X89706175Y-111347102D01*
X89748903Y-111350000D01*
X89950000Y-111350000D01*
X89950000Y-110100000D01*
X88950000Y-110100000D01*
X88950000Y-110551096D01*
X83892158Y-110551096D01*
X83963757Y-110514615D01*
X84114822Y-110404859D01*
X84246859Y-110272822D01*
X84356615Y-110121757D01*
X84441387Y-109955381D01*
X84499089Y-109777793D01*
X84528300Y-109593364D01*
X84528300Y-109406636D01*
X84499089Y-109222207D01*
X84492888Y-109203123D01*
X84487039Y-109185120D01*
X84475271Y-109148903D01*
X88950000Y-109148903D01*
X88950000Y-109600000D01*
X89950000Y-109600000D01*
X89950000Y-108350000D01*
X89748903Y-108350000D01*
X89706175Y-108352897D01*
X89521476Y-108398831D01*
X89350977Y-108483390D01*
X89350974Y-108483392D01*
X89202633Y-108602632D01*
X89202632Y-108602633D01*
X89083392Y-108750974D01*
X89083390Y-108750977D01*
X88998831Y-108921476D01*
X88952897Y-109106175D01*
X88950000Y-109148903D01*
X84475271Y-109148903D01*
X84475263Y-109148877D01*
X84441387Y-109044619D01*
X84356615Y-108878243D01*
X84246859Y-108727178D01*
X84114822Y-108595141D01*
X83963757Y-108485385D01*
X83797381Y-108400613D01*
X83619793Y-108342911D01*
X83619791Y-108342910D01*
X83619789Y-108342910D01*
X83478935Y-108320601D01*
X83435364Y-108313700D01*
X83248636Y-108313700D01*
X83205883Y-108320471D01*
X83064210Y-108342910D01*
X82886616Y-108400614D01*
X82720242Y-108485385D01*
X82569176Y-108595142D01*
X82437143Y-108727175D01*
X82437143Y-108727176D01*
X82437141Y-108727178D01*
X82408665Y-108766372D01*
X82349078Y-108848386D01*
X82293748Y-108891051D01*
X82248760Y-108899500D01*
X78800097Y-108899500D01*
X78733058Y-108879815D01*
X78712416Y-108863181D01*
X75311415Y-105462180D01*
X75277930Y-105400857D01*
X75282914Y-105331165D01*
X75324786Y-105275232D01*
X75390250Y-105250815D01*
X75399096Y-105250499D01*
X75892871Y-105250499D01*
X75892872Y-105250499D01*
X75952483Y-105244091D01*
X76087331Y-105193796D01*
X76202546Y-105107546D01*
X76288796Y-104992331D01*
X76339091Y-104857483D01*
X76345500Y-104797873D01*
X76345499Y-103202128D01*
X76339091Y-103142517D01*
X76331170Y-103121281D01*
X76288797Y-103007671D01*
X76288793Y-103007664D01*
X76202547Y-102892455D01*
X76202544Y-102892452D01*
X76087335Y-102806206D01*
X76087328Y-102806202D01*
X75952482Y-102755908D01*
X75952483Y-102755908D01*
X75892883Y-102749501D01*
X75892881Y-102749500D01*
X75892873Y-102749500D01*
X75892865Y-102749500D01*
X74774500Y-102749500D01*
X74707461Y-102729815D01*
X74661706Y-102677011D01*
X74650500Y-102625500D01*
X74650500Y-97174499D01*
X74670185Y-97107460D01*
X74722989Y-97061705D01*
X74774495Y-97050499D01*
X75892872Y-97050499D01*
X75952483Y-97044091D01*
X76087331Y-96993796D01*
X76202546Y-96907546D01*
X76288796Y-96792331D01*
X76312898Y-96727711D01*
X76330258Y-96681167D01*
X76372129Y-96625233D01*
X76437593Y-96600816D01*
X76446440Y-96600500D01*
X79580501Y-96600500D01*
X79647540Y-96620185D01*
X79693295Y-96672989D01*
X79704501Y-96724500D01*
X79704501Y-96797876D01*
X79710908Y-96857483D01*
X79761202Y-96992328D01*
X79761206Y-96992335D01*
X79847452Y-97107544D01*
X79847455Y-97107547D01*
X79962664Y-97193793D01*
X79962671Y-97193797D01*
X80097517Y-97244091D01*
X80097516Y-97244091D01*
X80104444Y-97244835D01*
X80157127Y-97250500D01*
X81302872Y-97250499D01*
X81362483Y-97244091D01*
X81362485Y-97244090D01*
X81362487Y-97244090D01*
X81370031Y-97242308D01*
X81370638Y-97244879D01*
X81427622Y-97240802D01*
X81488947Y-97274284D01*
X81492757Y-97278267D01*
X81501890Y-97288250D01*
X81519480Y-97318716D01*
X81631284Y-97430520D01*
X81631286Y-97430521D01*
X81640312Y-97439547D01*
X81963181Y-97762416D01*
X81996666Y-97823739D01*
X81999500Y-97850097D01*
X81999500Y-103617545D01*
X81979815Y-103684584D01*
X81927011Y-103730339D01*
X81857853Y-103740283D01*
X81821463Y-103728352D01*
X81821384Y-103728545D01*
X81818847Y-103727494D01*
X81817053Y-103726906D01*
X81815764Y-103726217D01*
X81629127Y-103648909D01*
X81629119Y-103648907D01*
X81431007Y-103609500D01*
X81431003Y-103609500D01*
X81228997Y-103609500D01*
X81228992Y-103609500D01*
X81030880Y-103648907D01*
X81030868Y-103648910D01*
X80950198Y-103682325D01*
X80880729Y-103689794D01*
X80835342Y-103670036D01*
X80835114Y-103670454D01*
X80830447Y-103667905D01*
X80828432Y-103667028D01*
X80827331Y-103666204D01*
X80827330Y-103666203D01*
X80827328Y-103666202D01*
X80692482Y-103615908D01*
X80692483Y-103615908D01*
X80632883Y-103609501D01*
X80632881Y-103609500D01*
X80632873Y-103609500D01*
X80632864Y-103609500D01*
X79487129Y-103609500D01*
X79487123Y-103609501D01*
X79427516Y-103615908D01*
X79292671Y-103666202D01*
X79292664Y-103666206D01*
X79177455Y-103752452D01*
X79177452Y-103752455D01*
X79091206Y-103867664D01*
X79091202Y-103867671D01*
X79040908Y-104002517D01*
X79034501Y-104062116D01*
X79034500Y-104062135D01*
X79034500Y-105657870D01*
X79034501Y-105657876D01*
X79040908Y-105717483D01*
X79091202Y-105852328D01*
X79091206Y-105852335D01*
X79177452Y-105967544D01*
X79177455Y-105967547D01*
X79292664Y-106053793D01*
X79292671Y-106053797D01*
X79427517Y-106104091D01*
X79427516Y-106104091D01*
X79434444Y-106104835D01*
X79487127Y-106110500D01*
X80632872Y-106110499D01*
X80692483Y-106104091D01*
X80827331Y-106053796D01*
X80828430Y-106052972D01*
X80829717Y-106052492D01*
X80835112Y-106049547D01*
X80835535Y-106050322D01*
X80893887Y-106028552D01*
X80950198Y-106037673D01*
X81030873Y-106071091D01*
X81196777Y-106104091D01*
X81228992Y-106110499D01*
X81228996Y-106110500D01*
X81228997Y-106110500D01*
X81431004Y-106110500D01*
X81431005Y-106110499D01*
X81629127Y-106071091D01*
X81815756Y-105993786D01*
X81896110Y-105940094D01*
X81962786Y-105919217D01*
X82030166Y-105937701D01*
X82033865Y-105940078D01*
X82114244Y-105993786D01*
X82300873Y-106071091D01*
X82466777Y-106104091D01*
X82498992Y-106110499D01*
X82498996Y-106110500D01*
X82498997Y-106110500D01*
X82701004Y-106110500D01*
X82701005Y-106110499D01*
X82899127Y-106071091D01*
X82920112Y-106062397D01*
X82989581Y-106054926D01*
X83000210Y-106058048D01*
X83000365Y-106057473D01*
X83008215Y-106059576D01*
X83008216Y-106059577D01*
X83160943Y-106100501D01*
X83160945Y-106100501D01*
X83326654Y-106100501D01*
X83326670Y-106100500D01*
X85847701Y-106100500D01*
X85914740Y-106120185D01*
X85960495Y-106172989D01*
X85971701Y-106224500D01*
X85971701Y-106233676D01*
X85978108Y-106293283D01*
X86028402Y-106428128D01*
X86028406Y-106428135D01*
X86114652Y-106543344D01*
X86114655Y-106543347D01*
X86229864Y-106629593D01*
X86229871Y-106629597D01*
X86364717Y-106679891D01*
X86364716Y-106679891D01*
X86371644Y-106680635D01*
X86424327Y-106686300D01*
X87891672Y-106686299D01*
X87951283Y-106679891D01*
X88086131Y-106629596D01*
X88201346Y-106543346D01*
X88287596Y-106428131D01*
X88337891Y-106293283D01*
X88344300Y-106233673D01*
X88344299Y-104766328D01*
X88337891Y-104706717D01*
X88296276Y-104595142D01*
X88287597Y-104571871D01*
X88287593Y-104571864D01*
X88201347Y-104456655D01*
X88201344Y-104456652D01*
X88086135Y-104370406D01*
X88086128Y-104370402D01*
X87951282Y-104320108D01*
X87951283Y-104320108D01*
X87891683Y-104313701D01*
X87891681Y-104313700D01*
X87891673Y-104313700D01*
X87891664Y-104313700D01*
X86424329Y-104313700D01*
X86424323Y-104313701D01*
X86364716Y-104320108D01*
X86229871Y-104370402D01*
X86229864Y-104370406D01*
X86114655Y-104456652D01*
X86114652Y-104456655D01*
X86028406Y-104571864D01*
X86028402Y-104571871D01*
X85978108Y-104706717D01*
X85971701Y-104766316D01*
X85971701Y-104766323D01*
X85971700Y-104766335D01*
X85971700Y-104775500D01*
X85952015Y-104842539D01*
X85899211Y-104888294D01*
X85847700Y-104899500D01*
X83749500Y-104899500D01*
X83682461Y-104879815D01*
X83636706Y-104827011D01*
X83625500Y-104775500D01*
X83625500Y-104533996D01*
X83625499Y-104533992D01*
X83623535Y-104524119D01*
X83586091Y-104335873D01*
X83508786Y-104149244D01*
X83508784Y-104149241D01*
X83508782Y-104149237D01*
X83396558Y-103981281D01*
X83253721Y-103838444D01*
X83249010Y-103834578D01*
X83250156Y-103833181D01*
X83210802Y-103786088D01*
X83200500Y-103736603D01*
X83200500Y-97769097D01*
X83220185Y-97702058D01*
X83272989Y-97656303D01*
X83342147Y-97646359D01*
X83405703Y-97675384D01*
X83412181Y-97681416D01*
X87277381Y-101546616D01*
X87310866Y-101607939D01*
X87313700Y-101634297D01*
X87313700Y-102653670D01*
X87313701Y-102653676D01*
X87320108Y-102713283D01*
X87370402Y-102848128D01*
X87370406Y-102848135D01*
X87456652Y-102963344D01*
X87456655Y-102963347D01*
X87571864Y-103049593D01*
X87571871Y-103049597D01*
X87706717Y-103099891D01*
X87706716Y-103099891D01*
X87713644Y-103100635D01*
X87766327Y-103106300D01*
X89233672Y-103106299D01*
X89293283Y-103099891D01*
X89428131Y-103049596D01*
X89543346Y-102963346D01*
X89629596Y-102848131D01*
X89679891Y-102713283D01*
X89686300Y-102653673D01*
X89686299Y-101186328D01*
X89679891Y-101126717D01*
X89629596Y-100991869D01*
X89629595Y-100991868D01*
X89629593Y-100991864D01*
X89543347Y-100876655D01*
X89543344Y-100876652D01*
X89428135Y-100790406D01*
X89428128Y-100790402D01*
X89293282Y-100740108D01*
X89293283Y-100740108D01*
X89233683Y-100733701D01*
X89233681Y-100733700D01*
X89233673Y-100733700D01*
X89233665Y-100733700D01*
X88214297Y-100733700D01*
X88147258Y-100714015D01*
X88126616Y-100697381D01*
X84226009Y-96796774D01*
X84192524Y-96735451D01*
X84197508Y-96665759D01*
X84199108Y-96661693D01*
X84256091Y-96524127D01*
X84295500Y-96326003D01*
X84295500Y-95897486D01*
X92427500Y-95897486D01*
X92427500Y-96102513D01*
X92459570Y-96304997D01*
X92522927Y-96499991D01*
X92616003Y-96682661D01*
X92648733Y-96727711D01*
X92648734Y-96727711D01*
X93218459Y-96157985D01*
X93231460Y-96206502D01*
X93301894Y-96328497D01*
X93401503Y-96428106D01*
X93523498Y-96498540D01*
X93572012Y-96511539D01*
X93002287Y-97081264D01*
X93047344Y-97113999D01*
X93230008Y-97207072D01*
X93425002Y-97270429D01*
X93627487Y-97302500D01*
X93832513Y-97302500D01*
X94034997Y-97270429D01*
X94229991Y-97207072D01*
X94412659Y-97113997D01*
X94457711Y-97081264D01*
X94457712Y-97081264D01*
X93887987Y-96511539D01*
X93936502Y-96498540D01*
X94058497Y-96428106D01*
X94158106Y-96328497D01*
X94228540Y-96206502D01*
X94241539Y-96157986D01*
X94811264Y-96727711D01*
X94833271Y-96725980D01*
X94901648Y-96740344D01*
X94951405Y-96789396D01*
X94966357Y-96847088D01*
X94966599Y-96847076D01*
X94966646Y-96847071D01*
X94966646Y-96847073D01*
X94966824Y-96847064D01*
X94966947Y-96849364D01*
X94967000Y-96849568D01*
X94967000Y-96850355D01*
X94967001Y-96850376D01*
X94973408Y-96909983D01*
X95023702Y-97044828D01*
X95023706Y-97044835D01*
X95109952Y-97160044D01*
X95109955Y-97160047D01*
X95225164Y-97246293D01*
X95225171Y-97246297D01*
X95360017Y-97296591D01*
X95360016Y-97296591D01*
X95366944Y-97297335D01*
X95419627Y-97303000D01*
X97120372Y-97302999D01*
X97179983Y-97296591D01*
X97314831Y-97246296D01*
X97430046Y-97160046D01*
X97516296Y-97044831D01*
X97566591Y-96909983D01*
X97573000Y-96850373D01*
X97572999Y-95149628D01*
X97566591Y-95090017D01*
X97535877Y-95007669D01*
X97516297Y-94955171D01*
X97516293Y-94955164D01*
X97430047Y-94839955D01*
X97430044Y-94839952D01*
X97314835Y-94753706D01*
X97314828Y-94753702D01*
X97179982Y-94703408D01*
X97179983Y-94703408D01*
X97120383Y-94697001D01*
X97120381Y-94697000D01*
X97120373Y-94697000D01*
X97120364Y-94697000D01*
X95419629Y-94697000D01*
X95419623Y-94697001D01*
X95360016Y-94703408D01*
X95225171Y-94753702D01*
X95225164Y-94753706D01*
X95109955Y-94839952D01*
X95109952Y-94839955D01*
X95023706Y-94955164D01*
X95023702Y-94955171D01*
X94973408Y-95090017D01*
X94967764Y-95142517D01*
X94967001Y-95149623D01*
X94967000Y-95149635D01*
X94967000Y-95150401D01*
X94966949Y-95150572D01*
X94966822Y-95152952D01*
X94966259Y-95152921D01*
X94947315Y-95217440D01*
X94894511Y-95263195D01*
X94833271Y-95274019D01*
X94811264Y-95272287D01*
X94241539Y-95842012D01*
X94228540Y-95793498D01*
X94158106Y-95671503D01*
X94058497Y-95571894D01*
X93936502Y-95501460D01*
X93887985Y-95488459D01*
X94457711Y-94918734D01*
X94457711Y-94918733D01*
X94412661Y-94886003D01*
X94229991Y-94792927D01*
X94034997Y-94729570D01*
X93832513Y-94697500D01*
X93627487Y-94697500D01*
X93425002Y-94729570D01*
X93230008Y-94792927D01*
X93047338Y-94886003D01*
X93002287Y-94918733D01*
X93002287Y-94918734D01*
X93572013Y-95488460D01*
X93523498Y-95501460D01*
X93401503Y-95571894D01*
X93301894Y-95671503D01*
X93231460Y-95793498D01*
X93218460Y-95842013D01*
X92648734Y-95272287D01*
X92648733Y-95272287D01*
X92616003Y-95317338D01*
X92522927Y-95500008D01*
X92459570Y-95695002D01*
X92427500Y-95897486D01*
X84295500Y-95897486D01*
X84295500Y-95673997D01*
X84256091Y-95475873D01*
X84178786Y-95289244D01*
X84178784Y-95289241D01*
X84178782Y-95289237D01*
X84066558Y-95121281D01*
X83923718Y-94978441D01*
X83755762Y-94866217D01*
X83755752Y-94866212D01*
X83569127Y-94788909D01*
X83569119Y-94788907D01*
X83371007Y-94749500D01*
X83371003Y-94749500D01*
X83168997Y-94749500D01*
X83118685Y-94759507D01*
X83086265Y-94765956D01*
X83016674Y-94759727D01*
X82974394Y-94732019D01*
X81966819Y-93724444D01*
X81933334Y-93663121D01*
X81930500Y-93636763D01*
X81930500Y-90674499D01*
X81950185Y-90607460D01*
X82002989Y-90561705D01*
X82054495Y-90550499D01*
X83172872Y-90550499D01*
X83232483Y-90544091D01*
X83367331Y-90493796D01*
X83482546Y-90407546D01*
X83568796Y-90292331D01*
X83619091Y-90157483D01*
X83620687Y-90142636D01*
X87313700Y-90142636D01*
X87313700Y-90329364D01*
X87315297Y-90339444D01*
X87339743Y-90493796D01*
X87342911Y-90513793D01*
X87400613Y-90691381D01*
X87485385Y-90857757D01*
X87595141Y-91008822D01*
X87727178Y-91140859D01*
X87878243Y-91250615D01*
X88044619Y-91335387D01*
X88222207Y-91393089D01*
X88406636Y-91422300D01*
X88406637Y-91422300D01*
X88593363Y-91422300D01*
X88593364Y-91422300D01*
X88777793Y-91393089D01*
X88955381Y-91335387D01*
X89121757Y-91250615D01*
X89272822Y-91140859D01*
X89404859Y-91008822D01*
X89514615Y-90857757D01*
X89599387Y-90691381D01*
X89657089Y-90513793D01*
X89686300Y-90329364D01*
X89686300Y-90142636D01*
X89657089Y-89958207D01*
X89599387Y-89780619D01*
X89514615Y-89614243D01*
X89514614Y-89614242D01*
X89484036Y-89572155D01*
X92800000Y-89572155D01*
X92800000Y-89920000D01*
X93569670Y-89920000D01*
X93549925Y-89939745D01*
X93500556Y-90025255D01*
X93475000Y-90120630D01*
X93475000Y-90219370D01*
X93500556Y-90314745D01*
X93549925Y-90400255D01*
X93569670Y-90420000D01*
X92800000Y-90420000D01*
X92800000Y-90767844D01*
X92806401Y-90827372D01*
X92806403Y-90827379D01*
X92856645Y-90962086D01*
X92856649Y-90962093D01*
X92942809Y-91077187D01*
X92942812Y-91077190D01*
X93057906Y-91163350D01*
X93057913Y-91163354D01*
X93192620Y-91213596D01*
X93192627Y-91213598D01*
X93252155Y-91219999D01*
X93252172Y-91220000D01*
X93600000Y-91220000D01*
X93600000Y-90450330D01*
X93619745Y-90470075D01*
X93705255Y-90519444D01*
X93800630Y-90545000D01*
X93899370Y-90545000D01*
X93994745Y-90519444D01*
X94080255Y-90470075D01*
X94100000Y-90450330D01*
X94100000Y-91220000D01*
X94447828Y-91220000D01*
X94447844Y-91219999D01*
X94507372Y-91213598D01*
X94507379Y-91213596D01*
X94642086Y-91163354D01*
X94642093Y-91163350D01*
X94757187Y-91077190D01*
X94757190Y-91077187D01*
X94843350Y-90962093D01*
X94843355Y-90962084D01*
X94860981Y-90914826D01*
X94902851Y-90858892D01*
X94968315Y-90834474D01*
X95036588Y-90849325D01*
X95064844Y-90870477D01*
X95180342Y-90985975D01*
X95180345Y-90985977D01*
X95352402Y-91100941D01*
X95543580Y-91180130D01*
X95711826Y-91213596D01*
X95746530Y-91220499D01*
X95746534Y-91220500D01*
X95746535Y-91220500D01*
X95953466Y-91220500D01*
X95953467Y-91220499D01*
X96156420Y-91180130D01*
X96347598Y-91100941D01*
X96519655Y-90985977D01*
X96665977Y-90839655D01*
X96780941Y-90667598D01*
X96860130Y-90476420D01*
X96900500Y-90273465D01*
X96900500Y-90066535D01*
X96860130Y-89863580D01*
X96780941Y-89672402D01*
X96665977Y-89500345D01*
X96665975Y-89500342D01*
X96519657Y-89354024D01*
X96407744Y-89279247D01*
X96347598Y-89239059D01*
X96346347Y-89238541D01*
X96156420Y-89159870D01*
X96156412Y-89159868D01*
X95953469Y-89119500D01*
X95953465Y-89119500D01*
X95746535Y-89119500D01*
X95746530Y-89119500D01*
X95543587Y-89159868D01*
X95543579Y-89159870D01*
X95352403Y-89239058D01*
X95180344Y-89354023D01*
X95064844Y-89469523D01*
X95003521Y-89503007D01*
X94933829Y-89498023D01*
X94877896Y-89456151D01*
X94860981Y-89425173D01*
X94843355Y-89377915D01*
X94843350Y-89377906D01*
X94757190Y-89262812D01*
X94757187Y-89262809D01*
X94642093Y-89176649D01*
X94642086Y-89176645D01*
X94507379Y-89126403D01*
X94507372Y-89126401D01*
X94447844Y-89120000D01*
X94100000Y-89120000D01*
X94100000Y-89889670D01*
X94080255Y-89869925D01*
X93994745Y-89820556D01*
X93899370Y-89795000D01*
X93800630Y-89795000D01*
X93705255Y-89820556D01*
X93619745Y-89869925D01*
X93600000Y-89889670D01*
X93600000Y-89120000D01*
X93252155Y-89120000D01*
X93192627Y-89126401D01*
X93192620Y-89126403D01*
X93057913Y-89176645D01*
X93057906Y-89176649D01*
X92942812Y-89262809D01*
X92942809Y-89262812D01*
X92856649Y-89377906D01*
X92856645Y-89377913D01*
X92806403Y-89512620D01*
X92806401Y-89512627D01*
X92800000Y-89572155D01*
X89484036Y-89572155D01*
X89440781Y-89512620D01*
X89404859Y-89463178D01*
X89272822Y-89331141D01*
X89121757Y-89221385D01*
X88955381Y-89136613D01*
X88777793Y-89078911D01*
X88777791Y-89078910D01*
X88777789Y-89078910D01*
X88649018Y-89058514D01*
X88593364Y-89049700D01*
X88406636Y-89049700D01*
X88363883Y-89056471D01*
X88222210Y-89078910D01*
X88044616Y-89136614D01*
X87878242Y-89221385D01*
X87727176Y-89331142D01*
X87595142Y-89463176D01*
X87485385Y-89614242D01*
X87400614Y-89780616D01*
X87342910Y-89958210D01*
X87325753Y-90066535D01*
X87313700Y-90142636D01*
X83620687Y-90142636D01*
X83625500Y-90097873D01*
X83625499Y-88502128D01*
X83619091Y-88442517D01*
X83618696Y-88441459D01*
X83568797Y-88307671D01*
X83568793Y-88307664D01*
X83482547Y-88192455D01*
X83482544Y-88192452D01*
X83367335Y-88106206D01*
X83367328Y-88106202D01*
X83232482Y-88055908D01*
X83232483Y-88055908D01*
X83172883Y-88049501D01*
X83172881Y-88049500D01*
X83172873Y-88049500D01*
X83172864Y-88049500D01*
X82027129Y-88049500D01*
X82027123Y-88049501D01*
X81967516Y-88055908D01*
X81832672Y-88106202D01*
X81832665Y-88106206D01*
X81831556Y-88107037D01*
X81830258Y-88107520D01*
X81824887Y-88110454D01*
X81824465Y-88109681D01*
X81766090Y-88131449D01*
X81709800Y-88122325D01*
X81629127Y-88088909D01*
X81629119Y-88088907D01*
X81431007Y-88049500D01*
X81431003Y-88049500D01*
X81228997Y-88049500D01*
X81228992Y-88049500D01*
X81030880Y-88088907D01*
X81030872Y-88088909D01*
X80844244Y-88166213D01*
X80763891Y-88219904D01*
X80697213Y-88240782D01*
X80629833Y-88222297D01*
X80626109Y-88219904D01*
X80545755Y-88166213D01*
X80359127Y-88088909D01*
X80359119Y-88088907D01*
X80161007Y-88049500D01*
X80161003Y-88049500D01*
X79958997Y-88049500D01*
X79958992Y-88049500D01*
X79760880Y-88088907D01*
X79760872Y-88088909D01*
X79574247Y-88166212D01*
X79574237Y-88166217D01*
X79406281Y-88278441D01*
X79263441Y-88421281D01*
X79151217Y-88589237D01*
X79151212Y-88589247D01*
X79073909Y-88775872D01*
X79073907Y-88775880D01*
X79034500Y-88973992D01*
X79034500Y-89265500D01*
X79014815Y-89332539D01*
X78962011Y-89378294D01*
X78910500Y-89389500D01*
X76357310Y-89389500D01*
X76290271Y-89369815D01*
X76244516Y-89317011D01*
X76242749Y-89312953D01*
X76228787Y-89279247D01*
X76228786Y-89279244D01*
X76228784Y-89279241D01*
X76228782Y-89279237D01*
X76116558Y-89111281D01*
X75973718Y-88968441D01*
X75805762Y-88856217D01*
X75805752Y-88856212D01*
X75619127Y-88778909D01*
X75619119Y-88778907D01*
X75421007Y-88739500D01*
X75421003Y-88739500D01*
X75218997Y-88739500D01*
X75218992Y-88739500D01*
X75020880Y-88778907D01*
X75020872Y-88778909D01*
X74834244Y-88856213D01*
X74753891Y-88909904D01*
X74687213Y-88930782D01*
X74619833Y-88912297D01*
X74616109Y-88909904D01*
X74535755Y-88856213D01*
X74349127Y-88778909D01*
X74349119Y-88778907D01*
X74151007Y-88739500D01*
X74151003Y-88739500D01*
X73948997Y-88739500D01*
X73948992Y-88739500D01*
X73750880Y-88778907D01*
X73750868Y-88778910D01*
X73669661Y-88812547D01*
X73600191Y-88820016D01*
X73555140Y-88800405D01*
X73554872Y-88800897D01*
X73549374Y-88797894D01*
X73547895Y-88797251D01*
X73547086Y-88796645D01*
X73412379Y-88746403D01*
X73412372Y-88746401D01*
X73352844Y-88740000D01*
X73030000Y-88740000D01*
X73030000Y-89624134D01*
X73027617Y-89648326D01*
X73024500Y-89663997D01*
X73024500Y-89704170D01*
X73010255Y-89689925D01*
X72924745Y-89640556D01*
X72829370Y-89615000D01*
X72730630Y-89615000D01*
X72635255Y-89640556D01*
X72549745Y-89689925D01*
X72530000Y-89709670D01*
X72530000Y-88740000D01*
X72207155Y-88740000D01*
X72147627Y-88746401D01*
X72147620Y-88746403D01*
X72012913Y-88796645D01*
X72012906Y-88796649D01*
X71897812Y-88882809D01*
X71897809Y-88882812D01*
X71811649Y-88997906D01*
X71811645Y-88997913D01*
X71761403Y-89132620D01*
X71761401Y-89132627D01*
X71755000Y-89192155D01*
X71755000Y-89740000D01*
X72499670Y-89740000D01*
X72479925Y-89759745D01*
X72430556Y-89845255D01*
X72405000Y-89940630D01*
X72405000Y-90039370D01*
X72430556Y-90134745D01*
X72479925Y-90220255D01*
X72499670Y-90240000D01*
X71755000Y-90240000D01*
X71755000Y-90787844D01*
X71761401Y-90847372D01*
X71761403Y-90847379D01*
X71811645Y-90982086D01*
X71811649Y-90982093D01*
X71897809Y-91097187D01*
X71897812Y-91097190D01*
X72012906Y-91183350D01*
X72012913Y-91183354D01*
X72147620Y-91233596D01*
X72147627Y-91233598D01*
X72207155Y-91239999D01*
X72207172Y-91240000D01*
X72530000Y-91240000D01*
X72530000Y-90270330D01*
X72549745Y-90290075D01*
X72635255Y-90339444D01*
X72730630Y-90365000D01*
X72829370Y-90365000D01*
X72924745Y-90339444D01*
X73010255Y-90290075D01*
X73024500Y-90275830D01*
X73024500Y-90316003D01*
X73027157Y-90329363D01*
X73027617Y-90331671D01*
X73030000Y-90355865D01*
X73030000Y-91240000D01*
X73325500Y-91240000D01*
X73392539Y-91259685D01*
X73438294Y-91312489D01*
X73449500Y-91364000D01*
X73449500Y-94106762D01*
X73429815Y-94173801D01*
X73413181Y-94194443D01*
X73075604Y-94532019D01*
X73014281Y-94565504D01*
X72963732Y-94565955D01*
X72881007Y-94549500D01*
X72881003Y-94549500D01*
X72678997Y-94549500D01*
X72678992Y-94549500D01*
X72480880Y-94588907D01*
X72480872Y-94588909D01*
X72294247Y-94666212D01*
X72294237Y-94666217D01*
X72126281Y-94778441D01*
X71983441Y-94921281D01*
X71871217Y-95089237D01*
X71871212Y-95089247D01*
X71793909Y-95275872D01*
X71793907Y-95275880D01*
X71754500Y-95473992D01*
X65000000Y-95473992D01*
X65000000Y-89844355D01*
X66914200Y-89844355D01*
X66914200Y-90328000D01*
X67745738Y-90328000D01*
X67697626Y-90411331D01*
X67668200Y-90521152D01*
X67668200Y-90634848D01*
X67697626Y-90744669D01*
X67745738Y-90828000D01*
X66914200Y-90828000D01*
X66914200Y-91311644D01*
X66920601Y-91371172D01*
X66920603Y-91371179D01*
X66970845Y-91505886D01*
X66970849Y-91505893D01*
X67057009Y-91620987D01*
X67057012Y-91620990D01*
X67172106Y-91707150D01*
X67172113Y-91707154D01*
X67306820Y-91757396D01*
X67306827Y-91757398D01*
X67366355Y-91763799D01*
X67366372Y-91763800D01*
X67850000Y-91763800D01*
X67850000Y-90932262D01*
X67933331Y-90980374D01*
X68043152Y-91009800D01*
X68156848Y-91009800D01*
X68266669Y-90980374D01*
X68350000Y-90932262D01*
X68350000Y-91763800D01*
X68833628Y-91763800D01*
X68833644Y-91763799D01*
X68893172Y-91757398D01*
X68893179Y-91757396D01*
X69027886Y-91707154D01*
X69027893Y-91707150D01*
X69142987Y-91620990D01*
X69142990Y-91620987D01*
X69229150Y-91505893D01*
X69229154Y-91505886D01*
X69279396Y-91371179D01*
X69279398Y-91371172D01*
X69285799Y-91311644D01*
X69285800Y-91311627D01*
X69285800Y-90828000D01*
X68454262Y-90828000D01*
X68502374Y-90744669D01*
X68531800Y-90634848D01*
X68531800Y-90521152D01*
X68502374Y-90411331D01*
X68454262Y-90328000D01*
X69285800Y-90328000D01*
X69285800Y-89844372D01*
X69285799Y-89844355D01*
X69279398Y-89784827D01*
X69279396Y-89784820D01*
X69229154Y-89650113D01*
X69229150Y-89650106D01*
X69142990Y-89535012D01*
X69142987Y-89535009D01*
X69027893Y-89448849D01*
X69027886Y-89448845D01*
X68893179Y-89398603D01*
X68893172Y-89398601D01*
X68833644Y-89392200D01*
X68350000Y-89392200D01*
X68350000Y-90223737D01*
X68266669Y-90175626D01*
X68156848Y-90146200D01*
X68043152Y-90146200D01*
X67933331Y-90175626D01*
X67850000Y-90223737D01*
X67850000Y-89392200D01*
X67366355Y-89392200D01*
X67306827Y-89398601D01*
X67306820Y-89398603D01*
X67172113Y-89448845D01*
X67172106Y-89448849D01*
X67057012Y-89535009D01*
X67057009Y-89535012D01*
X66970849Y-89650106D01*
X66970845Y-89650113D01*
X66920603Y-89784820D01*
X66920601Y-89784827D01*
X66914200Y-89844355D01*
X65000000Y-89844355D01*
X65000000Y-76044636D01*
X66913700Y-76044636D01*
X66913700Y-76231363D01*
X66937212Y-76379815D01*
X66942911Y-76415793D01*
X67000613Y-76593381D01*
X67085385Y-76759757D01*
X67195141Y-76910822D01*
X67327178Y-77042859D01*
X67478243Y-77152615D01*
X67644619Y-77237387D01*
X67822207Y-77295089D01*
X68006636Y-77324300D01*
X68006637Y-77324300D01*
X68193363Y-77324300D01*
X68193364Y-77324300D01*
X68377793Y-77295089D01*
X68555381Y-77237387D01*
X68721757Y-77152615D01*
X68872822Y-77042859D01*
X69004859Y-76910822D01*
X69114615Y-76759757D01*
X69199387Y-76593381D01*
X69257089Y-76415793D01*
X69286300Y-76231364D01*
X69286300Y-76044636D01*
X69257089Y-75860207D01*
X69199387Y-75682619D01*
X69114615Y-75516243D01*
X69004859Y-75365178D01*
X68872822Y-75233141D01*
X68721757Y-75123385D01*
X68555381Y-75038613D01*
X68377793Y-74980911D01*
X68377791Y-74980910D01*
X68377789Y-74980910D01*
X68249018Y-74960514D01*
X68193364Y-74951700D01*
X68006636Y-74951700D01*
X67963883Y-74958471D01*
X67822210Y-74980910D01*
X67644616Y-75038614D01*
X67478242Y-75123385D01*
X67327176Y-75233142D01*
X67195142Y-75365176D01*
X67085385Y-75516242D01*
X67000614Y-75682616D01*
X66942910Y-75860210D01*
X66913700Y-76044636D01*
X65000000Y-76044636D01*
X65000000Y-72228636D01*
X66913700Y-72228636D01*
X66913700Y-72415363D01*
X66942870Y-72599538D01*
X66942911Y-72599793D01*
X67000613Y-72777381D01*
X67085385Y-72943757D01*
X67195141Y-73094822D01*
X67327178Y-73226859D01*
X67478243Y-73336615D01*
X67644619Y-73421387D01*
X67822207Y-73479089D01*
X68006636Y-73508300D01*
X68006637Y-73508300D01*
X68193363Y-73508300D01*
X68193364Y-73508300D01*
X68377793Y-73479089D01*
X68555381Y-73421387D01*
X68721757Y-73336615D01*
X68872822Y-73226859D01*
X69004859Y-73094822D01*
X69114615Y-72943757D01*
X69199387Y-72777381D01*
X69257089Y-72599793D01*
X69286300Y-72415364D01*
X69286300Y-72228636D01*
X69257089Y-72044207D01*
X69199387Y-71866619D01*
X69114615Y-71700243D01*
X69004859Y-71549178D01*
X68872822Y-71417141D01*
X68721757Y-71307385D01*
X68555381Y-71222613D01*
X68377793Y-71164911D01*
X68377791Y-71164910D01*
X68377789Y-71164910D01*
X68249018Y-71144514D01*
X68193364Y-71135700D01*
X68006636Y-71135700D01*
X67963883Y-71142471D01*
X67822210Y-71164910D01*
X67644616Y-71222614D01*
X67478242Y-71307385D01*
X67327176Y-71417142D01*
X67195142Y-71549176D01*
X67085385Y-71700242D01*
X67000614Y-71866616D01*
X66942910Y-72044210D01*
X66913700Y-72228636D01*
X65000000Y-72228636D01*
X65000000Y-59904335D01*
X66913700Y-59904335D01*
X66913700Y-61371670D01*
X66913701Y-61371676D01*
X66920108Y-61431283D01*
X66970402Y-61566128D01*
X66970406Y-61566135D01*
X67056652Y-61681344D01*
X67056655Y-61681347D01*
X67171864Y-61767593D01*
X67171871Y-61767597D01*
X67306717Y-61817891D01*
X67306716Y-61817891D01*
X67313644Y-61818635D01*
X67366327Y-61824300D01*
X68833672Y-61824299D01*
X68893283Y-61817891D01*
X69028131Y-61767596D01*
X69143346Y-61681346D01*
X69229596Y-61566131D01*
X69279891Y-61431283D01*
X69286300Y-61371673D01*
X69286300Y-61362500D01*
X69288850Y-61353814D01*
X69287562Y-61344853D01*
X69298540Y-61320812D01*
X69305985Y-61295461D01*
X69312825Y-61289533D01*
X69316587Y-61281297D01*
X69338821Y-61267007D01*
X69358789Y-61249706D01*
X69369303Y-61247418D01*
X69375365Y-61243523D01*
X69410300Y-61238500D01*
X69627903Y-61238500D01*
X69694942Y-61258185D01*
X69715584Y-61274819D01*
X71718181Y-63277416D01*
X71751666Y-63338739D01*
X71754500Y-63365097D01*
X71754500Y-63816007D01*
X71793907Y-64014119D01*
X71793909Y-64014127D01*
X71871212Y-64200752D01*
X71871217Y-64200762D01*
X71983441Y-64368718D01*
X72126281Y-64511558D01*
X72294237Y-64623782D01*
X72294241Y-64623784D01*
X72294244Y-64623786D01*
X72480873Y-64701091D01*
X72627562Y-64730269D01*
X72678992Y-64740499D01*
X72678996Y-64740500D01*
X72678997Y-64740500D01*
X72881003Y-64740500D01*
X72963733Y-64724043D01*
X73033321Y-64730269D01*
X73075604Y-64757979D01*
X73413181Y-65095556D01*
X73446666Y-65156879D01*
X73449500Y-65183237D01*
X73449500Y-71247545D01*
X73429815Y-71314584D01*
X73377011Y-71360339D01*
X73307853Y-71370283D01*
X73271463Y-71358352D01*
X73271384Y-71358545D01*
X73268847Y-71357494D01*
X73267053Y-71356906D01*
X73265764Y-71356217D01*
X73079127Y-71278909D01*
X73079119Y-71278907D01*
X72881007Y-71239500D01*
X72881003Y-71239500D01*
X72678997Y-71239500D01*
X72678992Y-71239500D01*
X72480880Y-71278907D01*
X72480872Y-71278909D01*
X72294247Y-71356212D01*
X72294237Y-71356217D01*
X72126281Y-71468441D01*
X71983441Y-71611281D01*
X71871217Y-71779237D01*
X71871212Y-71779247D01*
X71793909Y-71965872D01*
X71793907Y-71965880D01*
X71754500Y-72163992D01*
X71754500Y-72816007D01*
X71793907Y-73014119D01*
X71793909Y-73014127D01*
X71871212Y-73200752D01*
X71871217Y-73200762D01*
X71983441Y-73368718D01*
X72126281Y-73511558D01*
X72294237Y-73623782D01*
X72294241Y-73623784D01*
X72294244Y-73623786D01*
X72480873Y-73701091D01*
X72611567Y-73727087D01*
X72644936Y-73733725D01*
X72706847Y-73766109D01*
X72708426Y-73767661D01*
X73413181Y-74472416D01*
X73446666Y-74533739D01*
X73449500Y-74560097D01*
X73449500Y-79835500D01*
X73429815Y-79902539D01*
X73377011Y-79948294D01*
X73325500Y-79959500D01*
X72207129Y-79959500D01*
X72207123Y-79959501D01*
X72147516Y-79965908D01*
X72012671Y-80016202D01*
X72012664Y-80016206D01*
X71897455Y-80102452D01*
X71897452Y-80102455D01*
X71811206Y-80217664D01*
X71811202Y-80217671D01*
X71760908Y-80352517D01*
X71754501Y-80412116D01*
X71754500Y-80412135D01*
X71754500Y-82007870D01*
X71754501Y-82007876D01*
X71760908Y-82067483D01*
X71811202Y-82202328D01*
X71811206Y-82202335D01*
X71897452Y-82317544D01*
X71897455Y-82317547D01*
X72012664Y-82403793D01*
X72012671Y-82403797D01*
X72057109Y-82420371D01*
X72147517Y-82454091D01*
X72207127Y-82460500D01*
X72312902Y-82460499D01*
X72379940Y-82480183D01*
X72425695Y-82532987D01*
X72435639Y-82602145D01*
X72406615Y-82665701D01*
X72400582Y-82672180D01*
X68473382Y-86599381D01*
X68412059Y-86632866D01*
X68385701Y-86635700D01*
X67366329Y-86635700D01*
X67366323Y-86635701D01*
X67306716Y-86642108D01*
X67171871Y-86692402D01*
X67171864Y-86692406D01*
X67056655Y-86778652D01*
X67056652Y-86778655D01*
X66970406Y-86893864D01*
X66970402Y-86893871D01*
X66920108Y-87028717D01*
X66913701Y-87088316D01*
X66913700Y-87088335D01*
X66913700Y-88555670D01*
X66913701Y-88555676D01*
X66920108Y-88615283D01*
X66970402Y-88750128D01*
X66970406Y-88750135D01*
X67056652Y-88865344D01*
X67056655Y-88865347D01*
X67171864Y-88951593D01*
X67171871Y-88951597D01*
X67306717Y-89001891D01*
X67306716Y-89001891D01*
X67313644Y-89002635D01*
X67366327Y-89008300D01*
X68833672Y-89008299D01*
X68893283Y-89001891D01*
X69028131Y-88951596D01*
X69143346Y-88865346D01*
X69229596Y-88750131D01*
X69279891Y-88615283D01*
X69286300Y-88555673D01*
X69286299Y-87536295D01*
X69305983Y-87469257D01*
X69322613Y-87448620D01*
X70206597Y-86564636D01*
X87313700Y-86564636D01*
X87313700Y-86751364D01*
X87342911Y-86935793D01*
X87400613Y-87113381D01*
X87485385Y-87279757D01*
X87595141Y-87430822D01*
X87727178Y-87562859D01*
X87878243Y-87672615D01*
X88044619Y-87757387D01*
X88222207Y-87815089D01*
X88406636Y-87844300D01*
X88406637Y-87844300D01*
X88593363Y-87844300D01*
X88593364Y-87844300D01*
X88777793Y-87815089D01*
X88955381Y-87757387D01*
X89121757Y-87672615D01*
X89272822Y-87562859D01*
X89404859Y-87430822D01*
X89514615Y-87279757D01*
X89599387Y-87113381D01*
X89657089Y-86935793D01*
X89686300Y-86751364D01*
X89686300Y-86564636D01*
X89657089Y-86380207D01*
X89599387Y-86202619D01*
X89514615Y-86036243D01*
X89404859Y-85885178D01*
X89272822Y-85753141D01*
X89121757Y-85643385D01*
X88955381Y-85558613D01*
X88777793Y-85500911D01*
X88777791Y-85500910D01*
X88777789Y-85500910D01*
X88649018Y-85480514D01*
X88593364Y-85471700D01*
X88406636Y-85471700D01*
X88363883Y-85478471D01*
X88222210Y-85500910D01*
X88044616Y-85558614D01*
X87878242Y-85643385D01*
X87727176Y-85753142D01*
X87595142Y-85885176D01*
X87485385Y-86036242D01*
X87400614Y-86202616D01*
X87342910Y-86380210D01*
X87335017Y-86430046D01*
X87313700Y-86564636D01*
X70206597Y-86564636D01*
X74333425Y-82437809D01*
X74373649Y-82410932D01*
X74535756Y-82343786D01*
X74535761Y-82343782D01*
X74535764Y-82343781D01*
X74616108Y-82290096D01*
X74682785Y-82269217D01*
X74750166Y-82287701D01*
X74753865Y-82290078D01*
X74834244Y-82343786D01*
X75020873Y-82421091D01*
X75186777Y-82454091D01*
X75218992Y-82460499D01*
X75218996Y-82460500D01*
X75218997Y-82460500D01*
X75421004Y-82460500D01*
X75421005Y-82460499D01*
X75619127Y-82421091D01*
X75805756Y-82343786D01*
X75973718Y-82231558D01*
X76116558Y-82088718D01*
X76149381Y-82039594D01*
X76228782Y-81920762D01*
X76228782Y-81920761D01*
X76228786Y-81920756D01*
X76306091Y-81734127D01*
X76345500Y-81536003D01*
X76345500Y-80883997D01*
X76306091Y-80685873D01*
X76258988Y-80572157D01*
X76256172Y-80565358D01*
X76239037Y-80523992D01*
X79034500Y-80523992D01*
X79034500Y-81176007D01*
X79073907Y-81374119D01*
X79073909Y-81374127D01*
X79151212Y-81560752D01*
X79151217Y-81560762D01*
X79263441Y-81728718D01*
X79406281Y-81871558D01*
X79574237Y-81983782D01*
X79574241Y-81983784D01*
X79574244Y-81983786D01*
X79760873Y-82061091D01*
X79924288Y-82093596D01*
X79958992Y-82100499D01*
X79958996Y-82100500D01*
X79958997Y-82100500D01*
X80161004Y-82100500D01*
X80161005Y-82100499D01*
X80359127Y-82061091D01*
X80545756Y-81983786D01*
X80626110Y-81930094D01*
X80692786Y-81909217D01*
X80760166Y-81927701D01*
X80763865Y-81930078D01*
X80844244Y-81983786D01*
X81030873Y-82061091D01*
X81194288Y-82093596D01*
X81228992Y-82100499D01*
X81228996Y-82100500D01*
X81228997Y-82100500D01*
X81431004Y-82100500D01*
X81431005Y-82100499D01*
X81629127Y-82061091D01*
X81710338Y-82027451D01*
X81779804Y-82019983D01*
X81824859Y-82039594D01*
X81825128Y-82039103D01*
X81830613Y-82042098D01*
X81832099Y-82042745D01*
X81832911Y-82043353D01*
X81832913Y-82043354D01*
X81967620Y-82093596D01*
X81967627Y-82093598D01*
X82027155Y-82099999D01*
X82027172Y-82100000D01*
X82350000Y-82100000D01*
X82350000Y-81215865D01*
X82350067Y-81211789D01*
X82350400Y-81201638D01*
X82355500Y-81176003D01*
X82355500Y-81135830D01*
X82369745Y-81150075D01*
X82455255Y-81199444D01*
X82550630Y-81225000D01*
X82649370Y-81225000D01*
X82744745Y-81199444D01*
X82830255Y-81150075D01*
X82850000Y-81130330D01*
X82850000Y-82100000D01*
X83172828Y-82100000D01*
X83172844Y-82099999D01*
X83232372Y-82093598D01*
X83232379Y-82093596D01*
X83367086Y-82043354D01*
X83367093Y-82043350D01*
X83482187Y-81957190D01*
X83482190Y-81957187D01*
X83568350Y-81842093D01*
X83568354Y-81842086D01*
X83618596Y-81707379D01*
X83618598Y-81707372D01*
X83624999Y-81647844D01*
X83625000Y-81647827D01*
X83625000Y-81100000D01*
X82880330Y-81100000D01*
X82900075Y-81080255D01*
X82949444Y-80994745D01*
X82975000Y-80899370D01*
X82975000Y-80800630D01*
X82949444Y-80705255D01*
X82900075Y-80619745D01*
X82880330Y-80600000D01*
X83625000Y-80600000D01*
X83625000Y-80052172D01*
X83624999Y-80052155D01*
X83618598Y-79992627D01*
X83618596Y-79992620D01*
X83568354Y-79857913D01*
X83568350Y-79857906D01*
X83482190Y-79742812D01*
X83482187Y-79742809D01*
X83367093Y-79656649D01*
X83367086Y-79656645D01*
X83232379Y-79606403D01*
X83232372Y-79606401D01*
X83172844Y-79600000D01*
X82850000Y-79600000D01*
X82850000Y-80569670D01*
X82830255Y-80549925D01*
X82744745Y-80500556D01*
X82649370Y-80475000D01*
X82550630Y-80475000D01*
X82455255Y-80500556D01*
X82369745Y-80549925D01*
X82355500Y-80564170D01*
X82355500Y-80523997D01*
X82352383Y-80508326D01*
X82350000Y-80484134D01*
X82350000Y-79600000D01*
X82027155Y-79600000D01*
X81967627Y-79606401D01*
X81967620Y-79606403D01*
X81832913Y-79656645D01*
X81832911Y-79656646D01*
X81832092Y-79657260D01*
X81831134Y-79657616D01*
X81825132Y-79660895D01*
X81824660Y-79660031D01*
X81766625Y-79681671D01*
X81710338Y-79672547D01*
X81629131Y-79638910D01*
X81629119Y-79638907D01*
X81431007Y-79599500D01*
X81431003Y-79599500D01*
X81228997Y-79599500D01*
X81228992Y-79599500D01*
X81030880Y-79638907D01*
X81030872Y-79638909D01*
X80844244Y-79716213D01*
X80763891Y-79769904D01*
X80697213Y-79790782D01*
X80629833Y-79772297D01*
X80626109Y-79769904D01*
X80603875Y-79755048D01*
X80585563Y-79742812D01*
X80545755Y-79716213D01*
X80359127Y-79638909D01*
X80359119Y-79638907D01*
X80161007Y-79599500D01*
X80161003Y-79599500D01*
X79958997Y-79599500D01*
X79958992Y-79599500D01*
X79760880Y-79638907D01*
X79760872Y-79638909D01*
X79574247Y-79716212D01*
X79574237Y-79716217D01*
X79406281Y-79828441D01*
X79263441Y-79971281D01*
X79151217Y-80139237D01*
X79151212Y-80139247D01*
X79073909Y-80325872D01*
X79073907Y-80325880D01*
X79034500Y-80523992D01*
X76239037Y-80523992D01*
X76228787Y-80499247D01*
X76228786Y-80499244D01*
X76228784Y-80499241D01*
X76228782Y-80499237D01*
X76116558Y-80331281D01*
X75973718Y-80188441D01*
X75805762Y-80076217D01*
X75805752Y-80076212D01*
X75619127Y-79998909D01*
X75619119Y-79998907D01*
X75421007Y-79959500D01*
X75421003Y-79959500D01*
X75218997Y-79959500D01*
X75218992Y-79959500D01*
X75020880Y-79998907D01*
X75020872Y-79998909D01*
X74834235Y-80076217D01*
X74832947Y-80076906D01*
X74832194Y-80077062D01*
X74828616Y-80078545D01*
X74828334Y-80077866D01*
X74764544Y-80091145D01*
X74699301Y-80066141D01*
X74657934Y-80009834D01*
X74650500Y-79967545D01*
X74650500Y-76649635D01*
X93427000Y-76649635D01*
X93427000Y-78350370D01*
X93427001Y-78350376D01*
X93433408Y-78409983D01*
X93483702Y-78544828D01*
X93483706Y-78544835D01*
X93569952Y-78660044D01*
X93569955Y-78660047D01*
X93685164Y-78746293D01*
X93685171Y-78746297D01*
X93820017Y-78796591D01*
X93820016Y-78796591D01*
X93826944Y-78797335D01*
X93879627Y-78803000D01*
X95580372Y-78802999D01*
X95639983Y-78796591D01*
X95774831Y-78746296D01*
X95890046Y-78660046D01*
X95976296Y-78544831D01*
X96026591Y-78409983D01*
X96030074Y-78377580D01*
X96056811Y-78313034D01*
X96114202Y-78273185D01*
X96184028Y-78270690D01*
X96244117Y-78306342D01*
X96253681Y-78317954D01*
X96276121Y-78348840D01*
X96276125Y-78348845D01*
X96421154Y-78493874D01*
X96421159Y-78493878D01*
X96565880Y-78599023D01*
X96587079Y-78614425D01*
X96703522Y-78673755D01*
X96769817Y-78707535D01*
X96769819Y-78707535D01*
X96769822Y-78707537D01*
X96964880Y-78770916D01*
X97066166Y-78786958D01*
X97167447Y-78803000D01*
X97167452Y-78803000D01*
X97372553Y-78803000D01*
X97464626Y-78788416D01*
X97575120Y-78770916D01*
X97770178Y-78707537D01*
X97952921Y-78614425D01*
X98118847Y-78493873D01*
X98263873Y-78348847D01*
X98384425Y-78182921D01*
X98477537Y-78000178D01*
X98540916Y-77805120D01*
X98568913Y-77628354D01*
X98573000Y-77602553D01*
X98573000Y-77397446D01*
X98547648Y-77237385D01*
X98540916Y-77194880D01*
X98477537Y-76999822D01*
X98477535Y-76999819D01*
X98477535Y-76999817D01*
X98432189Y-76910822D01*
X98384425Y-76817079D01*
X98286319Y-76682047D01*
X98263878Y-76651159D01*
X98263874Y-76651154D01*
X98118845Y-76506125D01*
X98118840Y-76506121D01*
X97952924Y-76385577D01*
X97952923Y-76385576D01*
X97952921Y-76385575D01*
X97863381Y-76339952D01*
X97770182Y-76292464D01*
X97723384Y-76277258D01*
X97575120Y-76229084D01*
X97575114Y-76229083D01*
X97372553Y-76197000D01*
X97372548Y-76197000D01*
X97167452Y-76197000D01*
X97167447Y-76197000D01*
X96964885Y-76229083D01*
X96964883Y-76229083D01*
X96964880Y-76229084D01*
X96867351Y-76260773D01*
X96769817Y-76292464D01*
X96587075Y-76385577D01*
X96421159Y-76506121D01*
X96421154Y-76506125D01*
X96276125Y-76651154D01*
X96276124Y-76651156D01*
X96253680Y-76682047D01*
X96198350Y-76724712D01*
X96128736Y-76730690D01*
X96066942Y-76698083D01*
X96032585Y-76637244D01*
X96030073Y-76622411D01*
X96026591Y-76590017D01*
X95976297Y-76455171D01*
X95976293Y-76455164D01*
X95890047Y-76339955D01*
X95890044Y-76339952D01*
X95774835Y-76253706D01*
X95774828Y-76253702D01*
X95639982Y-76203408D01*
X95639983Y-76203408D01*
X95580383Y-76197001D01*
X95580381Y-76197000D01*
X95580373Y-76197000D01*
X95580364Y-76197000D01*
X93879629Y-76197000D01*
X93879623Y-76197001D01*
X93820016Y-76203408D01*
X93685171Y-76253702D01*
X93685164Y-76253706D01*
X93569955Y-76339952D01*
X93569952Y-76339955D01*
X93483706Y-76455164D01*
X93483702Y-76455171D01*
X93433408Y-76590017D01*
X93427001Y-76649616D01*
X93427000Y-76649635D01*
X74650500Y-76649635D01*
X74650500Y-74248571D01*
X74650500Y-74240355D01*
X87314200Y-74240355D01*
X87314200Y-74724000D01*
X88145738Y-74724000D01*
X88097626Y-74807331D01*
X88068200Y-74917152D01*
X88068200Y-75030848D01*
X88097626Y-75140669D01*
X88145738Y-75224000D01*
X87314200Y-75224000D01*
X87314200Y-75707644D01*
X87320601Y-75767172D01*
X87320603Y-75767179D01*
X87370845Y-75901886D01*
X87370849Y-75901893D01*
X87457009Y-76016987D01*
X87457012Y-76016990D01*
X87572106Y-76103150D01*
X87572113Y-76103154D01*
X87706820Y-76153396D01*
X87706827Y-76153398D01*
X87766355Y-76159799D01*
X87766372Y-76159800D01*
X88250000Y-76159800D01*
X88250000Y-75328262D01*
X88333331Y-75376374D01*
X88443152Y-75405800D01*
X88556848Y-75405800D01*
X88666669Y-75376374D01*
X88750000Y-75328262D01*
X88750000Y-76159800D01*
X89233628Y-76159800D01*
X89233644Y-76159799D01*
X89293172Y-76153398D01*
X89293179Y-76153396D01*
X89427886Y-76103154D01*
X89427893Y-76103150D01*
X89542987Y-76016990D01*
X89542990Y-76016987D01*
X89629150Y-75901893D01*
X89629154Y-75901886D01*
X89679396Y-75767179D01*
X89679398Y-75767172D01*
X89685799Y-75707644D01*
X89685800Y-75707627D01*
X89685800Y-75224000D01*
X88854262Y-75224000D01*
X88902374Y-75140669D01*
X88931800Y-75030848D01*
X88931800Y-74917152D01*
X88902374Y-74807331D01*
X88854262Y-74724000D01*
X89685800Y-74724000D01*
X89685800Y-74240372D01*
X89685799Y-74240355D01*
X89679398Y-74180827D01*
X89679396Y-74180820D01*
X89629154Y-74046113D01*
X89629150Y-74046106D01*
X89542990Y-73931012D01*
X89542987Y-73931009D01*
X89427893Y-73844849D01*
X89427886Y-73844845D01*
X89293179Y-73794603D01*
X89293172Y-73794601D01*
X89233644Y-73788200D01*
X88750000Y-73788200D01*
X88750000Y-74619737D01*
X88666669Y-74571626D01*
X88556848Y-74542200D01*
X88443152Y-74542200D01*
X88333331Y-74571626D01*
X88250000Y-74619737D01*
X88250000Y-73788200D01*
X87766355Y-73788200D01*
X87706827Y-73794601D01*
X87706820Y-73794603D01*
X87572113Y-73844845D01*
X87572106Y-73844849D01*
X87457012Y-73931009D01*
X87457009Y-73931012D01*
X87370849Y-74046106D01*
X87370845Y-74046113D01*
X87320603Y-74180820D01*
X87320601Y-74180827D01*
X87314200Y-74240355D01*
X74650500Y-74240355D01*
X74650500Y-74180943D01*
X74609577Y-74028216D01*
X74609577Y-74028215D01*
X74572956Y-73964786D01*
X74551487Y-73927601D01*
X74544224Y-73915020D01*
X74527753Y-73847119D01*
X74550605Y-73781093D01*
X74605527Y-73737903D01*
X74675081Y-73731262D01*
X74680131Y-73732345D01*
X74687508Y-73734087D01*
X74687517Y-73734091D01*
X74747127Y-73740500D01*
X75892872Y-73740499D01*
X75952483Y-73734091D01*
X76087331Y-73683796D01*
X76202546Y-73597546D01*
X76288796Y-73482331D01*
X76339091Y-73347483D01*
X76345500Y-73287873D01*
X76345499Y-71692128D01*
X76339091Y-71632517D01*
X76331170Y-71611281D01*
X76288797Y-71497671D01*
X76288793Y-71497664D01*
X76202547Y-71382455D01*
X76202544Y-71382452D01*
X76087335Y-71296206D01*
X76087328Y-71296202D01*
X75952482Y-71245908D01*
X75952483Y-71245908D01*
X75892883Y-71239501D01*
X75892881Y-71239500D01*
X75892873Y-71239500D01*
X75892865Y-71239500D01*
X74774500Y-71239500D01*
X74707461Y-71219815D01*
X74661706Y-71167011D01*
X74650500Y-71115500D01*
X74650500Y-64864499D01*
X74670185Y-64797460D01*
X74722989Y-64751705D01*
X74774495Y-64740499D01*
X75892872Y-64740499D01*
X75952483Y-64734091D01*
X76087331Y-64683796D01*
X76202546Y-64597546D01*
X76288796Y-64482331D01*
X76339091Y-64347483D01*
X76345500Y-64287873D01*
X76345500Y-64214500D01*
X76365185Y-64147461D01*
X76417989Y-64101706D01*
X76469500Y-64090500D01*
X78910501Y-64090500D01*
X78977540Y-64110185D01*
X79023295Y-64162989D01*
X79034501Y-64214500D01*
X79034501Y-64877876D01*
X79040908Y-64937483D01*
X79091202Y-65072328D01*
X79091206Y-65072335D01*
X79177452Y-65187544D01*
X79177455Y-65187547D01*
X79292664Y-65273793D01*
X79292671Y-65273797D01*
X79427517Y-65324091D01*
X79427516Y-65324091D01*
X79434444Y-65324835D01*
X79487127Y-65330500D01*
X80605500Y-65330499D01*
X80672539Y-65350184D01*
X80718294Y-65402987D01*
X80729500Y-65454499D01*
X80729500Y-71335500D01*
X80709815Y-71402539D01*
X80657011Y-71448294D01*
X80605500Y-71459500D01*
X79487129Y-71459500D01*
X79487123Y-71459501D01*
X79427516Y-71465908D01*
X79292671Y-71516202D01*
X79292664Y-71516206D01*
X79177455Y-71602452D01*
X79177452Y-71602455D01*
X79091206Y-71717664D01*
X79091202Y-71717671D01*
X79040908Y-71852517D01*
X79034501Y-71912116D01*
X79034500Y-71912135D01*
X79034500Y-73507870D01*
X79034501Y-73507876D01*
X79040908Y-73567483D01*
X79091202Y-73702328D01*
X79091206Y-73702335D01*
X79177452Y-73817544D01*
X79177455Y-73817547D01*
X79292664Y-73903793D01*
X79292671Y-73903797D01*
X79427517Y-73954091D01*
X79427516Y-73954091D01*
X79434444Y-73954835D01*
X79487127Y-73960500D01*
X80632872Y-73960499D01*
X80692483Y-73954091D01*
X80827331Y-73903796D01*
X80828430Y-73902972D01*
X80829717Y-73902492D01*
X80835112Y-73899547D01*
X80835535Y-73900322D01*
X80893887Y-73878552D01*
X80950198Y-73887673D01*
X81030873Y-73921091D01*
X81196777Y-73954091D01*
X81228992Y-73960499D01*
X81228996Y-73960500D01*
X81228997Y-73960500D01*
X81431004Y-73960500D01*
X81431005Y-73960499D01*
X81629127Y-73921091D01*
X81815756Y-73843786D01*
X81896110Y-73790094D01*
X81962786Y-73769217D01*
X82030166Y-73787701D01*
X82033865Y-73790078D01*
X82114244Y-73843786D01*
X82114245Y-73843786D01*
X82114246Y-73843787D01*
X82116810Y-73844849D01*
X82300873Y-73921091D01*
X82466777Y-73954091D01*
X82498992Y-73960499D01*
X82498996Y-73960500D01*
X82498997Y-73960500D01*
X82701004Y-73960500D01*
X82701005Y-73960499D01*
X82899127Y-73921091D01*
X83085756Y-73843786D01*
X83253718Y-73731558D01*
X83396558Y-73588718D01*
X83508786Y-73420756D01*
X83586091Y-73234127D01*
X83625500Y-73036003D01*
X83625500Y-72383997D01*
X83586091Y-72185873D01*
X83508786Y-71999244D01*
X83508784Y-71999241D01*
X83508782Y-71999237D01*
X83396558Y-71831281D01*
X83253718Y-71688441D01*
X83085762Y-71576217D01*
X83085752Y-71576212D01*
X82899127Y-71498909D01*
X82899119Y-71498907D01*
X82701007Y-71459500D01*
X82701003Y-71459500D01*
X82498997Y-71459500D01*
X82498992Y-71459500D01*
X82300880Y-71498907D01*
X82300872Y-71498909D01*
X82114235Y-71576217D01*
X82112947Y-71576906D01*
X82112194Y-71577062D01*
X82108616Y-71578545D01*
X82108334Y-71577866D01*
X82044544Y-71591145D01*
X81979301Y-71566141D01*
X81937934Y-71509834D01*
X81930500Y-71467545D01*
X81930500Y-71108355D01*
X87314200Y-71108355D01*
X87314200Y-71592000D01*
X88145738Y-71592000D01*
X88097626Y-71675331D01*
X88068200Y-71785152D01*
X88068200Y-71898848D01*
X88097626Y-72008669D01*
X88145738Y-72092000D01*
X87314200Y-72092000D01*
X87314200Y-72575644D01*
X87320601Y-72635172D01*
X87320603Y-72635179D01*
X87370845Y-72769886D01*
X87370849Y-72769893D01*
X87457009Y-72884987D01*
X87457012Y-72884990D01*
X87572106Y-72971150D01*
X87572113Y-72971154D01*
X87706820Y-73021396D01*
X87706827Y-73021398D01*
X87766355Y-73027799D01*
X87766372Y-73027800D01*
X88250000Y-73027800D01*
X88250000Y-72196262D01*
X88333331Y-72244374D01*
X88443152Y-72273800D01*
X88556848Y-72273800D01*
X88666669Y-72244374D01*
X88750000Y-72196262D01*
X88750000Y-73027800D01*
X89233628Y-73027800D01*
X89233644Y-73027799D01*
X89293172Y-73021398D01*
X89293179Y-73021396D01*
X89427886Y-72971154D01*
X89427893Y-72971150D01*
X89542987Y-72884990D01*
X89542990Y-72884987D01*
X89629150Y-72769893D01*
X89629154Y-72769886D01*
X89679396Y-72635179D01*
X89679398Y-72635172D01*
X89685799Y-72575644D01*
X89685800Y-72575627D01*
X89685800Y-72092000D01*
X88854262Y-72092000D01*
X88902374Y-72008669D01*
X88931800Y-71898848D01*
X88931800Y-71785152D01*
X88902374Y-71675331D01*
X88854262Y-71592000D01*
X89685800Y-71592000D01*
X89685800Y-71108372D01*
X89685799Y-71108355D01*
X89679398Y-71048827D01*
X89679396Y-71048820D01*
X89629154Y-70914113D01*
X89629150Y-70914106D01*
X89542990Y-70799012D01*
X89542987Y-70799009D01*
X89427893Y-70712849D01*
X89427886Y-70712845D01*
X89293179Y-70662603D01*
X89293172Y-70662601D01*
X89233644Y-70656200D01*
X88750000Y-70656200D01*
X88750000Y-71487737D01*
X88666669Y-71439626D01*
X88556848Y-71410200D01*
X88443152Y-71410200D01*
X88333331Y-71439626D01*
X88250000Y-71487737D01*
X88250000Y-70656200D01*
X87766355Y-70656200D01*
X87706827Y-70662601D01*
X87706820Y-70662603D01*
X87572113Y-70712845D01*
X87572106Y-70712849D01*
X87457012Y-70799009D01*
X87457009Y-70799012D01*
X87370849Y-70914106D01*
X87370845Y-70914113D01*
X87320603Y-71048820D01*
X87320601Y-71048827D01*
X87314200Y-71108355D01*
X81930500Y-71108355D01*
X81930500Y-65322454D01*
X81950185Y-65255415D01*
X82002989Y-65209660D01*
X82072147Y-65199716D01*
X82108535Y-65211649D01*
X82108616Y-65211455D01*
X82111171Y-65212513D01*
X82112960Y-65213100D01*
X82114242Y-65213785D01*
X82114243Y-65213785D01*
X82114244Y-65213786D01*
X82300873Y-65291091D01*
X82458547Y-65322454D01*
X82498992Y-65330499D01*
X82498996Y-65330500D01*
X82498997Y-65330500D01*
X82701004Y-65330500D01*
X82701005Y-65330499D01*
X82899127Y-65291091D01*
X83085756Y-65213786D01*
X83253718Y-65101558D01*
X83396558Y-64958718D01*
X83508786Y-64790756D01*
X83586091Y-64604127D01*
X83625500Y-64406003D01*
X83625500Y-63753997D01*
X83586091Y-63555873D01*
X83508786Y-63369244D01*
X83508784Y-63369241D01*
X83508782Y-63369237D01*
X83396558Y-63201281D01*
X83253718Y-63058441D01*
X83085762Y-62946217D01*
X83085752Y-62946212D01*
X82899127Y-62868909D01*
X82899119Y-62868907D01*
X82701007Y-62829500D01*
X82701003Y-62829500D01*
X82498997Y-62829500D01*
X82498992Y-62829500D01*
X82300880Y-62868907D01*
X82300872Y-62868909D01*
X82114244Y-62946213D01*
X82033891Y-62999904D01*
X81967213Y-63020782D01*
X81899833Y-63002297D01*
X81896109Y-62999904D01*
X81815755Y-62946213D01*
X81629127Y-62868909D01*
X81629119Y-62868907D01*
X81431007Y-62829500D01*
X81431003Y-62829500D01*
X81228997Y-62829500D01*
X81228992Y-62829500D01*
X81030880Y-62868907D01*
X81030868Y-62868910D01*
X80950198Y-62902325D01*
X80880729Y-62909794D01*
X80835342Y-62890036D01*
X80835114Y-62890454D01*
X80830447Y-62887905D01*
X80828432Y-62887028D01*
X80827331Y-62886204D01*
X80827330Y-62886203D01*
X80827328Y-62886202D01*
X80692482Y-62835908D01*
X80692483Y-62835908D01*
X80632883Y-62829501D01*
X80632881Y-62829500D01*
X80632873Y-62829500D01*
X80632864Y-62829500D01*
X79487129Y-62829500D01*
X79487123Y-62829501D01*
X79427516Y-62835908D01*
X79304793Y-62881682D01*
X79261460Y-62889500D01*
X76469499Y-62889500D01*
X76402460Y-62869815D01*
X76356705Y-62817011D01*
X76345499Y-62765500D01*
X76345499Y-62692129D01*
X76345498Y-62692123D01*
X76339091Y-62632516D01*
X76288797Y-62497671D01*
X76288793Y-62497664D01*
X76202547Y-62382455D01*
X76202544Y-62382452D01*
X76087335Y-62296206D01*
X76087328Y-62296202D01*
X75952482Y-62245908D01*
X75952483Y-62245908D01*
X75892883Y-62239501D01*
X75892881Y-62239500D01*
X75892873Y-62239500D01*
X75892864Y-62239500D01*
X74747129Y-62239500D01*
X74747123Y-62239501D01*
X74687516Y-62245908D01*
X74552672Y-62296202D01*
X74552665Y-62296206D01*
X74551556Y-62297037D01*
X74550258Y-62297520D01*
X74544887Y-62300454D01*
X74544465Y-62299681D01*
X74486090Y-62321449D01*
X74429800Y-62312325D01*
X74349127Y-62278909D01*
X74349119Y-62278907D01*
X74151007Y-62239500D01*
X74151003Y-62239500D01*
X73948997Y-62239500D01*
X73948992Y-62239500D01*
X73750880Y-62278907D01*
X73750872Y-62278909D01*
X73564244Y-62356213D01*
X73483891Y-62409904D01*
X73417213Y-62430782D01*
X73349833Y-62412297D01*
X73346109Y-62409904D01*
X73265755Y-62356213D01*
X73079127Y-62278909D01*
X73079119Y-62278907D01*
X72881007Y-62239500D01*
X72881003Y-62239500D01*
X72678997Y-62239500D01*
X72678992Y-62239500D01*
X72493556Y-62276385D01*
X72423964Y-62270158D01*
X72381684Y-62242449D01*
X70415590Y-60276355D01*
X70415588Y-60276352D01*
X70296717Y-60157481D01*
X70296716Y-60157480D01*
X70193083Y-60097648D01*
X70193082Y-60097647D01*
X70159783Y-60078422D01*
X70103881Y-60063443D01*
X70007057Y-60037499D01*
X69848943Y-60037499D01*
X69841347Y-60037499D01*
X69841331Y-60037500D01*
X69410299Y-60037500D01*
X69343260Y-60017815D01*
X69297505Y-59965011D01*
X69286299Y-59913500D01*
X69286299Y-59904329D01*
X69286298Y-59904323D01*
X69286297Y-59904316D01*
X69280266Y-59848205D01*
X69279891Y-59844716D01*
X69229597Y-59709871D01*
X69229593Y-59709864D01*
X69143347Y-59594655D01*
X69143344Y-59594652D01*
X69028135Y-59508406D01*
X69028128Y-59508402D01*
X68893282Y-59458108D01*
X68893283Y-59458108D01*
X68833683Y-59451701D01*
X68833681Y-59451700D01*
X68833673Y-59451700D01*
X68833664Y-59451700D01*
X67366329Y-59451700D01*
X67366323Y-59451701D01*
X67306716Y-59458108D01*
X67171871Y-59508402D01*
X67171864Y-59508406D01*
X67056655Y-59594652D01*
X67056652Y-59594655D01*
X66970406Y-59709864D01*
X66970402Y-59709871D01*
X66920108Y-59844717D01*
X66915724Y-59885500D01*
X66913701Y-59904323D01*
X66913700Y-59904335D01*
X65000000Y-59904335D01*
X65000000Y-55622669D01*
X67454200Y-55622669D01*
X67454200Y-55809330D01*
X67483397Y-55993672D01*
X67541077Y-56171191D01*
X67625811Y-56337491D01*
X67642282Y-56360162D01*
X68212721Y-55789723D01*
X68237626Y-55882669D01*
X68294474Y-55981131D01*
X68374869Y-56061526D01*
X68473331Y-56118374D01*
X68566275Y-56143278D01*
X67995835Y-56713716D01*
X68018504Y-56730186D01*
X68184808Y-56814922D01*
X68362327Y-56872602D01*
X68546670Y-56901800D01*
X68733330Y-56901800D01*
X68917672Y-56872602D01*
X69095191Y-56814922D01*
X69261496Y-56730186D01*
X69284162Y-56713717D01*
X69284162Y-56713716D01*
X68713724Y-56143277D01*
X68806669Y-56118374D01*
X68905131Y-56061526D01*
X68985526Y-55981131D01*
X69042374Y-55882669D01*
X69067278Y-55789724D01*
X69637716Y-56360162D01*
X69637717Y-56360162D01*
X69654186Y-56337496D01*
X69738922Y-56171191D01*
X69796602Y-55993672D01*
X69825800Y-55809330D01*
X69825800Y-55622669D01*
X71954200Y-55622669D01*
X71954200Y-55809330D01*
X71983397Y-55993672D01*
X72041077Y-56171191D01*
X72125811Y-56337491D01*
X72142282Y-56360162D01*
X72712721Y-55789723D01*
X72737626Y-55882669D01*
X72794474Y-55981131D01*
X72874869Y-56061526D01*
X72973331Y-56118374D01*
X73066275Y-56143278D01*
X72495835Y-56713716D01*
X72518504Y-56730186D01*
X72684808Y-56814922D01*
X72862327Y-56872602D01*
X73046670Y-56901800D01*
X73233330Y-56901800D01*
X73417672Y-56872602D01*
X73595191Y-56814922D01*
X73761496Y-56730186D01*
X73784162Y-56713717D01*
X73784162Y-56713716D01*
X73213724Y-56143277D01*
X73306669Y-56118374D01*
X73405131Y-56061526D01*
X73485526Y-55981131D01*
X73542374Y-55882669D01*
X73567278Y-55789724D01*
X74137716Y-56360162D01*
X74137717Y-56360162D01*
X74154186Y-56337496D01*
X74238922Y-56171191D01*
X74296602Y-55993672D01*
X74325800Y-55809330D01*
X74325800Y-55748669D01*
X76814200Y-55748669D01*
X76814200Y-55935330D01*
X76843397Y-56119672D01*
X76901077Y-56297191D01*
X76985811Y-56463491D01*
X77002282Y-56486162D01*
X77572721Y-55915723D01*
X77597626Y-56008669D01*
X77654474Y-56107131D01*
X77734869Y-56187526D01*
X77833331Y-56244374D01*
X77926275Y-56269278D01*
X77355835Y-56839716D01*
X77378504Y-56856186D01*
X77544808Y-56940922D01*
X77722327Y-56998602D01*
X77906670Y-57027800D01*
X78093330Y-57027800D01*
X78277672Y-56998602D01*
X78455191Y-56940922D01*
X78621496Y-56856186D01*
X78644162Y-56839717D01*
X78644162Y-56839716D01*
X78073724Y-56269277D01*
X78166669Y-56244374D01*
X78265131Y-56187526D01*
X78345526Y-56107131D01*
X78402374Y-56008669D01*
X78427278Y-55915724D01*
X78997716Y-56486162D01*
X78997717Y-56486162D01*
X79014186Y-56463496D01*
X79098922Y-56297191D01*
X79156602Y-56119672D01*
X79185800Y-55935330D01*
X79185800Y-55748669D01*
X79156602Y-55564327D01*
X79098922Y-55386808D01*
X79014186Y-55220504D01*
X78997716Y-55197836D01*
X78997716Y-55197835D01*
X78427277Y-55768274D01*
X78402374Y-55675331D01*
X78345526Y-55576869D01*
X78265131Y-55496474D01*
X78166669Y-55439626D01*
X78073724Y-55414722D01*
X78644162Y-54844282D01*
X78621491Y-54827811D01*
X78455191Y-54743077D01*
X78277672Y-54685397D01*
X78093330Y-54656200D01*
X77906670Y-54656200D01*
X77722327Y-54685397D01*
X77544808Y-54743077D01*
X77378502Y-54827814D01*
X77355836Y-54844282D01*
X77355835Y-54844282D01*
X77926275Y-55414721D01*
X77833331Y-55439626D01*
X77734869Y-55496474D01*
X77654474Y-55576869D01*
X77597626Y-55675331D01*
X77572722Y-55768275D01*
X77002282Y-55197835D01*
X77002282Y-55197836D01*
X76985814Y-55220502D01*
X76901077Y-55386808D01*
X76843397Y-55564327D01*
X76814200Y-55748669D01*
X74325800Y-55748669D01*
X74325800Y-55622669D01*
X74296602Y-55438327D01*
X74238922Y-55260808D01*
X74154186Y-55094504D01*
X74137716Y-55071836D01*
X74137716Y-55071835D01*
X73567277Y-55642274D01*
X73542374Y-55549331D01*
X73485526Y-55450869D01*
X73405131Y-55370474D01*
X73306669Y-55313626D01*
X73213724Y-55288722D01*
X73698585Y-54803860D01*
X73784162Y-54718282D01*
X73761491Y-54701811D01*
X73595191Y-54617077D01*
X73417672Y-54559397D01*
X73233330Y-54530200D01*
X73046670Y-54530200D01*
X72862327Y-54559397D01*
X72684808Y-54617077D01*
X72518502Y-54701814D01*
X72495836Y-54718282D01*
X72495835Y-54718282D01*
X73066275Y-55288721D01*
X72973331Y-55313626D01*
X72874869Y-55370474D01*
X72794474Y-55450869D01*
X72737626Y-55549331D01*
X72712722Y-55642275D01*
X72142282Y-55071835D01*
X72142282Y-55071836D01*
X72125814Y-55094502D01*
X72041077Y-55260808D01*
X71983397Y-55438327D01*
X71954200Y-55622669D01*
X69825800Y-55622669D01*
X69796602Y-55438327D01*
X69738922Y-55260808D01*
X69654186Y-55094504D01*
X69637716Y-55071836D01*
X69637716Y-55071835D01*
X69067277Y-55642274D01*
X69042374Y-55549331D01*
X68985526Y-55450869D01*
X68905131Y-55370474D01*
X68806669Y-55313626D01*
X68713724Y-55288722D01*
X69284162Y-54718282D01*
X69261491Y-54701811D01*
X69095191Y-54617077D01*
X68917672Y-54559397D01*
X68733330Y-54530200D01*
X68546670Y-54530200D01*
X68362327Y-54559397D01*
X68184808Y-54617077D01*
X68018502Y-54701814D01*
X67995836Y-54718282D01*
X67995835Y-54718282D01*
X68566275Y-55288721D01*
X68473331Y-55313626D01*
X68374869Y-55370474D01*
X68294474Y-55450869D01*
X68237626Y-55549331D01*
X68212722Y-55642275D01*
X67642282Y-55071835D01*
X67642282Y-55071836D01*
X67625814Y-55094502D01*
X67541077Y-55260808D01*
X67483397Y-55438327D01*
X67454200Y-55622669D01*
X65000000Y-55622669D01*
X65000000Y-43298335D01*
X67453700Y-43298335D01*
X67453700Y-44765670D01*
X67453701Y-44765676D01*
X67460108Y-44825283D01*
X67510402Y-44960128D01*
X67510406Y-44960135D01*
X67596652Y-45075344D01*
X67596655Y-45075347D01*
X67711864Y-45161593D01*
X67711871Y-45161597D01*
X67846717Y-45211891D01*
X67846716Y-45211891D01*
X67853644Y-45212635D01*
X67906327Y-45218300D01*
X69373672Y-45218299D01*
X69433283Y-45211891D01*
X69568131Y-45161596D01*
X69683346Y-45075346D01*
X69769596Y-44960131D01*
X69819891Y-44825283D01*
X69826300Y-44765673D01*
X69826299Y-43298328D01*
X69819891Y-43238717D01*
X69815587Y-43227178D01*
X69769597Y-43103871D01*
X69769593Y-43103864D01*
X69683347Y-42988655D01*
X69683344Y-42988652D01*
X69568135Y-42902406D01*
X69568128Y-42902402D01*
X69433282Y-42852108D01*
X69433283Y-42852108D01*
X69373683Y-42845701D01*
X69373681Y-42845700D01*
X69373673Y-42845700D01*
X69373665Y-42845700D01*
X69364500Y-42845700D01*
X69355814Y-42843149D01*
X69346853Y-42844438D01*
X69322812Y-42833459D01*
X69297461Y-42826015D01*
X69291533Y-42819174D01*
X69283297Y-42815413D01*
X69269007Y-42793178D01*
X69251706Y-42773211D01*
X69249418Y-42762696D01*
X69245523Y-42756635D01*
X69240500Y-42721700D01*
X69240500Y-42700097D01*
X69260185Y-42633058D01*
X69276819Y-42612416D01*
X71287417Y-40601818D01*
X71348740Y-40568333D01*
X71375098Y-40565499D01*
X72297871Y-40565499D01*
X72297872Y-40565499D01*
X72357483Y-40559091D01*
X72492331Y-40508796D01*
X72607546Y-40422546D01*
X72693796Y-40307331D01*
X72744091Y-40172483D01*
X72750500Y-40112873D01*
X72750499Y-38994499D01*
X72770184Y-38927461D01*
X72822987Y-38881706D01*
X72874499Y-38870500D01*
X75625500Y-38870500D01*
X75692539Y-38890185D01*
X75738294Y-38942989D01*
X75749500Y-38994500D01*
X75749500Y-40112870D01*
X75749501Y-40112876D01*
X75755908Y-40172483D01*
X75806202Y-40307328D01*
X75806203Y-40307330D01*
X75831387Y-40340972D01*
X75855803Y-40406437D01*
X75840951Y-40474710D01*
X75819800Y-40502963D01*
X73513382Y-42809381D01*
X73452059Y-42842866D01*
X73425701Y-42845700D01*
X72406329Y-42845700D01*
X72406323Y-42845701D01*
X72346716Y-42852108D01*
X72211871Y-42902402D01*
X72211864Y-42902406D01*
X72096655Y-42988652D01*
X72096652Y-42988655D01*
X72010406Y-43103864D01*
X72010402Y-43103871D01*
X71960108Y-43238717D01*
X71953701Y-43298316D01*
X71953701Y-43298323D01*
X71953700Y-43298335D01*
X71953700Y-44765670D01*
X71953701Y-44765676D01*
X71960108Y-44825283D01*
X72010402Y-44960128D01*
X72010406Y-44960135D01*
X72096652Y-45075344D01*
X72096655Y-45075347D01*
X72211864Y-45161593D01*
X72211871Y-45161597D01*
X72346717Y-45211891D01*
X72346716Y-45211891D01*
X72353644Y-45212635D01*
X72406327Y-45218300D01*
X73873672Y-45218299D01*
X73933283Y-45211891D01*
X74068131Y-45161596D01*
X74183346Y-45075346D01*
X74269596Y-44960131D01*
X74319891Y-44825283D01*
X74326300Y-44765673D01*
X74326299Y-43746295D01*
X74345983Y-43679257D01*
X74362613Y-43658620D01*
X77368713Y-40652521D01*
X77368716Y-40652520D01*
X77419419Y-40601816D01*
X77419420Y-40601816D01*
X77433773Y-40593978D01*
X77480740Y-40568333D01*
X77480742Y-40568332D01*
X77480747Y-40568332D01*
X77507099Y-40565499D01*
X77797871Y-40565499D01*
X77797872Y-40565499D01*
X77857483Y-40559091D01*
X77992331Y-40508796D01*
X78107546Y-40422546D01*
X78193796Y-40307331D01*
X78206559Y-40273111D01*
X78225934Y-40221166D01*
X78267806Y-40165233D01*
X78333270Y-40140816D01*
X78342116Y-40140500D01*
X81487541Y-40140500D01*
X81554580Y-40160185D01*
X81600335Y-40212989D01*
X81610831Y-40251246D01*
X81615909Y-40298483D01*
X81666202Y-40433328D01*
X81666206Y-40433335D01*
X81752452Y-40548544D01*
X81752455Y-40548547D01*
X81867664Y-40634793D01*
X81867671Y-40634797D01*
X82002517Y-40685091D01*
X82002516Y-40685091D01*
X82009444Y-40685835D01*
X82062127Y-40691500D01*
X83657872Y-40691499D01*
X83717483Y-40685091D01*
X83852331Y-40634796D01*
X83967546Y-40548546D01*
X84053796Y-40433331D01*
X84104091Y-40298483D01*
X84110500Y-40238873D01*
X84110499Y-39120499D01*
X84130184Y-39053461D01*
X84182987Y-39007706D01*
X84234499Y-38996500D01*
X86834699Y-38996500D01*
X86901738Y-39016185D01*
X86947493Y-39068989D01*
X86957437Y-39138147D01*
X86928412Y-39201703D01*
X86922380Y-39208181D01*
X86848241Y-39282320D01*
X82609381Y-43521181D01*
X82548058Y-43554666D01*
X82521700Y-43557500D01*
X79310299Y-43557500D01*
X79243260Y-43537815D01*
X79197505Y-43485011D01*
X79186299Y-43433500D01*
X79186299Y-43424329D01*
X79186298Y-43424323D01*
X79186297Y-43424316D01*
X79179891Y-43364717D01*
X79168858Y-43335137D01*
X79129597Y-43229871D01*
X79129593Y-43229864D01*
X79043347Y-43114655D01*
X79043344Y-43114652D01*
X78928135Y-43028406D01*
X78928128Y-43028402D01*
X78793282Y-42978108D01*
X78793283Y-42978108D01*
X78733683Y-42971701D01*
X78733681Y-42971700D01*
X78733673Y-42971700D01*
X78733664Y-42971700D01*
X77266329Y-42971700D01*
X77266323Y-42971701D01*
X77206716Y-42978108D01*
X77071871Y-43028402D01*
X77071864Y-43028406D01*
X76956655Y-43114652D01*
X76956652Y-43114655D01*
X76870406Y-43229864D01*
X76870402Y-43229871D01*
X76820108Y-43364717D01*
X76813701Y-43424316D01*
X76813701Y-43424323D01*
X76813700Y-43424335D01*
X76813700Y-44891670D01*
X76813701Y-44891676D01*
X76820108Y-44951283D01*
X76870402Y-45086128D01*
X76870406Y-45086135D01*
X76956652Y-45201344D01*
X76956655Y-45201347D01*
X77071864Y-45287593D01*
X77071871Y-45287597D01*
X77206717Y-45337891D01*
X77206716Y-45337891D01*
X77213644Y-45338635D01*
X77266327Y-45344300D01*
X78733672Y-45344299D01*
X78793283Y-45337891D01*
X78928131Y-45287596D01*
X79043346Y-45201346D01*
X79129596Y-45086131D01*
X79179891Y-44951283D01*
X79186300Y-44891673D01*
X79186300Y-44882500D01*
X79205985Y-44815461D01*
X79258789Y-44769706D01*
X79310300Y-44758500D01*
X82735128Y-44758500D01*
X82735144Y-44758501D01*
X82742740Y-44758501D01*
X82900851Y-44758501D01*
X82900854Y-44758501D01*
X83053582Y-44717577D01*
X83118589Y-44680045D01*
X83190513Y-44638520D01*
X83302317Y-44526716D01*
X83302317Y-44526714D01*
X83312521Y-44516511D01*
X83312525Y-44516506D01*
X83602519Y-44226512D01*
X83663842Y-44193027D01*
X83733534Y-44198011D01*
X83789467Y-44239883D01*
X83813884Y-44305347D01*
X83814200Y-44314193D01*
X83814200Y-44733644D01*
X83820601Y-44793172D01*
X83820603Y-44793179D01*
X83870845Y-44927886D01*
X83870849Y-44927893D01*
X83957009Y-45042987D01*
X83957012Y-45042990D01*
X84072106Y-45129150D01*
X84072113Y-45129154D01*
X84206820Y-45179396D01*
X84206827Y-45179398D01*
X84266355Y-45185799D01*
X84266372Y-45185800D01*
X84750000Y-45185800D01*
X84750000Y-44354262D01*
X84833331Y-44402374D01*
X84943152Y-44431800D01*
X85056848Y-44431800D01*
X85166669Y-44402374D01*
X85250000Y-44354262D01*
X85250000Y-45185800D01*
X85733628Y-45185800D01*
X85733644Y-45185799D01*
X85793172Y-45179398D01*
X85793179Y-45179396D01*
X85927886Y-45129154D01*
X85927893Y-45129150D01*
X86042987Y-45042990D01*
X86042990Y-45042987D01*
X86129150Y-44927893D01*
X86129154Y-44927886D01*
X86179396Y-44793179D01*
X86179398Y-44793172D01*
X86185799Y-44733644D01*
X86185800Y-44733627D01*
X86185800Y-44250000D01*
X85354262Y-44250000D01*
X85402374Y-44166669D01*
X85431800Y-44056848D01*
X85431800Y-43943152D01*
X85402374Y-43833331D01*
X85354262Y-43750000D01*
X86185800Y-43750000D01*
X86185800Y-43266372D01*
X86185799Y-43266355D01*
X86179398Y-43206827D01*
X86179396Y-43206820D01*
X86129154Y-43072113D01*
X86129150Y-43072106D01*
X86042990Y-42957012D01*
X86042987Y-42957009D01*
X85927893Y-42870849D01*
X85927886Y-42870845D01*
X85793179Y-42820603D01*
X85793172Y-42820601D01*
X85733644Y-42814200D01*
X85314193Y-42814200D01*
X85247154Y-42794515D01*
X85201399Y-42741711D01*
X85191455Y-42672553D01*
X85220480Y-42608997D01*
X85226512Y-42602519D01*
X86101291Y-41727740D01*
X87173833Y-40655197D01*
X87235154Y-40621714D01*
X87304845Y-40626698D01*
X87421280Y-40670125D01*
X87421279Y-40670125D01*
X87428207Y-40670869D01*
X87480890Y-40676534D01*
X87981666Y-40676533D01*
X88048704Y-40696217D01*
X88094459Y-40749021D01*
X88104403Y-40818180D01*
X88075378Y-40881736D01*
X88069346Y-40888214D01*
X87631286Y-41326275D01*
X87519481Y-41438079D01*
X87519479Y-41438082D01*
X87469361Y-41524891D01*
X87469359Y-41524893D01*
X87440425Y-41575006D01*
X87440424Y-41575007D01*
X87440423Y-41575012D01*
X87399499Y-41727740D01*
X87399499Y-41727742D01*
X87399499Y-41895843D01*
X87399500Y-41895856D01*
X87399500Y-47699903D01*
X87379815Y-47766942D01*
X87363181Y-47787584D01*
X81985339Y-53165425D01*
X81924016Y-53198910D01*
X81921850Y-53199361D01*
X81766508Y-53230261D01*
X81766498Y-53230264D01*
X81620827Y-53290602D01*
X81620814Y-53290609D01*
X81489711Y-53378210D01*
X81489707Y-53378213D01*
X81378213Y-53489707D01*
X81378210Y-53489711D01*
X81290609Y-53620814D01*
X81290602Y-53620827D01*
X81230264Y-53766498D01*
X81230261Y-53766510D01*
X81199500Y-53921153D01*
X81199500Y-54078846D01*
X81230261Y-54233489D01*
X81230264Y-54233501D01*
X81290602Y-54379172D01*
X81290609Y-54379185D01*
X81378210Y-54510288D01*
X81378213Y-54510292D01*
X81489707Y-54621786D01*
X81489711Y-54621789D01*
X81620814Y-54709390D01*
X81620827Y-54709397D01*
X81733010Y-54755864D01*
X81766503Y-54769737D01*
X81921153Y-54800499D01*
X81921156Y-54800500D01*
X81921158Y-54800500D01*
X82078844Y-54800500D01*
X82078845Y-54800499D01*
X82233497Y-54769737D01*
X82379179Y-54709394D01*
X82510289Y-54621789D01*
X82621789Y-54510289D01*
X82709394Y-54379179D01*
X82769737Y-54233497D01*
X82789113Y-54136085D01*
X82800638Y-54078150D01*
X82833023Y-54016239D01*
X82834518Y-54014716D01*
X88358506Y-48490727D01*
X88358511Y-48490724D01*
X88368714Y-48480520D01*
X88368716Y-48480520D01*
X88480520Y-48368716D01*
X88559577Y-48231784D01*
X88600500Y-48079057D01*
X88600500Y-45056186D01*
X88620185Y-44989147D01*
X88672989Y-44943392D01*
X88742147Y-44933448D01*
X88797384Y-44955867D01*
X88878243Y-45014615D01*
X89044619Y-45099387D01*
X89222207Y-45157089D01*
X89406636Y-45186300D01*
X89406637Y-45186300D01*
X89593363Y-45186300D01*
X89593364Y-45186300D01*
X89777793Y-45157089D01*
X89955381Y-45099387D01*
X90121757Y-45014615D01*
X90272822Y-44904859D01*
X90404859Y-44772822D01*
X90514615Y-44621757D01*
X90599387Y-44455381D01*
X90657089Y-44277793D01*
X90686300Y-44093364D01*
X90686300Y-43906636D01*
X90657089Y-43722207D01*
X90599387Y-43544619D01*
X90514615Y-43378243D01*
X90404859Y-43227178D01*
X90272822Y-43095141D01*
X90121757Y-42985385D01*
X89955381Y-42900613D01*
X89777793Y-42842911D01*
X89777791Y-42842910D01*
X89777789Y-42842910D01*
X89604179Y-42815413D01*
X89593364Y-42813700D01*
X89406636Y-42813700D01*
X89395821Y-42815413D01*
X89222210Y-42842910D01*
X89044616Y-42900614D01*
X88878239Y-42985387D01*
X88797385Y-43044131D01*
X88731579Y-43067611D01*
X88663525Y-43051785D01*
X88614830Y-43001680D01*
X88600500Y-42943813D01*
X88600500Y-42106893D01*
X88620185Y-42039854D01*
X88636814Y-42019216D01*
X89698476Y-40957555D01*
X89698479Y-40957554D01*
X89810283Y-40845750D01*
X89860402Y-40758938D01*
X89889340Y-40708819D01*
X89930264Y-40556091D01*
X89930264Y-40397977D01*
X89930264Y-40390382D01*
X89930263Y-40390364D01*
X89930263Y-37959837D01*
X89928403Y-37952894D01*
X89905556Y-37867627D01*
X89907219Y-37797777D01*
X89946382Y-37739915D01*
X90010610Y-37712411D01*
X90025331Y-37711534D01*
X92869232Y-37711534D01*
X92936271Y-37731219D01*
X92982026Y-37784023D01*
X92987438Y-37800788D01*
X92988101Y-37800588D01*
X92989870Y-37806420D01*
X93069058Y-37997596D01*
X93184024Y-38169657D01*
X93330342Y-38315975D01*
X93330345Y-38315977D01*
X93502402Y-38430941D01*
X93693580Y-38510130D01*
X93836936Y-38538645D01*
X93896530Y-38550499D01*
X93896534Y-38550500D01*
X93896535Y-38550500D01*
X94103466Y-38550500D01*
X94103467Y-38550499D01*
X94306420Y-38510130D01*
X94497598Y-38430941D01*
X94669655Y-38315977D01*
X94784768Y-38200863D01*
X94846089Y-38167380D01*
X94915781Y-38172364D01*
X94971715Y-38214235D01*
X94988630Y-38245214D01*
X95006201Y-38292326D01*
X95006206Y-38292335D01*
X95092452Y-38407544D01*
X95092455Y-38407547D01*
X95207664Y-38493793D01*
X95207673Y-38493798D01*
X95318832Y-38535257D01*
X95374766Y-38577127D01*
X95399184Y-38642592D01*
X95399500Y-38651439D01*
X95399500Y-42848560D01*
X95379815Y-42915599D01*
X95327011Y-42961354D01*
X95318833Y-42964742D01*
X95207671Y-43006202D01*
X95207664Y-43006206D01*
X95092455Y-43092452D01*
X95092452Y-43092455D01*
X95006206Y-43207664D01*
X95006202Y-43207671D01*
X94988630Y-43254786D01*
X94946759Y-43310720D01*
X94881294Y-43335137D01*
X94813021Y-43320285D01*
X94784767Y-43299134D01*
X94669657Y-43184024D01*
X94536634Y-43095142D01*
X94497598Y-43069059D01*
X94494102Y-43067611D01*
X94306420Y-42989870D01*
X94306412Y-42989868D01*
X94103469Y-42949500D01*
X94103465Y-42949500D01*
X93896535Y-42949500D01*
X93896530Y-42949500D01*
X93693587Y-42989868D01*
X93693579Y-42989870D01*
X93502403Y-43069058D01*
X93330342Y-43184024D01*
X93184024Y-43330342D01*
X93069058Y-43502403D01*
X92989870Y-43693579D01*
X92989868Y-43693587D01*
X92949500Y-43896530D01*
X92949500Y-44103469D01*
X92989868Y-44306412D01*
X92989870Y-44306420D01*
X93069059Y-44497598D01*
X93081696Y-44516511D01*
X93184024Y-44669657D01*
X93330342Y-44815975D01*
X93330345Y-44815977D01*
X93502402Y-44930941D01*
X93693580Y-45010130D01*
X93864315Y-45044091D01*
X93896530Y-45050499D01*
X93896534Y-45050500D01*
X93896535Y-45050500D01*
X94103466Y-45050500D01*
X94103467Y-45050499D01*
X94306420Y-45010130D01*
X94497598Y-44930941D01*
X94669655Y-44815977D01*
X94784768Y-44700863D01*
X94846089Y-44667380D01*
X94915781Y-44672364D01*
X94971715Y-44714235D01*
X94988630Y-44745214D01*
X95006201Y-44792326D01*
X95006206Y-44792335D01*
X95092452Y-44907544D01*
X95092455Y-44907547D01*
X95207664Y-44993793D01*
X95207671Y-44993797D01*
X95342517Y-45044091D01*
X95342516Y-45044091D01*
X95349444Y-45044835D01*
X95402127Y-45050500D01*
X96597872Y-45050499D01*
X96657483Y-45044091D01*
X96792331Y-44993796D01*
X96907546Y-44907546D01*
X96993796Y-44792331D01*
X97044091Y-44657483D01*
X97050500Y-44597873D01*
X97050499Y-43402128D01*
X97044091Y-43342517D01*
X97041338Y-43335137D01*
X96993797Y-43207671D01*
X96993793Y-43207664D01*
X96907547Y-43092455D01*
X96907544Y-43092452D01*
X96792335Y-43006206D01*
X96792329Y-43006203D01*
X96681166Y-42964741D01*
X96625233Y-42922869D01*
X96600816Y-42857405D01*
X96600500Y-42848559D01*
X96600500Y-38651439D01*
X96620185Y-38584400D01*
X96672989Y-38538645D01*
X96681168Y-38535257D01*
X96792326Y-38493798D01*
X96792326Y-38493797D01*
X96792331Y-38493796D01*
X96907546Y-38407546D01*
X96993796Y-38292331D01*
X97044091Y-38157483D01*
X97050500Y-38097873D01*
X97050499Y-36902128D01*
X97044091Y-36842517D01*
X97038256Y-36826873D01*
X96993797Y-36707671D01*
X96993793Y-36707664D01*
X96907547Y-36592455D01*
X96907544Y-36592452D01*
X96792335Y-36506206D01*
X96792328Y-36506202D01*
X96657482Y-36455908D01*
X96657483Y-36455908D01*
X96597883Y-36449501D01*
X96597881Y-36449500D01*
X96597873Y-36449500D01*
X96597865Y-36449500D01*
X95850098Y-36449500D01*
X95820657Y-36440855D01*
X95790671Y-36434332D01*
X95785655Y-36430577D01*
X95783059Y-36429815D01*
X95762417Y-36413181D01*
X95636819Y-36287583D01*
X95603334Y-36226260D01*
X95600500Y-36199902D01*
X95600500Y-32014499D01*
X95620185Y-31947460D01*
X95672989Y-31901705D01*
X95724495Y-31890499D01*
X96842872Y-31890499D01*
X96902483Y-31884091D01*
X97037331Y-31833796D01*
X97152546Y-31747546D01*
X97238796Y-31632331D01*
X97289091Y-31497483D01*
X97295500Y-31437873D01*
X97295499Y-29842128D01*
X97289091Y-29782517D01*
X97280212Y-29758712D01*
X97238797Y-29647671D01*
X97238793Y-29647664D01*
X97152547Y-29532455D01*
X97152544Y-29532452D01*
X97037335Y-29446206D01*
X97037330Y-29446203D01*
X96951166Y-29414066D01*
X96895233Y-29372194D01*
X96870816Y-29306730D01*
X96870500Y-29297884D01*
X96870500Y-28017060D01*
X96870501Y-28017047D01*
X96870501Y-27848944D01*
X96829576Y-27696214D01*
X96829573Y-27696209D01*
X96750524Y-27559290D01*
X96750518Y-27559282D01*
X90197654Y-21006419D01*
X90164169Y-20945096D01*
X90162862Y-20899343D01*
X90186300Y-20751364D01*
X90186300Y-20564636D01*
X90157089Y-20380207D01*
X90099387Y-20202619D01*
X90014615Y-20036243D01*
X89904859Y-19885178D01*
X89772822Y-19753141D01*
X89621757Y-19643385D01*
X89455381Y-19558613D01*
X89277793Y-19500911D01*
X89277791Y-19500910D01*
X89277789Y-19500910D01*
X89149018Y-19480514D01*
X89093364Y-19471700D01*
X88906636Y-19471700D01*
X88863883Y-19478471D01*
X88722210Y-19500910D01*
X88544616Y-19558614D01*
X88378242Y-19643385D01*
X88227176Y-19753142D01*
X88095142Y-19885176D01*
X87985385Y-20036242D01*
X87900614Y-20202616D01*
X87842910Y-20380210D01*
X87813700Y-20564636D01*
X87813700Y-20751364D01*
X87842911Y-20935793D01*
X87900613Y-21113381D01*
X87985385Y-21279757D01*
X88095141Y-21430822D01*
X88227178Y-21562859D01*
X88378243Y-21672615D01*
X88544619Y-21757387D01*
X88722207Y-21815089D01*
X88906636Y-21844300D01*
X88906637Y-21844300D01*
X89093363Y-21844300D01*
X89093364Y-21844300D01*
X89241342Y-21820862D01*
X89310633Y-21829816D01*
X89348419Y-21855654D01*
X95633181Y-28140416D01*
X95666666Y-28201739D01*
X95669500Y-28228097D01*
X95669500Y-29297884D01*
X95663978Y-29316687D01*
X95663406Y-29336280D01*
X95654336Y-29349524D01*
X95649815Y-29364923D01*
X95635004Y-29377756D01*
X95623930Y-29393929D01*
X95601464Y-29406819D01*
X95597011Y-29410678D01*
X95593694Y-29412135D01*
X95591260Y-29413161D01*
X95502669Y-29446204D01*
X95489423Y-29456119D01*
X95475447Y-29462015D01*
X95455193Y-29464325D01*
X95436090Y-29471449D01*
X95418186Y-29468547D01*
X95406028Y-29469934D01*
X95395865Y-29464928D01*
X95379800Y-29462325D01*
X95299127Y-29428909D01*
X95299119Y-29428907D01*
X95101007Y-29389500D01*
X95101003Y-29389500D01*
X94898997Y-29389500D01*
X94848685Y-29399507D01*
X94816265Y-29405956D01*
X94808357Y-29405248D01*
X94800921Y-29408022D01*
X94774056Y-29402177D01*
X94746674Y-29399727D01*
X94738666Y-29394479D01*
X94732648Y-29393170D01*
X94704394Y-29372019D01*
X94559730Y-29227355D01*
X94559728Y-29227352D01*
X94440857Y-29108481D01*
X94440856Y-29108480D01*
X94354044Y-29058360D01*
X94354044Y-29058359D01*
X94354040Y-29058358D01*
X94303925Y-29029423D01*
X94151197Y-28988499D01*
X93993083Y-28988499D01*
X93985487Y-28988499D01*
X93985471Y-28988500D01*
X83587669Y-28988500D01*
X83587653Y-28988499D01*
X83580057Y-28988499D01*
X83421943Y-28988499D01*
X83314587Y-29017265D01*
X83269210Y-29029424D01*
X83269209Y-29029425D01*
X83225620Y-29054592D01*
X83225615Y-29054595D01*
X83219095Y-29058360D01*
X83132284Y-29108480D01*
X83066412Y-29174351D01*
X83059443Y-29179594D01*
X83034574Y-29188935D01*
X83011260Y-29201666D01*
X82996440Y-29203259D01*
X82994035Y-29204163D01*
X82992035Y-29203732D01*
X82984902Y-29204500D01*
X82744500Y-29204500D01*
X82677461Y-29184815D01*
X82631706Y-29132011D01*
X82620500Y-29080500D01*
X82620500Y-25819309D01*
X82640185Y-25752270D01*
X82692989Y-25706515D01*
X82697014Y-25704762D01*
X82730756Y-25690786D01*
X82898718Y-25578558D01*
X83041558Y-25435718D01*
X83153786Y-25267756D01*
X83231091Y-25081127D01*
X83270500Y-24883003D01*
X83270500Y-24680997D01*
X83231091Y-24482873D01*
X83153786Y-24296244D01*
X83100094Y-24215889D01*
X83079217Y-24149214D01*
X83097701Y-24081834D01*
X83100078Y-24078134D01*
X83153786Y-23997756D01*
X83231091Y-23811127D01*
X83270500Y-23613003D01*
X83270500Y-23410997D01*
X83231091Y-23212873D01*
X83197673Y-23132198D01*
X83190205Y-23062730D01*
X83209964Y-23017340D01*
X83209547Y-23017112D01*
X83212095Y-23012444D01*
X83212972Y-23010431D01*
X83213796Y-23009331D01*
X83264091Y-22874483D01*
X83270500Y-22814873D01*
X83270499Y-21669128D01*
X83264091Y-21609517D01*
X83259470Y-21597128D01*
X83213797Y-21474671D01*
X83213793Y-21474664D01*
X83127547Y-21359455D01*
X83127544Y-21359452D01*
X83012335Y-21273206D01*
X83012328Y-21273202D01*
X82877482Y-21222908D01*
X82877483Y-21222908D01*
X82817883Y-21216501D01*
X82817881Y-21216500D01*
X82817873Y-21216500D01*
X82817864Y-21216500D01*
X81222129Y-21216500D01*
X81222123Y-21216501D01*
X81162516Y-21222908D01*
X81027671Y-21273202D01*
X81027664Y-21273206D01*
X80912455Y-21359452D01*
X80912452Y-21359455D01*
X80826206Y-21474664D01*
X80826202Y-21474671D01*
X80775908Y-21609517D01*
X80769501Y-21669116D01*
X80769500Y-21669127D01*
X80769500Y-22237891D01*
X80769501Y-22715500D01*
X80749817Y-22782539D01*
X80697013Y-22828294D01*
X80645501Y-22839500D01*
X76534500Y-22839500D01*
X76467461Y-22819815D01*
X76421706Y-22767011D01*
X76410500Y-22715500D01*
X76410499Y-21597129D01*
X76410498Y-21597123D01*
X76410497Y-21597116D01*
X76404091Y-21537517D01*
X76380650Y-21474669D01*
X76353797Y-21402671D01*
X76353793Y-21402664D01*
X76267547Y-21287455D01*
X76267544Y-21287452D01*
X76152335Y-21201206D01*
X76152328Y-21201202D01*
X76017482Y-21150908D01*
X76017483Y-21150908D01*
X75957883Y-21144501D01*
X75957881Y-21144500D01*
X75957873Y-21144500D01*
X75957864Y-21144500D01*
X74362129Y-21144500D01*
X74362123Y-21144501D01*
X74302516Y-21150908D01*
X74167671Y-21201202D01*
X74167664Y-21201206D01*
X74052455Y-21287452D01*
X74052452Y-21287455D01*
X73966206Y-21402664D01*
X73966202Y-21402671D01*
X73915908Y-21537517D01*
X73913184Y-21562859D01*
X73909501Y-21597123D01*
X73909500Y-21597135D01*
X73909500Y-22742870D01*
X73909501Y-22742876D01*
X73915908Y-22802483D01*
X73966202Y-22937328D01*
X73966203Y-22937330D01*
X73966204Y-22937331D01*
X73967028Y-22938432D01*
X73967509Y-22939721D01*
X73970454Y-22945114D01*
X73969678Y-22945537D01*
X73991448Y-23003895D01*
X73982325Y-23060198D01*
X73948910Y-23140868D01*
X73948907Y-23140880D01*
X73909500Y-23338992D01*
X73909500Y-23541007D01*
X73948907Y-23739119D01*
X73948909Y-23739127D01*
X74026213Y-23925755D01*
X74079904Y-24006109D01*
X74100782Y-24072787D01*
X74082297Y-24140167D01*
X74079908Y-24143883D01*
X74076347Y-24149214D01*
X74026213Y-24224244D01*
X73948909Y-24410872D01*
X73948907Y-24410880D01*
X73909500Y-24608992D01*
X73909500Y-24811007D01*
X73948907Y-25009119D01*
X73948909Y-25009127D01*
X74026212Y-25195752D01*
X74026217Y-25195762D01*
X74138441Y-25363718D01*
X74281278Y-25506555D01*
X74281286Y-25506561D01*
X74449233Y-25618779D01*
X74449237Y-25618781D01*
X74449244Y-25618786D01*
X74482952Y-25632748D01*
X74537355Y-25676588D01*
X74559421Y-25742882D01*
X74559500Y-25747309D01*
X74559500Y-29540939D01*
X74559499Y-29540943D01*
X74559499Y-29608418D01*
X74559499Y-29658960D01*
X74550060Y-29706413D01*
X74486909Y-29858872D01*
X74486907Y-29858880D01*
X74447500Y-30056992D01*
X74447500Y-30259007D01*
X74486907Y-30457119D01*
X74486909Y-30457127D01*
X74564213Y-30643755D01*
X74617904Y-30724109D01*
X74638782Y-30790787D01*
X74620297Y-30858167D01*
X74617908Y-30861883D01*
X74614347Y-30867214D01*
X74564213Y-30942244D01*
X74486909Y-31128872D01*
X74486907Y-31128880D01*
X74447500Y-31326992D01*
X74447500Y-31529007D01*
X74486907Y-31727119D01*
X74486909Y-31727127D01*
X74520325Y-31807800D01*
X74527794Y-31877270D01*
X74508038Y-31922660D01*
X74508454Y-31922887D01*
X74505919Y-31927528D01*
X74505037Y-31929556D01*
X74504206Y-31930665D01*
X74504202Y-31930672D01*
X74453908Y-32065517D01*
X74448025Y-32120242D01*
X74447501Y-32125123D01*
X74447500Y-32125135D01*
X74447500Y-33270870D01*
X74447501Y-33270876D01*
X74453908Y-33330483D01*
X74504202Y-33465328D01*
X74504206Y-33465335D01*
X74590452Y-33580544D01*
X74590455Y-33580547D01*
X74705664Y-33666793D01*
X74705671Y-33666797D01*
X74750618Y-33683561D01*
X74840517Y-33717091D01*
X74900127Y-33723500D01*
X74973500Y-33723499D01*
X75040538Y-33743183D01*
X75086294Y-33795986D01*
X75097500Y-33847499D01*
X75097500Y-35611330D01*
X75097499Y-35611348D01*
X75097499Y-35777054D01*
X75097498Y-35777054D01*
X75097499Y-35777057D01*
X75138423Y-35929785D01*
X75159974Y-35967112D01*
X75167358Y-35979900D01*
X75167359Y-35979904D01*
X75167360Y-35979904D01*
X75217479Y-36066714D01*
X75217481Y-36066717D01*
X75336349Y-36185585D01*
X75336355Y-36185590D01*
X75752449Y-36601684D01*
X75785934Y-36663007D01*
X75786385Y-36713556D01*
X75749500Y-36898992D01*
X75749500Y-37101007D01*
X75788907Y-37299119D01*
X75788909Y-37299127D01*
X75866214Y-37485757D01*
X75866900Y-37487040D01*
X75867056Y-37487789D01*
X75868545Y-37491384D01*
X75867863Y-37491666D01*
X75881147Y-37555442D01*
X75856151Y-37620687D01*
X75799848Y-37662061D01*
X75757546Y-37669500D01*
X72742454Y-37669500D01*
X72675415Y-37649815D01*
X72629660Y-37597011D01*
X72619716Y-37527853D01*
X72631649Y-37491464D01*
X72631455Y-37491384D01*
X72632513Y-37488828D01*
X72633100Y-37487040D01*
X72633785Y-37485757D01*
X72633786Y-37485756D01*
X72711091Y-37299127D01*
X72750500Y-37101003D01*
X72750500Y-36898997D01*
X72711091Y-36700873D01*
X72633786Y-36514244D01*
X72633784Y-36514241D01*
X72633782Y-36514237D01*
X72521558Y-36346281D01*
X72378718Y-36203441D01*
X72210762Y-36091217D01*
X72210750Y-36091211D01*
X72177045Y-36077249D01*
X72122642Y-36033407D01*
X72100579Y-35967112D01*
X72100500Y-35962689D01*
X72100500Y-33952945D01*
X72100500Y-33952943D01*
X72059577Y-33800216D01*
X72034404Y-33756614D01*
X71980524Y-33663290D01*
X71980521Y-33663286D01*
X71980520Y-33663284D01*
X71868716Y-33551480D01*
X71868715Y-33551479D01*
X71864385Y-33547149D01*
X71864374Y-33547139D01*
X71407654Y-33090419D01*
X71374169Y-33029096D01*
X71372862Y-32983343D01*
X71396300Y-32835364D01*
X71396300Y-32648636D01*
X71367089Y-32464207D01*
X71309387Y-32286619D01*
X71224615Y-32120243D01*
X71114859Y-31969178D01*
X70982822Y-31837141D01*
X70831757Y-31727385D01*
X70665381Y-31642613D01*
X70487793Y-31584911D01*
X70487791Y-31584910D01*
X70487789Y-31584910D01*
X70359018Y-31564514D01*
X70303364Y-31555700D01*
X70116636Y-31555700D01*
X70073883Y-31562471D01*
X69932210Y-31584910D01*
X69754616Y-31642614D01*
X69588242Y-31727385D01*
X69437176Y-31837142D01*
X69305142Y-31969176D01*
X69195385Y-32120242D01*
X69110614Y-32286616D01*
X69052910Y-32464210D01*
X69023700Y-32648636D01*
X69023700Y-32835364D01*
X69052911Y-33019793D01*
X69110613Y-33197381D01*
X69195385Y-33363757D01*
X69305141Y-33514822D01*
X69437178Y-33646859D01*
X69588243Y-33756615D01*
X69754619Y-33841387D01*
X69932207Y-33899089D01*
X70116636Y-33928300D01*
X70116637Y-33928300D01*
X70303363Y-33928300D01*
X70303364Y-33928300D01*
X70451342Y-33904862D01*
X70520633Y-33913816D01*
X70558419Y-33939654D01*
X70863181Y-34244416D01*
X70896666Y-34305739D01*
X70899500Y-34332097D01*
X70899500Y-35962689D01*
X70879815Y-36029728D01*
X70827011Y-36075483D01*
X70822955Y-36077249D01*
X70789249Y-36091211D01*
X70789237Y-36091217D01*
X70621281Y-36203441D01*
X70478441Y-36346281D01*
X70366217Y-36514237D01*
X70366212Y-36514247D01*
X70288909Y-36700872D01*
X70288907Y-36700880D01*
X70249500Y-36898992D01*
X70249500Y-37101007D01*
X70288907Y-37299119D01*
X70288909Y-37299127D01*
X70366213Y-37485755D01*
X70369974Y-37491384D01*
X70412776Y-37555442D01*
X70419904Y-37566109D01*
X70440782Y-37632787D01*
X70422297Y-37700167D01*
X70419904Y-37703891D01*
X70366213Y-37784244D01*
X70288909Y-37970872D01*
X70288907Y-37970880D01*
X70249500Y-38168992D01*
X70249500Y-38371007D01*
X70288907Y-38569119D01*
X70288909Y-38569127D01*
X70322325Y-38649800D01*
X70329794Y-38719270D01*
X70310038Y-38764660D01*
X70310454Y-38764887D01*
X70307919Y-38769528D01*
X70307037Y-38771556D01*
X70306206Y-38772665D01*
X70306202Y-38772672D01*
X70255908Y-38907517D01*
X70249501Y-38967116D01*
X70249500Y-38967135D01*
X70249500Y-39889901D01*
X70229815Y-39956940D01*
X70213181Y-39977582D01*
X68272707Y-41918056D01*
X68272692Y-41918071D01*
X68271286Y-41919478D01*
X68271284Y-41919480D01*
X68159480Y-42031284D01*
X68155267Y-42038582D01*
X68148122Y-42050956D01*
X68148121Y-42050958D01*
X68115827Y-42106893D01*
X68080423Y-42168215D01*
X68039499Y-42320943D01*
X68039499Y-42320945D01*
X68039499Y-42489046D01*
X68039500Y-42489059D01*
X68039500Y-42721700D01*
X68019815Y-42788739D01*
X67967011Y-42834494D01*
X67915510Y-42845700D01*
X67906334Y-42845700D01*
X67906323Y-42845701D01*
X67846716Y-42852108D01*
X67711871Y-42902402D01*
X67711864Y-42902406D01*
X67596655Y-42988652D01*
X67596652Y-42988655D01*
X67510406Y-43103864D01*
X67510402Y-43103871D01*
X67460108Y-43238717D01*
X67453701Y-43298316D01*
X67453701Y-43298323D01*
X67453700Y-43298335D01*
X65000000Y-43298335D01*
X65000000Y-20324335D01*
X69023700Y-20324335D01*
X69023700Y-21791670D01*
X69023701Y-21791676D01*
X69030108Y-21851283D01*
X69080402Y-21986128D01*
X69080406Y-21986135D01*
X69166652Y-22101344D01*
X69166655Y-22101347D01*
X69281864Y-22187593D01*
X69281871Y-22187597D01*
X69416717Y-22237891D01*
X69416716Y-22237891D01*
X69423644Y-22238635D01*
X69476327Y-22244300D01*
X70943672Y-22244299D01*
X71003283Y-22237891D01*
X71138131Y-22187596D01*
X71253346Y-22101346D01*
X71339596Y-21986131D01*
X71389891Y-21851283D01*
X71396300Y-21791673D01*
X71396299Y-20324328D01*
X71389891Y-20264717D01*
X71339596Y-20129869D01*
X71339595Y-20129868D01*
X71339593Y-20129864D01*
X71253347Y-20014655D01*
X71253344Y-20014652D01*
X71138135Y-19928406D01*
X71138128Y-19928402D01*
X71003282Y-19878108D01*
X71003283Y-19878108D01*
X70943683Y-19871701D01*
X70943681Y-19871700D01*
X70943673Y-19871700D01*
X70943664Y-19871700D01*
X69476329Y-19871700D01*
X69476323Y-19871701D01*
X69416716Y-19878108D01*
X69281871Y-19928402D01*
X69281864Y-19928406D01*
X69166655Y-20014652D01*
X69166652Y-20014655D01*
X69080406Y-20129864D01*
X69080402Y-20129871D01*
X69030108Y-20264717D01*
X69023701Y-20324316D01*
X69023701Y-20324323D01*
X69023700Y-20324335D01*
X65000000Y-20324335D01*
X65000000Y-19124000D01*
X65019685Y-19056961D01*
X65072489Y-19011206D01*
X65124000Y-19000000D01*
X99876000Y-19000000D01*
X99943039Y-19019685D01*
G37*
%TD.AperFunction*%
%TD*%
%TA.AperFunction,Conductor*%
%TO.N,VEE*%
G36*
X132183039Y-18386110D02*
G01*
X132228794Y-18438914D01*
X132240000Y-18490425D01*
X132240000Y-48242425D01*
X132220315Y-48309464D01*
X132167511Y-48355219D01*
X132116000Y-48366425D01*
X102364000Y-48366425D01*
X102296961Y-48346740D01*
X102251206Y-48293936D01*
X102240000Y-48242425D01*
X102240000Y-18490425D01*
X102259685Y-18423386D01*
X102312489Y-18377631D01*
X102364000Y-18366425D01*
X132116000Y-18366425D01*
X132183039Y-18386110D01*
G37*
%TD.AperFunction*%
%TD*%
M02*
